Coiny-Regular.ufo
<glyph name="exclam" format="1">
  <advance width="266"/>
  <unicode hex="0021"/>
  <outline>
    <contour>
      <point x="222.244" y="523.229" type="curve" smooth="yes"/>
      <point x="222.244" y="577"/>
      <point x="196.244" y="601"/>
      <point x="123.59" y="601" type="curve" smooth="yes"/>
      <point x="52.2441" y="601"/>
      <point x="35.2441" y="567"/>
      <point x="35.2441" y="513.601" type="curve" smooth="yes"/>
      <point x="35.2441" y="429.987"/>
      <point x="70.2441" y="315.355"/>
      <point x="70.2441" y="231.544" type="curve" smooth="yes"/>
      <point x="70.2441" y="183.743"/>
      <point x="83.1348" y="161"/>
      <point x="126.063" y="161" type="curve" smooth="yes"/>
      <point x="169.454" y="161"/>
      <point x="187.244" y="181.854"/>
      <point x="187.244" y="229" type="curve" smooth="yes"/>
      <point x="187.244" y="314.355"/>
      <point x="222.244" y="435.15"/>
    </contour>
    <contour>
      <point x="30.835" y="60.0947" type="curve" smooth="yes"/>
      <point x="30.835" y="109.823"/>
      <point x="78.7754" y="126.254"/>
      <point x="127" y="126.254" type="curve" smooth="yes"/>
      <point x="184.237" y="126.254"/>
      <point x="230" y="112.387"/>
      <point x="230" y="60.0947" type="curve" smooth="yes"/>
      <point x="230" y="15.21"/>
      <point x="189.739" y="-5.90527"/>
      <point x="127" y="-5.90527" type="curve" smooth="yes"/>
      <point x="65.1143" y="-5.90527"/>
      <point x="30.835" y="22.5801"/>
    </contour>
  </outline>
</glyph>
<glyph name="numbersign" format="1">
  <advance width="607"/>
  <unicode hex="0023"/>
  <outline>
    <contour>
      <point x="567.125" y="400.946" type="line" smooth="yes"/>
      <point x="601.625" y="400.946"/>
      <point x="641.875" y="365.297"/>
      <point x="641.875" y="333.097" type="qcurve" smooth="yes"/>
      <point x="641.875" y="262.946"/>
      <point x="555.625" y="262.946" type="qcurve" smooth="yes"/>
      <point x="513.972" y="262.946" type="line"/>
      <point x="498.479" y="207.747" type="line"/>
      <point x="528.025" y="207.747" type="line" smooth="yes"/>
      <point x="562.525" y="207.747"/>
      <point x="602.775" y="172.097"/>
      <point x="602.775" y="139.896" type="qcurve" smooth="yes"/>
      <point x="602.775" y="69.7471"/>
      <point x="516.525" y="69.7471" type="qcurve" smooth="yes"/>
      <point x="460.071" y="69.7471" type="line"/>
      <point x="454.44" y="49.0469" type="line" smooth="yes"/>
      <point x="437.549" y="-11.6465"/>
      <point x="377.832" y="-11.6465" type="qcurve" smooth="yes"/>
      <point x="340.418" y="-11.6465"/>
      <point x="302.709" y="22.5342"/>
      <point x="302.709" y="50.1963" type="qcurve" smooth="yes"/>
      <point x="302.709" y="54.7617"/>
      <point x="305.039" y="69.7471" type="qcurve"/>
      <point x="194.171" y="69.7471" type="line"/>
      <point x="188.791" y="49.9453" type="line" smooth="yes"/>
      <point x="171.899" y="-10.748"/>
      <point x="112.182" y="-10.748" type="qcurve" smooth="yes"/>
      <point x="74.7686" y="-10.748"/>
      <point x="37.0596" y="23.4326"/>
      <point x="37.0596" y="51.0947" type="qcurve" smooth="yes"/>
      <point x="37.0596" y="55.0791"/>
      <point x="39.2998" y="70.0547" type="qcurve"/>
      <point x="-30.875" y="74.1719"/>
      <point x="-30.875" y="136.559" type="qcurve" smooth="yes"/>
      <point x="-30.875" y="207.747"/>
      <point x="56.4541" y="207.747" type="qcurve" smooth="yes"/>
      <point x="77.1377" y="207.747" type="line"/>
      <point x="92.7979" y="262.946" type="line"/>
      <point x="84.708" y="262.946" type="line" smooth="yes"/>
      <point x="3.625" y="262.946"/>
      <point x="3.625" y="329.759" type="qcurve" smooth="yes"/>
      <point x="3.625" y="400.946"/>
      <point x="90.9541" y="400.946" type="qcurve" smooth="yes"/>
      <point x="131.592" y="400.946" type="line"/>
      <point x="137.663" y="422.545" type="line" smooth="yes"/>
      <point x="146.66" y="454.552"/>
      <point x="185.402" y="477.488"/>
      <point x="220.975" y="477.488" type="qcurve" smooth="yes"/>
      <point x="248.478" y="477.488"/>
      <point x="288.399" y="443.302"/>
      <point x="288.399" y="416.795" type="qcurve" smooth="yes"/>
      <point x="286.434" y="400.946" type="line"/>
      <point x="397.494" y="400.946" type="line"/>
      <point x="403.312" y="421.646" type="line" smooth="yes"/>
      <point x="412.31" y="453.653"/>
      <point x="451.052" y="476.59"/>
      <point x="486.625" y="476.59" type="qcurve" smooth="yes"/>
      <point x="514.128" y="476.59"/>
      <point x="554.05" y="442.403"/>
      <point x="554.05" y="415.896" type="qcurve" smooth="yes"/>
      <point x="554.05" y="408.597"/>
      <point x="552.295" y="400.946" type="qcurve"/>
    </contour>
    <contour>
      <point x="244.622" y="266.396" type="line"/>
      <point x="227.979" y="204.297" type="line"/>
      <point x="345.34" y="204.297" type="line"/>
      <point x="362.151" y="266.396" type="line"/>
    </contour>
  </outline>
</glyph>
<glyph name="dollar" format="1">
  <advance width="720"/>
  <unicode hex="0024"/>
  <outline>
    <contour>
      <point x="258.439" y="683.236" type="curve"/>
      <point x="258.957" y="715.102" type="line" smooth="yes"/>
      <point x="259.983" y="778.246"/>
      <point x="299.471" y="804"/>
      <point x="353" y="804" type="curve" smooth="yes"/>
      <point x="407.196" y="804"/>
      <point x="447" y="792.767"/>
      <point x="447" y="724.088" type="curve" smooth="yes"/>
      <point x="447" y="682.828" type="line"/>
      <point x="564.949" y="659.69"/>
      <point x="643.115" y="594.591"/>
      <point x="643.115" y="538.581" type="curve" smooth="yes"/>
      <point x="643.115" y="508.567"/>
      <point x="619.78" y="493.521"/>
      <point x="600.25" y="493.521" type="curve" smooth="yes"/>
      <point x="554.05" y="493.521"/>
      <point x="472.623" y="567.692"/>
      <point x="384.52" y="567.692" type="curve" smooth="yes"/>
      <point x="349.734" y="567.692"/>
      <point x="325.869" y="556.327"/>
      <point x="325.869" y="520.181" type="curve" smooth="yes"/>
      <point x="325.869" y="467.992"/>
      <point x="418.688" y="435.536"/>
      <point x="520.52" y="376" type="curve" smooth="yes"/>
      <point x="627.389" y="316.02"/>
      <point x="660" y="266.54"/>
      <point x="660" y="200.48" type="curve" smooth="yes"/>
      <point x="660" y="114.796"/>
      <point x="624.125" y="17.421"/>
      <point x="451" y="-2.74691" type="curve"/>
      <point x="451" y="-36" type="line" smooth="yes"/>
      <point x="451" y="-116.841"/>
      <point x="417.053" y="-136.854"/>
      <point x="355" y="-136.854" type="curve" smooth="yes"/>
      <point x="293.12" y="-136.854"/>
      <point x="262" y="-115"/>
      <point x="262" y="-43.6465" type="curve" smooth="yes"/>
      <point x="262" y="7.33503" type="line"/>
      <point x="137.142" y="37.3019"/>
      <point x="56.5195" y="109.579"/>
      <point x="56.5195" y="160.939" type="curve" smooth="yes"/>
      <point x="56.5195" y="187.985"/>
      <point x="73.8242" y="213.633"/>
      <point x="114.074" y="213.633" type="curve" smooth="yes"/>
      <point x="165.672" y="213.633"/>
      <point x="255.775" y="160.752"/>
      <point x="343.67" y="160.752" type="curve" smooth="yes"/>
      <point x="368.789" y="160.752"/>
      <point x="388.52" y="168.957"/>
      <point x="388.52" y="192.431" type="curve" smooth="yes"/>
      <point x="388.52" y="233.585"/>
      <point x="331.024" y="246.578"/>
      <point x="181.52" y="332" type="curve" smooth="yes"/>
      <point x="105.273" y="375.564"/>
      <point x="67.7002" y="451.405"/>
      <point x="67.7002" y="502" type="curve" smooth="yes"/>
      <point x="67.7002" y="589.676"/>
      <point x="132.796" y="659.908"/>
    </contour>
  </outline>
</glyph>
<glyph name="percent" format="1">
  <advance width="797"/>
  <unicode hex="0025"/>
  <outline>
    <contour>
      <point x="686.279" y="136.363" type="qcurve" smooth="yes"/>
      <point x="686.279" y="158.805"/>
      <point x="680.292" y="176.068" type="qcurve" smooth="yes"/>
      <point x="674.305" y="193.332"/>
      <point x="663.596" y="193.332" type="qcurve" smooth="yes"/>
      <point x="655.917" y="193.332"/>
      <point x="650.2" y="184.507" type="qcurve" smooth="yes"/>
      <point x="644.482" y="175.682"/>
      <point x="641.87" y="163.013" type="qcurve" smooth="yes"/>
      <point x="639.258" y="150.343"/>
      <point x="639.258" y="136.363" type="qcurve" smooth="yes"/>
      <point x="639.258" y="115.229"/>
      <point x="645.612" y="99.4131" type="qcurve" smooth="yes"/>
      <point x="651.966" y="83.5967"/>
      <point x="663.596" y="83.5967" type="qcurve" smooth="yes"/>
      <point x="686.279" y="83.5967"/>
    </contour>
    <contour>
      <point x="663.596" y="-12.499" type="qcurve" smooth="yes"/>
      <point x="594.216" y="-12.499"/>
      <point x="552.288" y="22.8467" type="qcurve" smooth="yes"/>
      <point x="510.36" y="58.1934"/>
      <point x="510.36" y="136.363" type="qcurve" smooth="yes"/>
      <point x="510.36" y="219.794"/>
      <point x="550.979" y="254.8" type="qcurve" smooth="yes"/>
      <point x="591.599" y="289.805"/>
      <point x="663.596" y="289.805" type="qcurve" smooth="yes"/>
      <point x="709.039" y="289.805"/>
      <point x="742.014" y="274.824" type="qcurve" smooth="yes"/>
      <point x="774.987" y="259.844"/>
      <point x="795.047" y="224.742" type="qcurve" smooth="yes"/>
      <point x="815.106" y="189.642"/>
      <point x="815.106" y="136.363" type="qcurve" smooth="yes"/>
      <point x="815.106" y="58.0791"/>
      <point x="773.863" y="22.79" type="qcurve" smooth="yes"/>
      <point x="732.619" y="-12.499"/>
    </contour>
    <contour>
      <point x="146.064" y="519.941" type="qcurve" smooth="yes"/>
      <point x="146.064" y="534.137"/>
      <point x="143.667" y="546.769" type="qcurve" smooth="yes"/>
      <point x="141.27" y="559.4"/>
      <point x="135.948" y="568.155" type="qcurve" smooth="yes"/>
      <point x="130.627" y="576.91"/>
      <point x="123.381" y="576.91" type="qcurve" smooth="yes"/>
      <point x="112.026" y="576.91"/>
      <point x="105.535" y="559.493" type="qcurve" smooth="yes"/>
      <point x="99.0439" y="542.076"/>
      <point x="99.0439" y="519.941" type="qcurve" smooth="yes"/>
      <point x="99.0439" y="498.807"/>
      <point x="105.397" y="482.99" type="qcurve" smooth="yes"/>
      <point x="111.751" y="467.175"/>
      <point x="123.381" y="467.175" type="qcurve" smooth="yes"/>
      <point x="146.064" y="467.175"/>
    </contour>
    <contour>
      <point x="123.381" y="371.079" type="qcurve" smooth="yes"/>
      <point x="78.5566" y="371.079"/>
      <point x="45.625" y="384.651" type="qcurve" smooth="yes"/>
      <point x="12.6934" y="398.224"/>
      <point x="-8.58008" y="432.51" type="qcurve" smooth="yes"/>
      <point x="-29.8545" y="466.796"/>
      <point x="-29.8545" y="519.941" type="qcurve" smooth="yes"/>
      <point x="-29.8545" y="603.371"/>
      <point x="10.7646" y="638.377" type="qcurve" smooth="yes"/>
      <point x="51.3838" y="673.383"/>
      <point x="123.381" y="673.383" type="qcurve" smooth="yes"/>
      <point x="168.825" y="673.383"/>
      <point x="201.799" y="658.402" type="qcurve" smooth="yes"/>
      <point x="234.772" y="643.422"/>
      <point x="254.832" y="608.32" type="qcurve" smooth="yes"/>
      <point x="274.892" y="573.219"/>
      <point x="274.892" y="519.941" type="qcurve" smooth="yes"/>
      <point x="274.892" y="466.734"/>
      <point x="254.028" y="432.495" type="qcurve" smooth="yes"/>
      <point x="233.166" y="398.255"/>
      <point x="200.605" y="384.667" type="qcurve" smooth="yes"/>
      <point x="168.044" y="371.079"/>
    </contour>
    <component base="slash" xOffset="163.017"/>
  </outline>
</glyph>
<glyph name="ampersand" format="1">
  <advance width="838"/>
  <unicode hex="0026"/>
  <outline>
    <contour>
      <point x="407.696" y="154" type="curve"/>
      <point x="290.106" y="280" type="line"/>
      <point x="275.54" y="269.233"/>
      <point x="262.203" y="246.438"/>
      <point x="262.203" y="221" type="curve" smooth="yes"/>
      <point x="262.203" y="173"/>
      <point x="305" y="144.002"/>
      <point x="356" y="144.002" type="curve" smooth="yes"/>
      <point x="373.853" y="144.002"/>
      <point x="391.863" y="147.165"/>
    </contour>
    <contour>
      <point x="90.7168" y="527.884" type="curve" smooth="yes"/>
      <point x="90.7168" y="635"/>
      <point x="204.075" y="684.23"/>
      <point x="338.801" y="684.23" type="curve" smooth="yes"/>
      <point x="490.519" y="684.23"/>
      <point x="591.696" y="625.83"/>
      <point x="591.696" y="527.884" type="curve" smooth="yes"/>
      <point x="591.696" y="455.541"/>
      <point x="550.208" y="406.418"/>
      <point x="508.533" y="377.381" type="curve"/>
      <point x="546.948" y="329.416"/>
      <point x="576.535" y="294.409"/>
      <point x="615.696" y="250" type="curve" smooth="yes"/>
      <point x="615.771" y="249.893"/>
      <point x="638.809" y="297.549"/>
      <point x="653.696" y="330" type="curve" smooth="yes"/>
      <point x="667" y="359"/>
      <point x="685" y="364.26"/>
      <point x="719.696" y="364.26" type="curve" smooth="yes"/>
      <point x="755.919" y="364.26"/>
      <point x="779.616" y="344.71"/>
      <point x="779.616" y="310" type="curve" smooth="yes"/>
      <point x="779.616" y="262.423"/>
      <point x="752.431" y="185.817"/>
      <point x="725.696" y="140" type="curve"/>
      <point x="745.696" y="102"/>
      <point x="812.979" y="83"/>
      <point x="812.979" y="51.1494" type="curve" smooth="yes"/>
      <point x="812.979" y="32.6006"/>
      <point x="802.092" y="-6.98242"/>
      <point x="741.696" y="-6.98242" type="curve" smooth="yes"/>
      <point x="662.374" y="-6.98242"/>
      <point x="634.685" y="27.6279"/>
      <point x="603.696" y="42" type="curve"/>
      <point x="536.538" y="20"/>
      <point x="444.959" y="-6.51953"/>
      <point x="313.696" y="-6.51953" type="curve" smooth="yes"/>
      <point x="80.5703" y="-6.51953"/>
      <point x="12.3496" y="121.721"/>
      <point x="12.3496" y="210" type="curve" smooth="yes"/>
      <point x="12.3496" y="303.744"/>
      <point x="74.2666" y="370.265"/>
      <point x="148" y="399.973" type="curve"/>
      <point x="124.619" y="421.557"/>
      <point x="90.7168" y="463.888"/>
    </contour>
    <contour>
      <point x="383.855" y="529" type="curve" smooth="yes"/>
      <point x="383.855" y="566.187"/>
      <point x="370.346" y="593.596"/>
      <point x="341.422" y="593.596" type="curve" smooth="yes"/>
      <point x="312.024" y="593.596"/>
      <point x="296.621" y="565.188"/>
      <point x="296.621" y="528.042" type="curve" smooth="yes"/>
      <point x="296.621" y="491.906"/>
      <point x="310.966" y="452.898"/>
      <point x="341.106" y="452.898" type="curve" smooth="yes"/>
      <point x="371.606" y="452.898"/>
      <point x="383.855" y="491.875"/>
    </contour>
  </outline>
</glyph>
<glyph name="quotesingle" format="1">
  <advance width="243"/>
  <unicode hex="0027"/>
  <outline>
    <contour>
      <point x="31.5996" y="571.23" type="line" smooth="yes"/>
      <point x="31.5996" y="643.82"/>
      <point x="70.334" y="667.316"/>
      <point x="127.369" y="667.316" type="curve" smooth="yes"/>
      <point x="177.585" y="667.316"/>
      <point x="211" y="633.735"/>
      <point x="211" y="561.867" type="curve" smooth="yes"/>
      <point x="211" y="431.565" type="line" smooth="yes"/>
      <point x="211" y="371.151"/>
      <point x="166.056" y="350.482"/>
      <point x="123.487" y="350.482" type="curve" smooth="yes"/>
      <point x="83.4199" y="350.482"/>
      <point x="31.5996" y="368.33"/>
      <point x="31.5996" y="437.812" type="curve" smooth="yes"/>
    </contour>
  </outline>
</glyph>
<glyph name="parenleft" format="1">
  <advance width="343"/>
  <unicode hex="0028"/>
  <outline>
    <contour>
      <point x="266.627" y="280.903" type="qcurve" smooth="yes"/>
      <point x="266.627" y="202.849"/>
      <point x="300.92" y="43.7207"/>
      <point x="335.214" y="-72.5645"/>
      <point x="335.214" y="-98.5967" type="qcurve" smooth="yes"/>
      <point x="335.214" y="-126.983"/>
      <point x="304.688" y="-156.152"/>
      <point x="282.521" y="-156.152" type="qcurve" smooth="yes"/>
      <point x="244.341" y="-156.152"/>
      <point x="156.524" y="-90.3369"/>
      <point x="79.8086" y="20.7168"/>
      <point x="29.0176" y="188.577"/>
      <point x="29.0176" y="280.072" type="qcurve" smooth="yes"/>
      <point x="29.0176" y="371.332"/>
      <point x="79.8857" y="538.92"/>
      <point x="156.684" y="649.863"/>
      <point x="244.567" y="715.658"/>
      <point x="282.727" y="715.658" type="qcurve" smooth="yes"/>
      <point x="304.896" y="715.658"/>
      <point x="335.42" y="686.489"/>
      <point x="335.42" y="658.103" type="qcurve" smooth="yes"/>
      <point x="335.42" y="635.947"/>
      <point x="313.923" y="552.673"/>
      <point x="288.125" y="467.938"/>
      <point x="266.627" y="341.24"/>
    </contour>
  </outline>
</glyph>
<glyph name="parenright" format="1">
  <advance width="410"/>
  <unicode hex="0029"/>
  <outline>
    <contour>
      <point x="101.391" y="280.903" type="curve" smooth="yes"/>
      <point x="101.391" y="100.917"/>
      <point x="32.8037" y="-28.7754"/>
      <point x="32.8037" y="-98.5967" type="curve" smooth="yes"/>
      <point x="32.8037" y="-138.847"/>
      <point x="58.4521" y="-156.152"/>
      <point x="85.4971" y="-156.152" type="curve" smooth="yes"/>
      <point x="185.991" y="-156.152"/>
      <point x="339" y="24.0283"/>
      <point x="339" y="280.072" type="curve" smooth="yes"/>
      <point x="339" y="535.47"/>
      <point x="185.741" y="715.658"/>
      <point x="85.291" y="715.658" type="curve" smooth="yes"/>
      <point x="58.2451" y="715.658"/>
      <point x="32.5977" y="698.353"/>
      <point x="32.5977" y="658.103" type="curve" smooth="yes"/>
      <point x="32.5977" y="588.268"/>
      <point x="101.391" y="458.547"/>
    </contour>
  </outline>
</glyph>
<glyph name="asterisk" format="1">
  <advance width="456"/>
  <unicode hex="002A"/>
  <outline>
    <contour>
      <point x="152.211" y="747.327" type="line" smooth="yes"/>
      <point x="152.211" y="801.217"/>
      <point x="187.496" y="843.413"/>
      <point x="230.729" y="843.413" type="qcurve" smooth="yes"/>
      <point x="267.447" y="843.413"/>
      <point x="297.111" y="793.45"/>
      <point x="297.111" y="737.964" type="qcurve" smooth="yes"/>
      <point x="297.111" y="700.576" type="line"/>
      <point x="356.15" y="721.514" type="line" smooth="yes"/>
      <point x="390.208" y="733.592"/>
      <point x="411.351" y="733.592" type="qcurve" smooth="yes"/>
      <point x="437.997" y="733.592"/>
      <point x="478.44" y="687.922"/>
      <point x="478.44" y="653.663" type="qcurve" smooth="yes"/>
      <point x="478.44" y="630.725"/>
      <point x="438.436" y="596.867"/>
      <point x="396.91" y="582.148" type="qcurve" smooth="yes"/>
      <point x="357.479" y="568.174" type="line"/>
      <point x="401.941" y="504.673" type="line" smooth="yes"/>
      <point x="424.028" y="473.128"/>
      <point x="424.028" y="448.963" type="qcurve" smooth="yes"/>
      <point x="424.028" y="423.241"/>
      <point x="374.381" y="377.542"/>
      <point x="346.95" y="377.542" type="qcurve" smooth="yes"/>
      <point x="314.07" y="377.542"/>
      <point x="284.851" y="419.272" type="qcurve" smooth="yes"/>
      <point x="223.221" y="507.287" type="line"/>
      <point x="161.592" y="419.272" type="line" smooth="yes"/>
      <point x="132.371" y="377.541"/>
      <point x="99.7002" y="377.541" type="qcurve" smooth="yes"/>
      <point x="72.6113" y="377.541"/>
      <point x="22.4102" y="422.656"/>
      <point x="22.4102" y="473.125"/>
      <point x="44.501" y="504.673" type="qcurve" smooth="yes"/>
      <point x="89.5371" y="568.992" type="line"/>
      <point x="52.416" y="582.148" type="line" smooth="yes"/>
      <point x="10.8906" y="596.867"/>
      <point x="-29.1143" y="630.725"/>
      <point x="-29.1143" y="653.663" type="qcurve" smooth="yes"/>
      <point x="-29.1143" y="687.711"/>
      <point x="11.2129" y="733.594"/>
      <point x="37.6006" y="733.594" type="qcurve" smooth="yes"/>
      <point x="59.1074" y="733.594"/>
      <point x="93.1758" y="721.514" type="qcurve" smooth="yes"/>
      <point x="152.211" y="700.577" type="line"/>
    </contour>
  </outline>
</glyph>
<glyph name="plus" format="1">
  <advance width="456"/>
  <unicode hex="002B"/>
  <outline>
    <contour>
      <point x="151.911" y="349.141" type="line" smooth="yes"/>
      <point x="151.911" y="403.043"/>
      <point x="187.192" y="445.227"/>
      <point x="230.43" y="445.227" type="qcurve" smooth="yes"/>
      <point x="255.32" y="445.227"/>
      <point x="284.652" y="421.891"/>
      <point x="296.812" y="376.848"/>
      <point x="296.812" y="339.776" type="qcurve" smooth="yes"/>
      <point x="296.812" y="104.63" type="line" smooth="yes"/>
      <point x="296.812" y="23.5469"/>
      <point x="226.549" y="23.5469" type="qcurve" smooth="yes"/>
      <point x="151.911" y="23.5469"/>
      <point x="151.911" y="110.876" type="qcurve" smooth="yes"/>
    </contour>
    <contour>
      <point x="341.415" y="306.837" type="line" smooth="yes"/>
      <point x="395.317" y="306.837"/>
      <point x="437.501" y="271.556"/>
      <point x="437.501" y="228.319" type="qcurve" smooth="yes"/>
      <point x="437.501" y="191.598"/>
      <point x="387.551" y="161.937"/>
      <point x="332.051" y="161.937" type="qcurve" smooth="yes"/>
      <point x="96.9043" y="161.937" type="line" smooth="yes"/>
      <point x="15.8213" y="161.937"/>
      <point x="15.8213" y="232.199" type="qcurve" smooth="yes"/>
      <point x="15.8213" y="266.896"/>
      <point x="51.7588" y="306.837"/>
      <point x="99.7012" y="306.837" type="qcurve" smooth="yes"/>
    </contour>
  </outline>
</glyph>
<glyph name="comma" format="1">
  <advance width="235"/>
  <unicode hex="002C"/>
  <outline>
    <contour>
      <point x="19.835" y="60.1592" type="curve" smooth="yes"/>
      <point x="19.835" y="10.4307"/>
      <point x="65.7754" y="-6"/>
      <point x="114" y="-6" type="curve" smooth="yes"/>
      <point x="114.1" y="-6"/>
      <point x="114.199" y="-5.99987"/>
      <point x="114.299" y="-5.99987" type="curve"/>
      <point x="94.0876" y="-37.4328"/>
      <point x="74.5288" y="-50.6761"/>
      <point x="24.1895" y="-75.2988" type="curve" smooth="yes"/>
      <point x="13.5225" y="-80.5166"/>
      <point x="11.5059" y="-91.5752"/>
      <point x="11.5059" y="-100" type="curve" smooth="yes"/>
      <point x="11.5059" y="-118.623"/>
      <point x="24.707" y="-132.078"/>
      <point x="45" y="-132.078" type="curve" smooth="yes"/>
      <point x="97.6406" y="-132.078"/>
      <point x="220" y="-73.4404"/>
      <point x="220" y="43" type="curve" smooth="yes"/>
      <point x="220" y="107.311"/>
      <point x="169.081" y="126.159"/>
      <point x="114" y="126.159" type="curve" smooth="yes"/>
      <point x="52.1143" y="126.159"/>
      <point x="19.835" y="97.6738"/>
    </contour>
  </outline>
</glyph>
<glyph name="hyphen" format="1">
  <advance width="344"/>
  <unicode hex="002D"/>
  <outline>
    <contour>
      <point x="239.952" y="346.48" type="line" smooth="yes"/>
      <point x="293.846" y="346.48"/>
      <point x="336.038" y="311.196"/>
      <point x="336.038" y="267.963" type="qcurve" smooth="yes"/>
      <point x="336.038" y="243.073"/>
      <point x="312.694" y="213.738"/>
      <point x="267.651" y="201.58"/>
      <point x="230.589" y="201.58" type="qcurve" smooth="yes"/>
      <point x="94.5381" y="201.58" type="line" smooth="yes"/>
      <point x="13.4551" y="201.58"/>
      <point x="13.4551" y="271.843" type="qcurve" smooth="yes"/>
      <point x="13.4551" y="346.48"/>
      <point x="100.784" y="346.48" type="qcurve" smooth="yes"/>
    </contour>
  </outline>
</glyph>
<glyph name="period" format="1">
  <advance width="231"/>
  <unicode hex="002E"/>
  <outline>
    <contour>
      <point x="18.835" y="61.1592" type="curve" smooth="yes"/>
      <point x="18.835" y="11.4307"/>
      <point x="64.7754" y="-5"/>
      <point x="113" y="-5" type="curve" smooth="yes"/>
      <point x="170.237" y="-5"/>
      <point x="208" y="8.86719"/>
      <point x="208" y="61.1592" type="curve" smooth="yes"/>
      <point x="208" y="106.044"/>
      <point x="175.739" y="127.159"/>
      <point x="113" y="127.159" type="curve" smooth="yes"/>
      <point x="51.1143" y="127.159"/>
      <point x="18.835" y="98.6738"/>
    </contour>
  </outline>
</glyph>
<glyph name="slash" format="1">
  <advance width="546"/>
  <unicode hex="002F"/>
  <outline>
    <contour>
      <point x="290.54" y="49.5391" type="line" smooth="yes"/>
      <point x="272.251" y="4.60352"/>
      <point x="249.946" y="-16.6328"/>
      <point x="207.36" y="-16.6328" type="curve" smooth="yes"/>
      <point x="145.891" y="-16.6328"/>
      <point x="74.8535" y="30.4805"/>
      <point x="74.8535" y="82" type="curve" smooth="yes"/>
      <point x="74.8535" y="95.4131"/>
      <point x="79.2285" y="108.441"/>
      <point x="85.7549" y="124.643" type="curve" smooth="yes"/>
      <point x="289.491" y="631.9" type="line" smooth="yes"/>
      <point x="304.896" y="669.743"/>
      <point x="328.552" y="685.833"/>
      <point x="369.36" y="685.833" type="curve" smooth="yes"/>
      <point x="430.367" y="685.833"/>
      <point x="505" y="643.563"/>
      <point x="505" y="593" type="curve" smooth="yes"/>
      <point x="505" y="582.117"/>
      <point x="501.947" y="570.583"/>
      <point x="496.547" y="557.317" type="curve" smooth="yes"/>
    </contour>
  </outline>
</glyph>
<glyph name="zero" format="1">
  <advance width="574"/>
  <unicode hex="0030"/>
  <outline>
    <contour>
      <point x="343" y="284" type="curve" smooth="yes"/>
      <point x="343" y="364.456"/>
      <point x="325.167" y="453.075"/>
      <point x="288.551" y="453.075" type="curve" smooth="yes"/>
      <point x="250.449" y="453.075"/>
      <point x="231.225" y="363.352"/>
      <point x="231.225" y="284" type="curve" smooth="yes"/>
      <point x="231.225" y="205.598"/>
      <point x="249.56" y="122.232"/>
      <point x="288.551" y="122.232" type="curve" smooth="yes"/>
      <point x="327.243" y="122.232"/>
      <point x="343" y="204.505"/>
    </contour>
    <contour>
      <point x="288.551" y="-4.89062" type="curve" smooth="yes"/>
      <point x="146.734" y="-4.89062"/>
      <point x="32.0547" y="99.7141"/>
      <point x="32.0547" y="284" type="curve" smooth="yes"/>
      <point x="32.0547" y="469.716"/>
      <point x="141.709" y="580.855"/>
      <point x="288.551" y="580.855" type="curve" smooth="yes"/>
      <point x="435.011" y="580.855"/>
      <point x="542.047" y="469.716"/>
      <point x="542.047" y="284" type="curve" smooth="yes"/>
      <point x="542.047" y="99.7141"/>
      <point x="430.001" y="-4.89062"/>
    </contour>
  </outline>
</glyph>
<glyph name="one" format="1">
  <advance width="504"/>
  <unicode hex="0031"/>
  <outline>
    <contour>
      <point x="383.287" y="150.834" type="line" smooth="yes"/>
      <point x="383.287" y="39.3965"/>
      <point x="342.681" y="0.530273"/>
      <point x="266.429" y="0.530273" type="curve" smooth="yes"/>
      <point x="191.624" y="0.530273"/>
      <point x="154.406" y="32.7334"/>
      <point x="153.799" y="143.188" type="curve" smooth="yes"/>
      <point x="151.751" y="515.552" type="line"/>
      <point x="95.3311" y="515.552"/>
      <point x="41.5479" y="533.551"/>
      <point x="41.5479" y="591.63" type="curve" smooth="yes"/>
      <point x="41.5479" y="634.772"/>
      <point x="78.6689" y="667.53"/>
      <point x="149.837" y="667.53" type="curve" smooth="yes"/>
      <point x="188.055" y="667.53"/>
      <point x="225.075" y="666.962"/>
      <point x="257.938" y="666.962" type="curve" smooth="yes"/>
      <point x="357.989" y="666.962"/>
      <point x="382.905" y="636.48"/>
      <point x="382.968" y="557.13" type="curve" smooth="yes"/>
    </contour>
  </outline>
</glyph>
<glyph name="two" format="1">
  <advance width="527"/>
  <unicode hex="0032"/>
  <outline>
    <contour>
      <point x="297.299" y="140.407" type="line"/>
      <point x="367.374" y="140.827"/>
      <point x="409.139" y="140.827" type="curve" smooth="yes"/>
      <point x="479.139" y="140.827"/>
      <point x="497.754" y="119.107"/>
      <point x="497.754" y="71.833" type="curve" smooth="yes"/>
      <point x="497.754" y="9.6416"/>
      <point x="459.188" y="0"/>
      <point x="373.299" y="0" type="curve" smooth="yes"/>
      <point x="291.71" y="0"/>
      <point x="211.299" y="-0.201172"/>
      <point x="143.34" y="-0.106445" type="curve" smooth="yes"/>
      <point x="67.2988" y="0"/>
      <point x="32.3965" y="11.5771"/>
      <point x="32.3965" y="85" type="curve" smooth="yes"/>
      <point x="32.3965" y="118.499"/>
      <point x="41.2988" y="140"/>
      <point x="75.2988" y="163" type="curve" smooth="yes"/>
      <point x="242.246" y="275.936"/>
      <point x="296.476" y="307.906"/>
      <point x="296.476" y="409" type="curve" smooth="yes"/>
      <point x="296.476" y="467.378"/>
      <point x="273.183" y="480.17"/>
      <point x="247.382" y="480.17" type="curve" smooth="yes"/>
      <point x="229.781" y="480.17"/>
      <point x="224.826" y="470.2"/>
      <point x="224.826" y="455.336" type="curve" smooth="yes"/>
      <point x="224.826" y="442.082"/>
      <point x="238.116" y="422.679"/>
      <point x="238.116" y="400.279" type="curve" smooth="yes"/>
      <point x="238.116" y="352.899"/>
      <point x="200.915" y="348.307"/>
      <point x="156.116" y="348.307" type="curve" smooth="yes"/>
      <point x="57.8643" y="348.307"/>
      <point x="29.2461" y="416.332"/>
      <point x="29.2461" y="456" type="curve" smooth="yes"/>
      <point x="29.2461" y="528.4"/>
      <point x="87.8262" y="580"/>
      <point x="239.864" y="580" type="curve" smooth="yes"/>
      <point x="383.117" y="580"/>
      <point x="495.2" y="537.352"/>
      <point x="495.2" y="406" type="curve" smooth="yes"/>
      <point x="495.2" y="246"/>
    </contour>
  </outline>
</glyph>
<glyph name="three" format="1">
  <advance width="502"/>
  <unicode hex="0033"/>
  <outline>
    <contour>
      <point x="266.842" y="391.199" type="curve" smooth="yes"/>
      <point x="266.842" y="422.199"/>
      <point x="228.616" y="429.531"/>
      <point x="187" y="429.531" type="curve" smooth="yes"/>
      <point x="155.306" y="429.531"/>
      <point x="128.539" y="423.475"/>
      <point x="101" y="423.475" type="curve" smooth="yes"/>
      <point x="59.4785" y="423.475"/>
      <point x="38.5996" y="449.864"/>
      <point x="38.5996" y="503.009" type="curve" smooth="yes"/>
      <point x="38.5996" y="552"/>
      <point x="97.4707" y="580"/>
      <point x="220" y="580" type="curve" smooth="yes"/>
      <point x="384" y="580"/>
      <point x="453.399" y="519"/>
      <point x="453.399" y="442" type="curve" smooth="yes"/>
      <point x="453.399" y="396.14"/>
      <point x="438" y="344.657"/>
      <point x="378.778" y="304" type="curve"/>
      <point x="442.866" y="269.867"/>
      <point x="470" y="240"/>
      <point x="470" y="164" type="curve" smooth="yes"/>
      <point x="470" y="65"/>
      <point x="386.526" y="-6.35547"/>
      <point x="251" y="-6.35547" type="curve" smooth="yes"/>
      <point x="78" y="-6.35547"/>
      <point x="16.5996" y="30.8311"/>
      <point x="16.5996" y="97" type="curve" smooth="yes"/>
      <point x="16.5996" y="165.011"/>
      <point x="47.2695" y="177.394"/>
      <point x="83" y="177.394" type="curve" smooth="yes"/>
      <point x="114.984" y="177.394"/>
      <point x="147.557" y="170.775"/>
      <point x="182" y="170.775" type="curve" smooth="yes"/>
      <point x="232.368" y="170.775"/>
      <point x="276.842" y="177.425"/>
      <point x="276.842" y="201.199" type="curve" smooth="yes"/>
      <point x="276.842" y="227.846"/>
      <point x="259" y="238.445"/>
      <point x="190.274" y="238.445" type="curve" smooth="yes"/>
      <point x="125.274" y="238.445"/>
      <point x="98" y="251.885"/>
      <point x="98" y="304" type="curve"/>
      <point x="98" y="345.571"/>
      <point x="125.078" y="362.199"/>
      <point x="169" y="362.199" type="curve" smooth="yes"/>
      <point x="266.672" y="362.199"/>
      <point x="266.842" y="373.205"/>
    </contour>
  </outline>
</glyph>
<glyph name="four" format="1">
  <advance width="595"/>
  <unicode hex="0034"/>
  <outline>
    <contour>
      <point x="304.103" y="130.188" type="qcurve" smooth="yes"/>
      <point x="304.103" y="51.5791"/>
      <point x="358.498" y="-12.4697"/>
      <point x="416.732" y="-12.4697" type="qcurve" smooth="yes"/>
      <point x="476.003" y="-12.4697"/>
      <point x="533.655" y="56.7529"/>
      <point x="533.592" y="137.834" type="qcurve" smooth="yes"/>
      <point x="533.271" y="544.13" type="line" smooth="yes"/>
      <point x="533.223" y="605.436"/>
      <point x="481.366" y="653.962"/>
      <point x="408.241" y="653.962" type="qcurve" smooth="yes"/>
      <point x="392.479" y="653.962"/>
      <point x="340.525" y="654.53"/>
      <point x="320.747" y="654.53" type="qcurve" smooth="yes"/>
      <point x="229.921" y="654.53"/>
      <point x="178.183" y="578.63" type="qcurve" smooth="yes"/>
      <point x="73.5088" y="425.072"/>
      <point x="18.4287" y="339.431" type="qcurve" smooth="yes"/>
      <point x="-8.875" y="296.978"/>
      <point x="-8.875" y="245.13" type="qcurve" smooth="yes"/>
      <point x="-8.875" y="195.797"/>
      <point x="54.0674" y="133.656"/>
      <point x="118.71" y="133.656" type="qcurve" smooth="yes"/>
      <point x="155.827" y="133.656"/>
      <point x="416.251" y="133.779"/>
      <point x="465.124" y="133.779" type="qcurve" smooth="yes"/>
      <point x="497.031" y="133.779"/>
      <point x="524.454" y="134.398"/>
      <point x="566.359" y="138.226"/>
      <point x="582.533" y="146.818"/>
      <point x="602.205" y="162.493"/>
      <point x="608.247" y="187.098"/>
      <point x="608.247" y="204.887" type="qcurve" smooth="yes"/>
      <point x="608.247" y="246.815"/>
      <point x="565.254" y="280.78"/>
      <point x="506.34" y="280.78" type="qcurve" smooth="yes"/>
      <point x="200.359" y="280.78" type="line"/>
      <point x="314.997" y="456.73" type="line"/>
      <point x="304.103" y="238.133"/>
    </contour>
  </outline>
</glyph>
<glyph name="five" format="1">
  <advance width="595"/>
  <unicode hex="0035"/>
  <outline>
    <contour>
      <point x="474.502" y="505.891" type="line" smooth="yes"/>
      <point x="519.352" y="505.891"/>
      <point x="535.451" y="526.578"/>
      <point x="535.451" y="578.341" type="curve" smooth="yes"/>
      <point x="535.451" y="649.649"/>
      <point x="516.133" y="666.891"/>
      <point x="453.802" y="666.891" type="curve" smooth="yes"/>
      <point x="372.09" y="666.891"/>
      <point x="251.463" y="666.891"/>
      <point x="169.752" y="666.891" type="curve" smooth="yes"/>
      <point x="80.0518" y="666.891"/>
      <point x="55.1943" y="636.99"/>
      <point x="55.1943" y="584.16" type="curve" smooth="yes"/>
      <point x="55.4424" y="405.091" type="line" smooth="yes"/>
      <point x="55.4424" y="313"/>
      <point x="70.5086" y="289.687"/>
      <point x="141" y="289.687" type="curve" smooth="yes"/>
      <point x="272.791" y="289.687"/>
      <point x="329.123" y="266.876"/>
      <point x="329.123" y="233.569" type="curve" smooth="yes"/>
      <point x="329.123" y="190.6"/>
      <point x="296.675" y="178.582"/>
      <point x="238.752" y="178.582" type="curve" smooth="yes"/>
      <point x="200.636" y="178.582"/>
      <point x="146.6" y="201.193"/>
      <point x="111.205" y="201.193" type="curve" smooth="yes"/>
      <point x="70.1152" y="201.193"/>
      <point x="41.7441" y="177.799"/>
      <point x="41.7441" y="103.391" type="curve" smooth="yes"/>
      <point x="41.7441" y="32.3213"/>
      <point x="96.1474" y="-5.63086"/>
      <point x="261.752" y="-5.63086" type="curve" smooth="yes"/>
      <point x="465.369" y="-5.63086"/>
      <point x="555.855" y="85.8115"/>
      <point x="555.855" y="234.49" type="curve" smooth="yes"/>
      <point x="555.855" y="318.653"/>
      <point x="522.394" y="385.391"/>
      <point x="450.95" y="413.891" type="curve" smooth="yes"/>
      <point x="392.276" y="437.296"/>
      <point x="339.951" y="440.859"/>
      <point x="268.217" y="440.859" type="curve"/>
      <point x="269.502" y="505.891" type="line"/>
    </contour>
  </outline>
</glyph>
<glyph name="six" format="1">
  <advance width="512"/>
  <unicode hex="0036"/>
  <outline>
    <contour>
      <point x="315.863" y="203.016" type="qcurve" smooth="yes"/>
      <point x="315.863" y="230.232"/>
      <point x="306.517" y="278.009"/>
      <point x="285.394" y="311.133"/>
      <point x="270.809" y="311.133" type="qcurve" smooth="yes"/>
      <point x="248.467" y="311.133"/>
      <point x="222.465" y="245.084"/>
      <point x="222.465" y="160.898"/>
      <point x="247.577" y="97.0625"/>
      <point x="293.017" y="97.0625"/>
      <point x="315.863" y="159.604"/>
    </contour>
    <contour>
      <point x="205.463" y="403.088" type="qcurve"/>
      <point x="256.929" y="418.972"/>
      <point x="305.513" y="418.972" type="qcurve" smooth="yes"/>
      <point x="401.525" y="418.972"/>
      <point x="525.615" y="305.345"/>
      <point x="525.615" y="217.938" type="qcurve" smooth="yes"/>
      <point x="525.615" y="108.256"/>
      <point x="390.277" y="-19.0488"/>
      <point x="279.063" y="-19.0488" type="qcurve" smooth="yes"/>
      <point x="210.807" y="-19.0488"/>
      <point x="105.125" y="19.8428"/>
      <point x="41.3936" y="81.5107"/>
      <point x="0.613281" y="167.405"/>
      <point x="-14.4561" y="251.572"/>
      <point x="-14.4561" y="298.438" type="qcurve" smooth="yes"/>
      <point x="-14.4561" y="377.791"/>
      <point x="23.7578" y="504.69"/>
      <point x="103.81" y="602.561"/>
      <point x="239.253" y="655.679"/>
      <point x="330.813" y="655.679" type="qcurve" smooth="yes"/>
      <point x="411.048" y="655.679"/>
      <point x="521.172" y="589.008"/>
      <point x="521.172" y="536.487" type="qcurve" smooth="yes"/>
      <point x="521.172" y="501.904"/>
      <point x="477.936" y="448.604"/>
      <point x="442.363" y="448.604" type="qcurve" smooth="yes"/>
      <point x="425.173" y="448.604"/>
      <point x="351.863" y="480.748"/>
      <point x="322.763" y="480.748" type="qcurve" smooth="yes"/>
      <point x="281.37" y="480.748"/>
      <point x="212.962" y="436.056"/>
    </contour>
  </outline>
</glyph>
<glyph name="seven" format="1">
  <advance width="541"/>
  <unicode hex="0037"/>
  <outline>
    <contour>
      <point x="90.4443" y="91.3506" type="curve" smooth="yes"/>
      <point x="90.4443" y="35.3008"/>
      <point x="123.336" y="0"/>
      <point x="188.384" y="0" type="curve" smooth="yes"/>
      <point x="254.689" y="0"/>
      <point x="280.46" y="9.81543"/>
      <point x="290" y="98" type="curve" smooth="yes"/>
      <point x="299.444" y="185.301"/>
      <point x="326" y="306"/>
      <point x="463.701" y="416.894" type="curve" smooth="yes"/>
      <point x="495.672" y="442.64"/>
      <point x="506.604" y="461.395"/>
      <point x="506.604" y="494.894" type="curve" smooth="yes"/>
      <point x="506.604" y="568.316"/>
      <point x="471.701" y="579.894"/>
      <point x="395.66" y="580" type="curve" smooth="yes"/>
      <point x="327.701" y="580.095"/>
      <point x="247.29" y="579.894"/>
      <point x="165.701" y="579.894" type="curve" smooth="yes"/>
      <point x="79.8125" y="579.894"/>
      <point x="41.2461" y="570.252"/>
      <point x="41.2461" y="508.061" type="curve" smooth="yes"/>
      <point x="41.2461" y="460.786"/>
      <point x="59.8613" y="439.066"/>
      <point x="129.861" y="439.066" type="curve" smooth="yes"/>
      <point x="171.626" y="439.066"/>
      <point x="241.701" y="439.486" type="line"/>
      <point x="90.4443" y="251.351"/>
    </contour>
  </outline>
</glyph>
<glyph name="eight" format="1">
  <advance width="542"/>
  <unicode hex="0038"/>
  <outline>
    <contour>
      <point x="323.39" y="477.606" type="qcurve" smooth="yes"/>
      <point x="323.39" y="508.809"/>
      <point x="301.661" y="556.042"/>
      <point x="281.769" y="556.042" type="qcurve" smooth="yes"/>
      <point x="261.015" y="556.042"/>
      <point x="236.859" y="503.911"/>
      <point x="236.859" y="437.498"/>
      <point x="260.171" y="387.162"/>
      <point x="281.33" y="387.162" type="qcurve" smooth="yes"/>
      <point x="302.268" y="387.162"/>
      <point x="323.39" y="440.549"/>
    </contour>
    <contour>
      <point x="280.902" y="286.073" type="qcurve" smooth="yes"/>
      <point x="230.218" y="286.073"/>
      <point x="141.871" y="310.867"/>
      <point x="75.6992" y="356.646"/>
      <point x="37.6045" y="426.643"/>
      <point x="37.6045" y="469.365" type="qcurve" smooth="yes"/>
      <point x="37.6045" y="555.781"/>
      <point x="173.968" y="657.023"/>
      <point x="387.677" y="657.023"/>
      <point x="522.557" y="555.91"/>
      <point x="522.557" y="469.365" type="qcurve" smooth="yes"/>
      <point x="522.557" y="384.324"/>
      <point x="385.454" y="286.073"/>
    </contour>
    <contour>
      <point x="326.173" y="175.91" type="qcurve" smooth="yes"/>
      <point x="326.173" y="214.903"/>
      <point x="306.266" y="273.931"/>
      <point x="288.041" y="273.931" type="qcurve" smooth="yes"/>
      <point x="274.869" y="273.931"/>
      <point x="253.124" y="256.472"/>
      <point x="239.624" y="228.041"/>
      <point x="232.313" y="193.716"/>
      <point x="232.313" y="175.964" type="qcurve" smooth="yes"/>
      <point x="232.313" y="137.701"/>
      <point x="257.645" y="79.7871"/>
      <point x="280.636" y="79.7871" type="qcurve" smooth="yes"/>
      <point x="303.304" y="79.7871"/>
      <point x="326.173" y="136.526"/>
    </contour>
    <contour>
      <point x="280.142" y="-19.4961" type="qcurve" smooth="yes"/>
      <point x="159.466" y="-19.4961"/>
      <point x="-0.211914" y="84.6123"/>
      <point x="-0.211914" y="174.491" type="qcurve" smooth="yes"/>
      <point x="-0.211914" y="235.334"/>
      <point x="73.1592" y="326.319"/>
      <point x="199.535" y="373.097"/>
      <point x="280.146" y="373.097" type="qcurve" smooth="yes"/>
      <point x="403.178" y="373.097"/>
      <point x="558.6" y="266.085"/>
      <point x="558.6" y="174.491" type="qcurve" smooth="yes"/>
      <point x="558.6" y="84.4883"/>
      <point x="400.616" y="-19.4961"/>
    </contour>
  </outline>
</glyph>
<glyph name="nine" format="1">
  <advance width="512"/>
  <unicode hex="0039"/>
  <outline>
    <contour>
      <point x="189.546" y="433.164" type="qcurve" smooth="yes"/>
      <point x="189.546" y="390.155"/>
      <point x="213.067" y="325.048"/>
      <point x="234.601" y="325.048" type="qcurve" smooth="yes"/>
      <point x="249.684" y="325.048"/>
      <point x="272.38" y="358.306"/>
      <point x="282.944" y="406.517"/>
      <point x="282.944" y="433.104" type="qcurve" smooth="yes"/>
      <point x="282.944" y="475.281"/>
      <point x="257.832" y="539.117"/>
      <point x="235.04" y="539.117" type="qcurve" smooth="yes"/>
      <point x="219.642" y="539.117"/>
      <point x="198.354" y="506.854"/>
      <point x="189.546" y="460.653"/>
    </contour>
    <contour>
      <point x="305.696" y="233.093" type="qcurve"/>
      <point x="254.23" y="217.208"/>
      <point x="205.646" y="217.208" type="qcurve" smooth="yes"/>
      <point x="109.634" y="217.208"/>
      <point x="-14.4561" y="342.534"/>
      <point x="-14.4561" y="438.942" type="qcurve" smooth="yes"/>
      <point x="-14.4561" y="542.237"/>
      <point x="120.882" y="662.129"/>
      <point x="232.096" y="662.129" type="qcurve" smooth="yes"/>
      <point x="300.353" y="662.129"/>
      <point x="406.034" y="621.265"/>
      <point x="469.766" y="556.47"/>
      <point x="510.546" y="466.22"/>
      <point x="525.615" y="377.784"/>
      <point x="525.615" y="328.542" type="qcurve" smooth="yes"/>
      <point x="525.615" y="267.103"/>
      <point x="502.954" y="163.757"/>
      <point x="452.213" y="75.8125"/>
      <point x="375.345" y="14.7695"/>
      <point x="262.11" y="-19.499"/>
      <point x="190.696" y="-19.499" type="qcurve" smooth="yes"/>
      <point x="110.462" y="-19.499"/>
      <point x="0.337891" y="47.1719"/>
      <point x="0.337891" y="99.6924" type="qcurve" smooth="yes"/>
      <point x="0.337891" y="121.761"/>
      <point x="18.3945" y="161.281"/>
      <point x="55.2588" y="187.576"/>
      <point x="79.1465" y="187.576" type="qcurve" smooth="yes"/>
      <point x="96.3369" y="187.576"/>
      <point x="169.646" y="155.432"/>
      <point x="198.746" y="155.432" type="qcurve" smooth="yes"/>
      <point x="217.194" y="155.432"/>
      <point x="253.13" y="167.336"/>
      <point x="281.854" y="187.807"/>
      <point x="302.315" y="216.792"/>
    </contour>
  </outline>
</glyph>
<glyph name="less" format="1">
  <advance width="395"/>
  <unicode hex="003C"/>
  <outline>
    <contour>
      <point x="250.642" y="6.9082" type="qcurve" smooth="yes"/>
      <point x="47.7129" y="157.595" type="line" smooth="yes"/>
      <point x="9.7627" y="184.045"/>
      <point x="9.7627" y="234.646" type="qcurve" smooth="yes"/>
      <point x="9.7627" y="281.833"/>
      <point x="44.8369" y="309.322" type="qcurve" smooth="yes"/>
      <point x="219.063" y="450.845" type="line" smooth="yes"/>
      <point x="272.087" y="492.402"/>
      <point x="314.33" y="492.402" type="qcurve" smooth="yes"/>
      <point x="336.202" y="492.402"/>
      <point x="380.063" y="445.805"/>
      <point x="380.063" y="417.495" type="qcurve" smooth="yes"/>
      <point x="380.063" y="397.945"/>
      <point x="351.313" y="363.445"/>
      <point x="316.813" y="335.845" type="qcurve" smooth="yes"/>
      <point x="197.467" y="238.095" type="line"/>
      <point x="319.582" y="144.901" type="line" smooth="yes"/>
      <point x="340.75" y="129.911"/>
      <point x="366.657" y="105.93"/>
      <point x="378.237" y="84.5771"/>
      <point x="381.396" y="69.2646"/>
      <point x="381.396" y="57.7021" type="qcurve" smooth="yes"/>
      <point x="381.396" y="38.9014"/>
      <point x="359.989" y="3.35742"/>
      <point x="329.505" y="-17.2051"/>
      <point x="315.663" y="-17.2051" type="qcurve" smooth="yes"/>
      <point x="284.621" y="-17.2051"/>
    </contour>
  </outline>
</glyph>
<glyph name="equal" format="1">
  <advance width="463"/>
  <unicode hex="003D"/>
  <outline>
    <contour>
      <point x="349.243" y="199.056" type="line" smooth="yes"/>
      <point x="403.146" y="199.056"/>
      <point x="445.328" y="163.774"/>
      <point x="445.328" y="120.537" type="qcurve" smooth="yes"/>
      <point x="445.328" y="83.8164"/>
      <point x="395.378" y="54.1553"/>
      <point x="339.879" y="54.1553" type="qcurve" smooth="yes"/>
      <point x="102.432" y="54.1553" type="line" smooth="yes"/>
      <point x="21.3496" y="54.1553"/>
      <point x="21.3496" y="124.418" type="qcurve" smooth="yes"/>
      <point x="21.3496" y="199.056"/>
      <point x="108.679" y="199.056" type="qcurve" smooth="yes"/>
    </contour>
    <contour>
      <point x="349.243" y="404.905" type="line" smooth="yes"/>
      <point x="403.146" y="404.905"/>
      <point x="445.328" y="369.624"/>
      <point x="445.328" y="326.388" type="qcurve" smooth="yes"/>
      <point x="445.328" y="301.497"/>
      <point x="421.992" y="272.164"/>
      <point x="376.95" y="260.005"/>
      <point x="339.879" y="260.005" type="qcurve" smooth="yes"/>
      <point x="102.432" y="260.005" type="line" smooth="yes"/>
      <point x="21.3496" y="260.005"/>
      <point x="21.3496" y="330.268" type="qcurve" smooth="yes"/>
      <point x="21.3496" y="404.905"/>
      <point x="108.679" y="404.905" type="qcurve" smooth="yes"/>
    </contour>
  </outline>
</glyph>
<glyph name="greater" format="1">
  <advance width="395"/>
  <unicode hex="003E"/>
  <outline>
    <contour>
      <point x="140.518" y="6.9082" type="qcurve" smooth="yes"/>
      <point x="343.446" y="157.595" type="line" smooth="yes"/>
      <point x="381.396" y="184.526"/>
      <point x="381.396" y="234.646" type="qcurve" smooth="yes"/>
      <point x="381.396" y="281.833"/>
      <point x="346.322" y="309.322" type="qcurve" smooth="yes"/>
      <point x="172.096" y="450.845" type="line" smooth="yes"/>
      <point x="119.072" y="492.402"/>
      <point x="76.8291" y="492.402" type="qcurve" smooth="yes"/>
      <point x="54.957" y="492.402"/>
      <point x="11.0957" y="445.805"/>
      <point x="11.0957" y="417.495" type="qcurve" smooth="yes"/>
      <point x="11.0957" y="404.497"/>
      <point x="24.4424" y="379.935"/>
      <point x="50.7656" y="354.14"/>
      <point x="74.3457" y="335.845" type="qcurve" smooth="yes"/>
      <point x="193.692" y="238.095" type="line"/>
      <point x="71.5771" y="144.901" type="line" smooth="yes"/>
      <point x="43.8047" y="125.233"/>
      <point x="15.7207" y="93.3047"/>
      <point x="9.7627" y="73.1895"/>
      <point x="9.7627" y="57.7021" type="qcurve" smooth="yes"/>
      <point x="9.7627" y="38.9014"/>
      <point x="31.1699" y="3.35742"/>
      <point x="61.6543" y="-17.2051"/>
      <point x="75.4961" y="-17.2051" type="qcurve" smooth="yes"/>
      <point x="106.538" y="-17.2051"/>
    </contour>
  </outline>
</glyph>
<glyph name="question" format="1">
  <advance width="482"/>
  <unicode hex="003F"/>
  <outline>
    <contour>
      <point x="491.669" y="497.535" type="qcurve" smooth="yes"/>
      <point x="491.669" y="586.729"/>
      <point x="353.058" y="677.548"/>
      <point x="222.827" y="677.548" type="qcurve" smooth="yes"/>
      <point x="102.05" y="677.548"/>
      <point x="-10.7676" y="611.354"/>
      <point x="-10.7676" y="553.844" type="qcurve" smooth="yes"/>
      <point x="-10.7676" y="536.463"/>
      <point x="3.81543" y="500.093"/>
      <point x="34.8535" y="463.72"/>
      <point x="94.9072" y="440.656"/>
      <point x="134.768" y="440.656" type="qcurve" smooth="yes"/>
      <point x="177.25" y="440.656"/>
      <point x="220.822" y="460.312"/>
      <point x="220.822" y="492.505" type="qcurve" smooth="yes"/>
      <point x="220.822" y="504.818"/>
      <point x="205.577" y="541.96"/>
      <point x="205.577" y="547.431" type="qcurve" smooth="yes"/>
      <point x="205.577" y="572.205"/>
      <point x="231.451" y="572.205" type="qcurve" smooth="yes"/>
      <point x="247.556" y="572.205"/>
      <point x="273.276" y="543.182"/>
      <point x="286.419" y="499.179"/>
      <point x="286.419" y="475.066" type="qcurve" smooth="yes"/>
      <point x="286.419" y="441.064"/>
      <point x="258.85" y="377.105"/>
      <point x="219.504" y="328.639"/>
      <point x="180.158" y="284.194"/>
      <point x="152.59" y="237.663"/>
      <point x="152.59" y="216.398" type="qcurve" smooth="yes"/>
      <point x="152.59" y="164.648"/>
      <point x="225.23" y="164.648" type="qcurve" smooth="yes"/>
      <point x="255.589" y="164.648"/>
      <point x="344.92" y="218.332"/>
      <point x="430.845" y="304.708"/>
      <point x="491.669" y="432.635"/>
    </contour>
    <contour>
      <point x="107.948" y="55.5068" type="qcurve" smooth="yes"/>
      <point x="107.948" y="95.2227"/>
      <point x="171.404" y="131.59"/>
      <point x="218.538" y="131.59" type="qcurve" smooth="yes"/>
      <point x="336.988" y="131.59"/>
      <point x="336.988" y="55.5068" type="qcurve" smooth="yes"/>
      <point x="336.988" y="30.2012"/>
      <point x="307.547" y="-4.20215"/>
      <point x="255.172" y="-20.3926"/>
      <point x="218.538" y="-20.3926" type="qcurve" smooth="yes"/>
      <point x="166.613" y="-20.3926"/>
      <point x="107.948" y="22.0996"/>
    </contour>
  </outline>
</glyph>
<glyph name="at" format="1">
  <advance width="1030"/>
  <unicode hex="0040"/>
  <outline>
    <contour>
      <point x="522.468" y="-221.308" type="curve" smooth="yes"/>
      <point x="182.672" y="-221.308"/>
      <point x="17.6543" y="-42.4053"/>
      <point x="18.1162" y="214.401" type="curve" smooth="yes"/>
      <point x="18.5791" y="471.645"/>
      <point x="195.332" y="618.348"/>
      <point x="524.289" y="618.348" type="curve" smooth="yes"/>
      <point x="735.751" y="618.348"/>
      <point x="1013.02" y="552.157"/>
      <point x="1013.02" y="282.149" type="curve" smooth="yes"/>
      <point x="1013.02" y="126.657"/>
      <point x="923.315" y="-0.520508"/>
      <point x="641.619" y="-0.520508" type="curve" smooth="yes"/>
      <point x="604.318" y="-0.520508"/>
      <point x="583.013" y="9.25477"/>
      <point x="571.517" y="29.2653" type="curve"/>
      <point x="537.776" y="6.42298"/>
      <point x="495.735" y="-5.53613"/>
      <point x="449.775" y="-5.53613" type="curve" smooth="yes"/>
      <point x="368.295" y="-5.53613"/>
      <point x="302.217" y="64.6533"/>
      <point x="302.217" y="189.46" type="curve" smooth="yes"/>
      <point x="302.217" y="314.771"/>
      <point x="365.188" y="390.414"/>
      <point x="449.501" y="390.414" type="curve" smooth="yes"/>
      <point x="496.137" y="390.414"/>
      <point x="537.781" y="371.658"/>
      <point x="571.035" y="344.331" type="curve"/>
      <point x="584.447" y="369.603"/>
      <point x="608.981" y="384.647"/>
      <point x="641.131" y="384.647" type="curve" smooth="yes"/>
      <point x="691.876" y="384.647"/>
      <point x="733.232" y="368.952"/>
      <point x="733.232" y="296.041" type="curve" smooth="yes"/>
      <point x="733.232" y="147.356" type="line"/>
      <point x="784.959" y="160.224"/>
      <point x="815.979" y="195.429"/>
      <point x="815.979" y="258.907" type="curve" smooth="yes"/>
      <point x="815.979" y="409.475"/>
      <point x="720.731" y="457.479"/>
      <point x="529.982" y="457.479" type="curve" smooth="yes"/>
      <point x="354.673" y="457.479"/>
      <point x="217.775" y="400.751"/>
      <point x="217.775" y="199.106" type="curve" smooth="yes"/>
      <point x="217.775" y="57.9609"/>
      <point x="285.004" y="-64.0137"/>
      <point x="504.682" y="-64.0137" type="curve" smooth="yes"/>
      <point x="530.659" y="-64.0137"/>
      <point x="560.3" y="-59.082"/>
      <point x="589.782" y="-59.082" type="curve" smooth="yes"/>
      <point x="632.101" y="-59.082"/>
      <point x="666.677" y="-96.1396"/>
      <point x="666.677" y="-141.165" type="curve" smooth="yes"/>
      <point x="666.677" y="-214.792"/>
      <point x="597.111" y="-221.308"/>
    </contour>
    <contour>
      <point x="559.58" y="115.92" type="curve"/>
      <point x="559.58" y="267.004" type="line"/>
      <point x="551.083" y="281.263"/>
      <point x="539.301" y="290.443"/>
      <point x="523.923" y="290.443" type="curve" smooth="yes"/>
      <point x="494.392" y="290.443"/>
      <point x="477.263" y="238.066"/>
      <point x="477.263" y="189.46" type="curve" smooth="yes"/>
      <point x="477.263" y="144.472"/>
      <point x="492.066" y="94.1826"/>
      <point x="523.322" y="94.1826" type="curve" smooth="yes"/>
      <point x="539.151" y="94.1826"/>
      <point x="551.063" y="102.679"/>
    </contour>
  </outline>
</glyph>
<glyph name="A" format="1">
  <advance width="578"/>
  <unicode hex="0041"/>
  <outline>
    <contour>
      <point x="371" y="252" type="curve" smooth="yes"/>
      <point x="193.813" y="252" type="line" smooth="yes"/>
      <point x="129.403" y="252"/>
      <point x="112.875" y="222.336"/>
      <point x="112.875" y="190.098" type="curve" smooth="yes"/>
      <point x="112.875" y="156.015"/>
      <point x="132.11" y="132"/>
      <point x="188.383" y="132" type="curve" smooth="yes"/>
      <point x="362.857" y="132" type="line" smooth="yes"/>
      <point x="428.776" y="132"/>
      <point x="459.554" y="146.713"/>
      <point x="459.554" y="186.724" type="curve" smooth="yes"/>
      <point x="459.554" y="232.79"/>
      <point x="437.914" y="252"/>
    </contour>
    <contour>
      <point x="289.688" y="453.327" type="curve" smooth="yes"/>
      <point x="318.348" y="453.327"/>
      <point x="334.632" y="431.357"/>
      <point x="334.632" y="356.388" type="curve" smooth="yes"/>
      <point x="334.632" y="276.498"/>
      <point x="335.838" y="157.921"/>
      <point x="335.838" y="85.9727" type="curve" smooth="yes"/>
      <point x="335.838" y="28.4473"/>
      <point x="361.403" y="0"/>
      <point x="439.36" y="0" type="curve" smooth="yes"/>
      <point x="517.634" y="0"/>
      <point x="536" y="45.2969"/>
      <point x="536" y="268.469" type="curve" smooth="yes"/>
      <point x="536" y="514.939"/>
      <point x="394.637" y="595.469"/>
      <point x="291.596" y="595.469" type="curve" smooth="yes"/>
      <point x="187.659" y="595.469"/>
      <point x="42.3516" y="514.939"/>
      <point x="42.3516" y="268.469" type="curve" smooth="yes"/>
      <point x="42.3516" y="45.2969"/>
      <point x="61.4043" y="0"/>
      <point x="138.991" y="0" type="curve" smooth="yes"/>
      <point x="216.951" y="0"/>
      <point x="242.514" y="28.4473"/>
      <point x="242.514" y="85.9727" type="curve" smooth="yes"/>
      <point x="242.514" y="158.007"/>
      <point x="243.72" y="276.688"/>
      <point x="243.72" y="354.238" type="curve" smooth="yes"/>
      <point x="243.72" y="431.243"/>
      <point x="259.29" y="453.327"/>
    </contour>
  </outline>
</glyph>
<glyph name="B" format="1">
  <advance width="578"/>
  <unicode hex="0042"/>
  <outline>
    <contour>
      <point x="245.896" y="135.699" type="line" smooth="yes"/>
      <point x="245.973" y="35.0898"/>
      <point x="213.848" y="0"/>
      <point x="144.279" y="0" type="curve" smooth="yes"/>
      <point x="75.9111" y="0"/>
      <point x="46.8457" y="28.0029"/>
      <point x="46.3398" y="124.05" type="curve" smooth="yes"/>
      <point x="44.4033" y="491.186" type="line" smooth="yes"/>
      <point x="44.4033" y="551"/>
      <point x="85.2432" y="595"/>
      <point x="144.279" y="595" type="curve" smooth="yes"/>
      <point x="205.231" y="595"/>
      <point x="245.552" y="583.474"/>
      <point x="245.617" y="499" type="curve" smooth="yes"/>
    </contour>
    <contour>
      <point x="254.977" y="253.803" type="curve"/>
      <point x="163.919" y="254.391" type="line"/>
      <point x="162.977" y="368.588" type="line" smooth="yes"/>
      <point x="170.805" y="368.588"/>
      <point x="253.919" y="368"/>
      <point x="253.919" y="368" type="curve"/>
      <point x="407.096" y="368"/>
      <point x="546" y="315.979"/>
      <point x="546" y="180.694" type="curve" smooth="yes"/>
      <point x="546" y="91"/>
      <point x="476.4" y="0"/>
      <point x="323.977" y="0" type="curve"/>
      <point x="151.279" y="0" type="line"/>
      <point x="163.919" y="126.391" type="line" smooth="yes"/>
      <point x="172.025" y="126.391"/>
      <point x="255.919" y="125.803"/>
      <point x="255.919" y="125.803" type="curve"/>
      <point x="310.613" y="125.803"/>
      <point x="346.161" y="145.608"/>
      <point x="346.161" y="186" type="curve" smooth="yes"/>
      <point x="346.161" y="238.797"/>
      <point x="296.944" y="253.803"/>
    </contour>
    <contour>
      <point x="254.977" y="368" type="line"/>
      <point x="296.944" y="368"/>
      <point x="336.161" y="379.079"/>
      <point x="336.161" y="427.803" type="curve" smooth="yes"/>
      <point x="336.161" y="470.992"/>
      <point x="310.613" y="483"/>
      <point x="255.919" y="483" type="curve"/>
      <point x="255.919" y="483"/>
      <point x="160.164" y="482.412"/>
      <point x="150.977" y="482.412" type="curve" smooth="yes"/>
      <point x="151.279" y="595" type="line"/>
      <point x="287.977" y="594.588" type="line"/>
      <point x="426.4" y="595"/>
      <point x="526" y="521.044"/>
      <point x="526" y="416.108" type="curve" smooth="yes"/>
      <point x="526" y="283.977"/>
      <point x="407.096" y="253.803"/>
      <point x="253.919" y="253.803" type="curve"/>
      <point x="253.919" y="253.803"/>
      <point x="170.805" y="253.215"/>
      <point x="162.977" y="253.215" type="curve" smooth="yes"/>
      <point x="163.919" y="367.412" type="line"/>
    </contour>
  </outline>
</glyph>
<glyph name="C" format="1">
  <advance width="697"/>
  <unicode hex="0043"/>
  <outline>
    <contour>
      <point x="374.84" y="349.391" type="curve" smooth="yes"/>
      <point x="374.84" y="380.751"/>
      <point x="393.445" y="407.915"/>
      <point x="393.445" y="426.471" type="curve" smooth="yes"/>
      <point x="393.445" y="447.28"/>
      <point x="386.509" y="461.238"/>
      <point x="361.867" y="461.238" type="curve" smooth="yes"/>
      <point x="320.872" y="461.238"/>
      <point x="294.783" y="391.442"/>
      <point x="294.783" y="324.921" type="curve" smooth="yes"/>
      <point x="294.783" y="246.817"/>
      <point x="342.834" y="191.721"/>
      <point x="419.64" y="191.721" type="curve" smooth="yes"/>
      <point x="454.932" y="191.721"/>
      <point x="491.194" y="196.2"/>
      <point x="519.627" y="205.217" type="curve" smooth="yes"/>
      <point x="558.42" y="216.606"/>
      <point x="573.751" y="237.541"/>
      <point x="594.842" y="237.541" type="curve" smooth="yes"/>
      <point x="633.96" y="237.541"/>
      <point x="653" y="215.239"/>
      <point x="653" y="191.721" type="curve" smooth="yes"/>
      <point x="653" y="135.405"/>
      <point x="553.718" y="-5.93555"/>
      <point x="372.393" y="-5.93555" type="curve" smooth="yes"/>
      <point x="186.365" y="-5.93555"/>
      <point x="40.1211" y="102.907"/>
      <point x="40.1211" y="296.229" type="curve" smooth="yes"/>
      <point x="40.1211" y="486.36"/>
      <point x="174.896" y="601"/>
      <point x="360.393" y="601" type="curve" smooth="yes"/>
      <point x="561.982" y="601"/>
      <point x="639.657" y="528.761"/>
      <point x="639.657" y="427.4" type="curve" smooth="yes"/>
      <point x="639.657" y="368.182"/>
      <point x="599.593" y="266.629"/>
      <point x="462.04" y="266.629" type="curve" smooth="yes"/>
      <point x="414.398" y="266.629"/>
      <point x="374.84" y="273.942"/>
    </contour>
  </outline>
</glyph>
<glyph name="D" format="1">
  <advance width="699"/>
  <unicode hex="0044"/>
  <outline>
    <contour>
      <point x="291.849" y="139.954" type="line" smooth="yes"/>
      <point x="291.849" y="138.474"/>
      <point x="291.843" y="137.008"/>
      <point x="291.829" y="135.556" type="curve"/>
      <point x="300.382" y="135.505"/>
      <point x="305.796" y="135.473"/>
      <point x="305.796" y="135.473" type="curve" smooth="yes"/>
      <point x="365.08" y="135.473"/>
      <point x="411.596" y="188.301"/>
      <point x="411.596" y="349.6" type="curve" smooth="yes"/>
      <point x="411.596" y="497.457"/>
      <point x="361.898" y="544.67"/>
      <point x="305.796" y="544.67" type="curve" smooth="yes"/>
      <point x="291.55" y="544.933" type="line"/>
    </contour>
    <contour>
      <point x="184.189" y="684.165" type="curve"/>
      <point x="184.189" y="684.194"/>
      <point x="184.19" y="684.222"/>
      <point x="184.19" y="684.25" type="curve"/>
      <point x="193.513" y="684.25"/>
      <point x="321.896" y="684.25"/>
      <point x="321.896" y="684.25" type="curve" smooth="yes"/>
      <point x="518.522" y="684.25"/>
      <point x="652" y="558.85"/>
      <point x="652" y="346.15" type="curve" smooth="yes"/>
      <point x="652" y="181.606"/>
      <point x="581.662" y="0"/>
      <point x="377.096" y="0" type="curve" smooth="yes"/>
      <point x="304.726" y="0"/>
      <point x="296.692" y="0"/>
      <point x="184.19" y="0" type="curve"/>
      <point x="184.19" y="0.0561104"/>
      <point x="184.19" y="0.112221"/>
      <point x="184.19" y="0.168331" type="curve"/>
      <point x="181.189" y="0.0554825"/>
      <point x="178.123" y="2.44249e-15"/>
      <point x="174.99" y="0" type="curve" smooth="yes"/>
      <point x="96.3662" y="0"/>
      <point x="62.9414" y="32.2031"/>
      <point x="62.3594" y="142.657" type="curve" smooth="yes"/>
      <point x="60.1328" y="564.863" type="line" smooth="yes"/>
      <point x="59.6748" y="651.669"/>
      <point x="107.099" y="684.25"/>
      <point x="174.99" y="684.25" type="curve" smooth="yes"/>
      <point x="178.104" y="684.25"/>
      <point x="181.171" y="684.224"/>
    </contour>
  </outline>
</glyph>
<glyph name="E" format="1">
  <advance width="538"/>
  <unicode hex="0045"/>
  <outline>
    <contour>
      <point x="381.59" y="353" type="line" smooth="yes"/>
      <point x="444.726" y="353"/>
      <point x="465.144" y="333.79"/>
      <point x="465.144" y="287.724" type="curve" smooth="yes"/>
      <point x="465.144" y="247.713"/>
      <point x="435.957" y="233"/>
      <point x="373.447" y="233" type="curve" smooth="yes"/>
      <point x="178.973" y="233" type="line" smooth="yes"/>
      <point x="126.426" y="233"/>
      <point x="108.465" y="257.015"/>
      <point x="108.465" y="291.098" type="curve" smooth="yes"/>
      <point x="108.465" y="323.336"/>
      <point x="123.972" y="353"/>
      <point x="184.403" y="353" type="curve" smooth="yes"/>
    </contour>
    <contour>
      <point x="144.304" y="454.447" type="line"/>
      <point x="144.97" y="595" type="line"/>
      <point x="413.304" y="595" type="line" smooth="yes"/>
      <point x="474.978" y="595"/>
      <point x="513" y="580.266"/>
      <point x="513" y="523" type="curve" smooth="yes"/>
      <point x="513" y="471.127"/>
      <point x="484.581" y="454.786"/>
      <point x="421.447" y="454.724" type="curve" smooth="yes"/>
    </contour>
    <contour>
      <point x="144.304" y="140.276" type="line"/>
      <point x="421.447" y="140" type="line" smooth="yes"/>
      <point x="484.581" y="139.938"/>
      <point x="513" y="124.317"/>
      <point x="513" y="74.7236" type="curve" smooth="yes"/>
      <point x="513" y="15.0723"/>
      <point x="474.978" y="-0.276367"/>
      <point x="413.304" y="-0.276367" type="curve" smooth="yes"/>
      <point x="144.97" y="-0.276367" type="line"/>
    </contour>
    <contour>
      <point x="245.726" y="120.699" type="line" smooth="yes"/>
      <point x="245.792" y="31.2109"/>
      <point x="210.416" y="0"/>
      <point x="144.109" y="0" type="curve" smooth="yes"/>
      <point x="79.0635" y="0"/>
      <point x="46.6777" y="28.0029"/>
      <point x="46.1709" y="124.05" type="curve" smooth="yes"/>
      <point x="44.2344" y="491.186" type="line" smooth="yes"/>
      <point x="43.8369" y="566.669"/>
      <point x="87.8887" y="595.489"/>
      <point x="144.109" y="595.489" type="curve" smooth="yes"/>
      <point x="202.196" y="595.489"/>
      <point x="245.386" y="583.475"/>
      <point x="245.447" y="499" type="curve" smooth="yes"/>
    </contour>
  </outline>
</glyph>
<glyph name="F" format="1">
  <advance width="526"/>
  <unicode hex="0046"/>
  <outline>
    <contour>
      <point x="391.111" y="392.318" type="line" smooth="yes"/>
      <point x="444.639" y="392.318"/>
      <point x="487.197" y="357.736"/>
      <point x="487.197" y="317.251" type="qcurve" smooth="yes"/>
      <point x="487.197" y="283.331"/>
      <point x="436.688" y="254.318"/>
      <point x="381.747" y="254.318" type="qcurve" smooth="yes"/>
      <point x="158.102" y="254.318" type="line" smooth="yes"/>
      <point x="77.0176" y="254.318"/>
      <point x="77.0176" y="321.131" type="qcurve" smooth="yes"/>
      <point x="77.0176" y="392.318"/>
      <point x="164.347" y="392.318" type="qcurve" smooth="yes"/>
    </contour>
    <contour>
      <point x="117.082" y="508.983" type="line"/>
      <point x="117.848" y="670.618" type="line"/>
      <point x="426.432" y="670.618" type="line" smooth="yes"/>
      <point x="483.831" y="670.618"/>
      <point x="541.083" y="634.562"/>
      <point x="541.083" y="587.818" type="qcurve" smooth="yes"/>
      <point x="541.083" y="544.143"/>
      <point x="491.762" y="509.356"/>
      <point x="435.797" y="509.301" type="qcurve" smooth="yes"/>
    </contour>
    <contour>
      <point x="234.867" y="125.173" type="line" smooth="yes"/>
      <point x="234.923" y="50.292"/>
      <point x="177.276" y="-13.6318"/>
      <point x="118.009" y="-13.6318" type="qcurve" smooth="yes"/>
      <point x="59.4961" y="-13.6318"/>
      <point x="5.80176" y="49.0156"/>
      <point x="5.37891" y="129.025" type="qcurve" smooth="yes"/>
      <point x="3.15234" y="551.232" type="line" smooth="yes"/>
      <point x="2.82715" y="612.925"/>
      <point x="65.8115" y="671.182"/>
      <point x="118.009" y="671.182" type="qcurve" smooth="yes"/>
      <point x="175.925" y="671.182"/>
      <point x="234.498" y="627.207"/>
      <point x="234.547" y="560.219" type="qcurve" smooth="yes"/>
    </contour>
  </outline>
</glyph>
<glyph name="G" format="1">
  <advance width="782"/>
  <unicode hex="0047"/>
  <outline>
    <contour>
      <point x="452.03" y="516.656" type="curve" smooth="yes"/>
      <point x="452.03" y="535.057"/>
      <point x="442.955" y="547.98"/>
      <point x="410.716" y="547.98" type="curve" smooth="yes"/>
      <point x="363.765" y="547.98"/>
      <point x="308.57" y="505.033"/>
      <point x="308.57" y="344.156" type="curve" smooth="yes"/>
      <point x="308.57" y="195.807"/>
      <point x="371.881" y="148.822"/>
      <point x="425.12" y="148.822" type="curve" smooth="yes"/>
      <point x="454.967" y="148.822"/>
      <point x="481.181" y="167.369"/>
      <point x="481.181" y="201.957" type="curve"/>
      <point x="431.708" y="201.957"/>
      <point x="405.57" y="231.461"/>
      <point x="405.57" y="262.507" type="curve" smooth="yes"/>
      <point x="405.57" y="308.507"/>
      <point x="426.156" y="334.957"/>
      <point x="489.52" y="334.957" type="curve" smooth="yes"/>
      <point x="610.711" y="334.957" type="line" smooth="yes"/>
      <point x="680.74" y="334.957"/>
      <point x="733" y="311.152"/>
      <point x="733" y="221.906" type="curve" smooth="yes"/>
      <point x="733" y="100.439"/>
      <point x="598" y="-6.51953"/>
      <point x="436" y="-6.51953" type="curve" smooth="yes"/>
      <point x="215.376" y="-6.51953"/>
      <point x="51.0576" y="118.65"/>
      <point x="51.0576" y="340.971" type="curve" smooth="yes"/>
      <point x="51.0576" y="559.621"/>
      <point x="195.95" y="691.457"/>
      <point x="409.02" y="691.457" type="curve" smooth="yes"/>
      <point x="627.325" y="691.457"/>
      <point x="706.024" y="606.356"/>
      <point x="706.024" y="517.807" type="curve" smooth="yes"/>
      <point x="706.024" y="474.007"/>
      <point x="681.849" y="407.406"/>
      <point x="554.32" y="407.406" type="curve" smooth="yes"/>
      <point x="465.77" y="407.406"/>
      <point x="452.03" y="422.429"/>
    </contour>
  </outline>
</glyph>
<glyph name="H" format="1">
  <advance width="671"/>
  <unicode hex="0048"/>
  <outline>
    <contour>
      <point x="434" y="354" type="line" smooth="yes"/>
      <point x="497.136" y="354"/>
      <point x="517.554" y="333.318"/>
      <point x="517.554" y="283.724" type="curve" smooth="yes"/>
      <point x="517.554" y="240.058"/>
      <point x="488.367" y="224"/>
      <point x="425.857" y="224" type="curve" smooth="yes"/>
      <point x="231.383" y="224" type="line" smooth="yes"/>
      <point x="178.836" y="224"/>
      <point x="160.875" y="250.081"/>
      <point x="160.875" y="287.098" type="curve" smooth="yes"/>
      <point x="160.875" y="321.939"/>
      <point x="176.382" y="354"/>
      <point x="236.813" y="354" type="curve" smooth="yes"/>
    </contour>
    <contour>
      <point x="261" y="130.699" type="line" smooth="yes"/>
      <point x="261" y="33.7969"/>
      <point x="223.952" y="0"/>
      <point x="154.384" y="0" type="curve" smooth="yes"/>
      <point x="86.0156" y="0"/>
      <point x="51.4443" y="28"/>
      <point x="51.4443" y="124.05" type="curve" smooth="yes"/>
      <point x="49.5078" y="491.186" type="line" smooth="yes"/>
      <point x="49.5078" y="566.671"/>
      <point x="95.3477" y="595.489"/>
      <point x="154.384" y="595.489" type="curve" smooth="yes"/>
      <point x="215.336" y="595.489"/>
      <point x="260.722" y="583.474"/>
      <point x="260.722" y="499" type="curve" smooth="yes"/>
    </contour>
    <contour>
      <point x="621" y="130.699" type="line" smooth="yes"/>
      <point x="621" y="33.7969"/>
      <point x="583.952" y="0"/>
      <point x="514.384" y="0" type="curve" smooth="yes"/>
      <point x="446.016" y="0"/>
      <point x="411.444" y="28"/>
      <point x="411.444" y="124.05" type="curve" smooth="yes"/>
      <point x="409.508" y="491.186" type="line" smooth="yes"/>
      <point x="409.508" y="566.671"/>
      <point x="455.348" y="595.489"/>
      <point x="514.384" y="595.489" type="curve" smooth="yes"/>
      <point x="575.336" y="595.489"/>
      <point x="620.722" y="583.474"/>
      <point x="620.722" y="499" type="curve" smooth="yes"/>
    </contour>
  </outline>
</glyph>
<glyph name="I" format="1">
  <advance width="360"/>
  <unicode hex="0049"/>
  <outline>
    <contour>
      <point x="295" y="150.058" type="line" smooth="yes"/>
      <point x="295" y="44"/>
      <point x="254.505" y="-0.24707"/>
      <point x="178.253" y="-0.24707" type="curve" smooth="yes"/>
      <point x="103.448" y="-0.24707"/>
      <point x="65.583" y="31.9561"/>
      <point x="65" y="142.41" type="curve" smooth="yes"/>
      <point x="65" y="564.617" type="line" smooth="yes"/>
      <point x="65" y="654"/>
      <point x="113.599" y="684.566"/>
      <point x="178.253" y="684.566" type="curve" smooth="yes"/>
      <point x="245.052" y="684.566"/>
      <point x="294.927" y="670.748"/>
      <point x="295" y="573.604" type="curve" smooth="yes"/>
    </contour>
  </outline>
</glyph>
<glyph name="J" format="1">
  <advance width="529"/>
  <unicode hex="004A"/>
  <outline>
    <contour>
      <point x="218.915" y="202.032" type="curve" smooth="yes"/>
      <point x="216.728" y="191.003"/>
      <point x="215.636" y="180.979"/>
      <point x="215.636" y="172" type="curve" smooth="yes"/>
      <point x="215.636" y="136.18"/>
      <point x="235.393" y="117"/>
      <point x="252.915" y="117" type="curve" smooth="yes"/>
      <point x="270.915" y="117"/>
      <point x="279.915" y="122"/>
      <point x="279.915" y="154" type="curve" smooth="yes"/>
      <point x="279.915" y="179"/>
      <point x="279.915" y="225" type="line"/>
      <point x="488.915" y="225" type="line"/>
      <point x="489.661" y="148" type="line" smooth="yes"/>
      <point x="489.661" y="45.2861"/>
      <point x="412.085" y="-5.94336"/>
      <point x="277" y="-5.94434" type="curve" smooth="yes"/>
      <point x="80.3261" y="-5.94434"/>
      <point x="23.5186" y="110.521"/>
      <point x="23.5186" y="189" type="curve" smooth="yes"/>
      <point x="23.5186" y="257.032"/>
      <point x="41.5981" y="279.398"/>
      <point x="120" y="279.398" type="curve" smooth="yes"/>
      <point x="185.588" y="279.398"/>
      <point x="220.462" y="255.672"/>
      <point x="220.462" y="218" type="curve" smooth="yes"/>
      <point x="220.462" y="212.923"/>
      <point x="220.018" y="207.592"/>
    </contour>
    <contour>
      <point x="280.105" y="148" type="line" smooth="yes"/>
      <point x="278.169" y="491.186" type="line" smooth="yes"/>
      <point x="277.804" y="555.998"/>
      <point x="315" y="595"/>
      <point x="383.045" y="595.489" type="curve" smooth="yes"/>
      <point x="443.995" y="595.928"/>
      <point x="489.314" y="583.474"/>
      <point x="489.383" y="499" type="curve" smooth="yes"/>
      <point x="489.661" y="148" type="line" smooth="yes"/>
    </contour>
  </outline>
</glyph>
<glyph name="K" format="1">
  <advance width="573"/>
  <unicode hex="004B"/>
  <outline>
    <contour>
      <point x="421" y="275" type="curve"/>
      <point x="474" y="269"/>
      <point x="539" y="222"/>
      <point x="539" y="140" type="curve" smooth="yes"/>
      <point x="539" y="24"/>
      <point x="518.981" y="0"/>
      <point x="437" y="0" type="curve" smooth="yes"/>
      <point x="368.881" y="0"/>
      <point x="338" y="28"/>
      <point x="338" y="86" type="curve" smooth="yes"/>
      <point x="338" y="197"/>
      <point x="317.272" y="206"/>
      <point x="278" y="206" type="curve"/>
      <point x="249" y="206" type="line"/>
      <point x="249" y="130" type="line" smooth="yes"/>
      <point x="249" y="34"/>
      <point x="209.847" y="0"/>
      <point x="143" y="0" type="curve" smooth="yes"/>
      <point x="78.3008" y="0"/>
      <point x="45" y="31"/>
      <point x="45" y="124" type="curve"/>
      <point x="45" y="124"/>
      <point x="44" y="340"/>
      <point x="44" y="486" type="curve" smooth="yes"/>
      <point x="44" y="558"/>
      <point x="68.6025" y="595.489"/>
      <point x="132" y="595.489" type="curve" smooth="yes"/>
      <point x="194.246" y="595.489"/>
      <point x="245" y="585"/>
      <point x="245" y="501" type="curve" smooth="yes"/>
      <point x="245" y="451"/>
      <point x="244" y="425"/>
      <point x="244" y="393" type="curve"/>
      <point x="244" y="372"/>
      <point x="255.413" y="357"/>
      <point x="279" y="357" type="curve" smooth="yes"/>
      <point x="321.632" y="357"/>
      <point x="333" y="385"/>
      <point x="333" y="507" type="curve" smooth="yes"/>
      <point x="333" y="566"/>
      <point x="362.143" y="595.489"/>
      <point x="435" y="595.489" type="curve" smooth="yes"/>
      <point x="515.913" y="595.489"/>
      <point x="534" y="567"/>
      <point x="534" y="492" type="curve" smooth="yes"/>
      <point x="534" y="347"/>
      <point x="475" y="282"/>
    </contour>
  </outline>
</glyph>
<glyph name="L" format="1">
  <advance width="535"/>
  <unicode hex="004C"/>
  <outline>
    <contour>
      <point x="147.996" y="170.553" type="line"/>
      <point x="400.14" y="170.276" type="line" smooth="yes"/>
      <point x="463.273" y="170.207"/>
      <point x="491.692" y="149.789"/>
      <point x="491.692" y="85" type="curve" smooth="yes"/>
      <point x="491.692" y="17.3955"/>
      <point x="453.67" y="-7.55287e-15"/>
      <point x="391.996" y="0" type="curve" smooth="yes"/>
      <point x="148.662" y="0" type="line"/>
    </contour>
    <contour>
      <point x="264.278" y="130.699" type="line" smooth="yes"/>
      <point x="264.352" y="33.797"/>
      <point x="227.231" y="0"/>
      <point x="157.662" y="0" type="curve" smooth="yes"/>
      <point x="89.2943" y="0"/>
      <point x="55.2303" y="28.0026"/>
      <point x="54.7236" y="124.05" type="curve" smooth="yes"/>
      <point x="52.7871" y="491.186" type="line" smooth="yes"/>
      <point x="52.389" y="566.669"/>
      <point x="98.6263" y="595.489"/>
      <point x="157.662" y="595.489" type="curve" smooth="yes"/>
      <point x="218.614" y="595.489"/>
      <point x="263.936" y="583.474"/>
      <point x="264" y="499" type="curve" smooth="yes"/>
    </contour>
  </outline>
</glyph>
<glyph name="M" format="1">
  <advance width="949"/>
  <unicode hex="004D"/>
  <outline>
    <contour>
      <point x="657" y="366.017" type="line"/>
      <point x="532.419" y="110" type="line" smooth="yes"/>
      <point x="510.384" y="66.5088"/>
      <point x="488.419" y="50.916"/>
      <point x="455.419" y="50.916" type="curve" smooth="yes"/>
      <point x="408.419" y="50.916"/>
      <point x="385.419" y="85"/>
      <point x="344.419" y="155" type="curve" smooth="yes"/>
      <point x="227.618" y="366.017" type="line"/>
      <point x="227.717" y="83.1162" type="line" smooth="yes"/>
      <point x="227.717" y="23.8555"/>
      <point x="200.697" y="0.316406"/>
      <point x="149.958" y="0.316406" type="curve" smooth="yes"/>
      <point x="95.0117" y="0.316406"/>
      <point x="66.4062" y="16.1875"/>
      <point x="66" y="95.7666" type="curve" smooth="yes"/>
      <point x="66" y="531.616" type="line" smooth="yes"/>
      <point x="66" y="630.884"/>
      <point x="104.158" y="686.633"/>
      <point x="218.506" y="686.633" type="curve" smooth="yes"/>
      <point x="285.392" y="686.633"/>
      <point x="311.766" y="653.463"/>
      <point x="329.519" y="619.017" type="curve" smooth="yes"/>
      <point x="463.969" y="326" type="line"/>
      <point x="605.868" y="614.416" type="line" smooth="yes"/>
      <point x="631.865" y="664.018"/>
      <point x="674.807" y="685.633"/>
      <point x="738.506" y="685.633" type="curve" smooth="yes"/>
      <point x="827.265" y="685.633"/>
      <point x="885" y="640.676"/>
      <point x="885" y="533.916" type="curve" smooth="yes"/>
      <point x="885" y="99.2168" type="line" smooth="yes"/>
      <point x="884.575" y="19.6377"/>
      <point x="821.535" y="0.316406"/>
      <point x="759.519" y="0.316406" type="curve" smooth="yes"/>
      <point x="707.074" y="0.316406"/>
      <point x="658.262" y="24.4768"/>
      <point x="657" y="103.816" type="curve" smooth="yes"/>
    </contour>
  </outline>
</glyph>
<glyph name="N" format="1">
  <advance width="591"/>
  <unicode hex="004E"/>
  <outline>
    <contour>
      <point x="549" y="83" type="line" smooth="yes"/>
      <point x="549.042" y="16.6475"/>
      <point x="512.92" y="0"/>
      <point x="460.995" y="0" type="curve" smooth="yes"/>
      <point x="413.316" y="0"/>
      <point x="386.995" y="42.4492"/>
      <point x="317.444" y="112" type="curve" smooth="yes"/>
      <point x="235.223" y="194.222"/>
      <point x="182.444" y="262.489"/>
      <point x="182.444" y="262.489" type="curve"/>
      <point x="182.529" y="74" type="line" smooth="yes"/>
      <point x="182.529" y="26"/>
      <point x="159.381" y="0"/>
      <point x="115.913" y="0" type="curve" smooth="yes"/>
      <point x="66.8047" y="0"/>
      <point x="42.2314" y="20.001"/>
      <point x="41.9736" y="76" type="curve" smooth="yes"/>
      <point x="40.0371" y="496.186" type="line" smooth="yes"/>
      <point x="39.7334" y="561.999"/>
      <point x="77.9844" y="595.489"/>
      <point x="138.444" y="595.489" type="curve" smooth="yes"/>
      <point x="182.861" y="595.489"/>
      <point x="208.185" y="588.166"/>
      <point x="236.444" y="550" type="curve" smooth="yes"/>
      <point x="343.33" y="429.871"/>
      <point x="410.146" y="328.833"/>
      <point x="409.248" y="330.773" type="curve"/>
      <point x="408.508" y="513.186" type="line" smooth="yes"/>
      <point x="408.269" y="571.999"/>
      <point x="436.643" y="595"/>
      <point x="478.444" y="595" type="curve" smooth="yes"/>
      <point x="527.644" y="595"/>
      <point x="548.688" y="573.969"/>
      <point x="548.722" y="521" type="curve" smooth="yes"/>
    </contour>
  </outline>
</glyph>
<glyph name="O" format="1">
  <advance width="764"/>
  <unicode hex="004F"/>
  <outline>
    <contour>
      <point x="460.945" y="337.683" type="curve" smooth="yes"/>
      <point x="460.945" y="435.68"/>
      <point x="435.655" y="543.619"/>
      <point x="383.729" y="543.619" type="curve" smooth="yes"/>
      <point x="323.562" y="543.619"/>
      <point x="293.204" y="434.335"/>
      <point x="293.204" y="337.683" type="curve" smooth="yes"/>
      <point x="293.204" y="241.946"/>
      <point x="322.156" y="140.15"/>
      <point x="383.729" y="140.15" type="curve" smooth="yes"/>
      <point x="438.6" y="140.15"/>
      <point x="460.945" y="240.612"/>
    </contour>
    <contour>
      <point x="383.729" y="-6.04102" type="curve" smooth="yes"/>
      <point x="188.848" y="-6.04102"/>
      <point x="31.2588" y="118.418"/>
      <point x="31.2588" y="337.683" type="curve" smooth="yes"/>
      <point x="31.2588" y="558.45"/>
      <point x="181.942" y="690.566"/>
      <point x="383.729" y="690.566" type="curve" smooth="yes"/>
      <point x="585.38" y="690.566"/>
      <point x="732.749" y="558.45"/>
      <point x="732.749" y="337.683" type="curve" smooth="yes"/>
      <point x="732.749" y="118.418"/>
      <point x="578.48" y="-6.04102"/>
    </contour>
  </outline>
</glyph>
<glyph name="P" format="1">
  <advance width="609"/>
  <unicode hex="0050"/>
  <outline>
    <contour>
      <point x="260.919" y="130.699" type="line" smooth="yes"/>
      <point x="260.919" y="33.7969"/>
      <point x="223.871" y="0"/>
      <point x="154.303" y="0" type="curve" smooth="yes"/>
      <point x="85.9346" y="0"/>
      <point x="51.3633" y="28"/>
      <point x="51.3633" y="124.05" type="curve" smooth="yes"/>
      <point x="49.4268" y="491.186" type="line" smooth="yes"/>
      <point x="49.4268" y="566.671"/>
      <point x="95.2666" y="595.489"/>
      <point x="154.303" y="595.489" type="curve" smooth="yes"/>
      <point x="215.255" y="595.489"/>
      <point x="260.641" y="583.474"/>
      <point x="260.641" y="499" type="curve" smooth="yes"/>
    </contour>
    <contour>
      <point x="251.977" y="293.197" type="line"/>
      <point x="293.944" y="293.197"/>
      <point x="333.161" y="322.076"/>
      <point x="333.161" y="390" type="curve" smooth="yes"/>
      <point x="333.161" y="466"/>
      <point x="307.613" y="484.197"/>
      <point x="252.919" y="484.197" type="curve"/>
      <point x="252.919" y="484.197"/>
      <point x="164.025" y="483.609"/>
      <point x="155.919" y="483.609" type="curve" smooth="yes"/>
      <point x="155.919" y="595.197" type="line"/>
      <point x="284.977" y="595.785" type="line"/>
      <point x="436.203" y="595.785"/>
      <point x="547" y="513.545"/>
      <point x="547" y="377.306" type="curve" smooth="yes"/>
      <point x="547" y="250.146"/>
      <point x="429.816" y="179.197"/>
      <point x="285.919" y="179.197" type="curve"/>
      <point x="285.919" y="179.197"/>
      <point x="166.525" y="178.609"/>
      <point x="155.919" y="178.609" type="curve" smooth="yes"/>
      <point x="155.919" y="292.609" type="line"/>
    </contour>
  </outline>
</glyph>
<glyph name="Q" format="1">
  <advance width="688"/>
  <unicode hex="0051"/>
  <outline>
    <contour>
      <point x="412.945" y="340.341" type="qcurve" smooth="yes"/>
      <point x="412.945" y="421.464"/>
      <point x="377.462" y="546.277"/>
      <point x="345.729" y="546.277" type="qcurve" smooth="yes"/>
      <point x="312.822" y="546.277"/>
      <point x="275.204" y="420.36"/>
      <point x="275.204" y="340.341" type="qcurve" smooth="yes"/>
      <point x="275.204" y="261.223"/>
      <point x="312.026" y="142.809"/>
      <point x="345.729" y="142.809" type="qcurve" smooth="yes"/>
      <point x="379.11" y="142.809"/>
      <point x="412.945" y="259.144"/>
    </contour>
    <contour>
      <point x="345.729" y="-3.38281" type="qcurve" smooth="yes"/>
      <point x="247.141" y="-3.38281"/>
      <point x="88.8672" y="75.5371"/>
      <point x="-6.74121" y="233.871"/>
      <point x="-6.74121" y="340.341" type="qcurve" smooth="yes"/>
      <point x="-6.74121" y="502.634"/>
      <point x="190.983" y="693.225"/>
      <point x="345.729" y="693.225" type="qcurve" smooth="yes"/>
      <point x="500.004" y="693.225"/>
      <point x="694.749" y="502.948"/>
      <point x="694.749" y="340.341" type="qcurve" smooth="yes"/>
      <point x="694.749" y="180.655"/>
      <point x="496.911" y="-3.38281"/>
    </contour>
    <contour>
      <point x="611.958" y="-43.7588" type="qcurve" smooth="yes"/>
      <point x="651.206" y="-45.751"/>
      <point x="688.598" y="-90.4365"/>
      <point x="688.598" y="-141.509" type="qcurve" smooth="yes"/>
      <point x="688.598" y="-202.008"/>
      <point x="624.302" y="-247.309"/>
      <point x="567.108" y="-247.309" type="qcurve" smooth="yes"/>
      <point x="511.505" y="-247.309"/>
      <point x="428.381" y="-226.569"/>
      <point x="367.663" y="-181.73"/>
      <point x="327.198" y="-132.943"/>
      <point x="303.759" y="-94.3584" type="qcurve" smooth="yes"/>
      <point x="284.342" y="-62.3965"/>
      <point x="265.707" y="-0.100586"/>
      <point x="263.509" y="33.7432"/>
      <point x="263.509" y="68.9414" type="qcurve"/>
      <point x="422.208" y="68.9414" type="line"/>
      <point x="422.208" y="45.9932"/>
      <point x="439.31" y="9.65039"/>
      <point x="471.305" y="-13.5986"/>
      <point x="506.595" y="-29.7686"/>
      <point x="553.827" y="-38.6133"/>
      <point x="589.825" y="-42.6357"/>
    </contour>
  </outline>
</glyph>
<glyph name="R" format="1">
  <advance width="653"/>
  <unicode hex="0052"/>
  <outline>
    <contour>
      <point x="269.132" y="150.304" type="line" smooth="yes"/>
      <point x="269.216" y="38.8662"/>
      <point x="228.525" y="0"/>
      <point x="152.273" y="0" type="curve" smooth="yes"/>
      <point x="77.4697" y="0"/>
      <point x="40.2246" y="32.2031"/>
      <point x="39.6426" y="142.657" type="curve" smooth="yes"/>
      <point x="37.416" y="564.863" type="line" smooth="yes"/>
      <point x="36.958" y="651.67"/>
      <point x="87.6182" y="684.25"/>
      <point x="152.273" y="684.25" type="curve" smooth="yes"/>
      <point x="219.072" y="684.25"/>
      <point x="268.738" y="670.995"/>
      <point x="268.812" y="573.85" type="curve" smooth="yes"/>
    </contour>
    <contour>
      <point x="293.375" y="411.7" type="line"/>
      <point x="344.611" y="411.7"/>
      <point x="392.487" y="425.507"/>
      <point x="392.487" y="486.223" type="curve" smooth="yes"/>
      <point x="392.487" y="540.39"/>
      <point x="361.277" y="555.45"/>
      <point x="294.459" y="555.45" type="curve"/>
      <point x="294.459" y="555.45"/>
      <point x="178.592" y="554.773"/>
      <point x="168.025" y="554.773" type="curve" smooth="yes"/>
      <point x="168.373" y="684.25" type="line"/>
      <point x="337.075" y="683.776" type="line"/>
      <point x="502.015" y="683.776"/>
      <point x="611.952" y="599.2"/>
      <point x="611.952" y="478.524" type="curve" smooth="yes"/>
      <point x="611.952" y="342.7"/>
      <point x="530.556" y="297.623"/>
      <point x="314.075" y="297.623" type="curve"/>
      <point x="314.075" y="297.623"/>
      <point x="212.744" y="296.947"/>
      <point x="203.741" y="296.947" type="curve" smooth="yes"/>
      <point x="204.825" y="411.023" type="line"/>
    </contour>
    <contour>
      <point x="324.425" y="247.837" type="curve"/>
      <point x="231.275" y="247.25" type="line"/>
      <point x="230.125" y="315.804" type="line" smooth="yes"/>
      <point x="487.43" y="315.804" type="line"/>
      <point x="547.375" y="315.804"/>
      <point x="622.134" y="255.111"/>
      <point x="622.134" y="161" type="curve" smooth="yes"/>
      <point x="622.134" y="26.4502"/>
      <point x="587.576" y="0"/>
      <point x="508.647" y="0" type="curve" smooth="yes"/>
      <point x="429.118" y="0"/>
      <point x="395.522" y="32.8857"/>
      <point x="395.522" y="99.3838" type="curve" smooth="yes"/>
      <point x="395.522" y="227.108"/>
      <point x="369.469" y="247.837"/>
    </contour>
  </outline>
</glyph>
<glyph name="S" format="1">
  <advance width="648"/>
  <unicode hex="0053"/>
  <outline>
    <contour>
      <point x="321" y="595" type="curve" smooth="yes"/>
      <point x="149.458" y="595"/>
      <point x="30.707" y="510.707"/>
      <point x="30.707" y="396.96" type="curve" smooth="yes"/>
      <point x="30.707" y="331.1"/>
      <point x="50.7236" y="278.978"/>
      <point x="125.907" y="242.4" type="curve" smooth="yes"/>
      <point x="209.907" y="197.46"/>
      <point x="345.765" y="199.914"/>
      <point x="345.765" y="166.24" type="curve" smooth="yes"/>
      <point x="345.765" y="148.88"/>
      <point x="328.73" y="139.616"/>
      <point x="279.478" y="139.616" type="curve" smooth="yes"/>
      <point x="235.971" y="139.616"/>
      <point x="201.499" y="144.097"/>
      <point x="166.448" y="153.112" type="curve" smooth="yes"/>
      <point x="127.659" y="164.503"/>
      <point x="101.416" y="185.437"/>
      <point x="80.3252" y="185.437" type="curve" smooth="yes"/>
      <point x="45.3252" y="185.437"/>
      <point x="30.2773" y="163.135"/>
      <point x="30.2773" y="139.616" type="curve" smooth="yes"/>
      <point x="30.2773" y="81.9629"/>
      <point x="135.142" y="-5.67969"/>
      <point x="302.083" y="-5.67969" type="curve" smooth="yes"/>
      <point x="525.814" y="-5.67969"/>
      <point x="617.026" y="99.8584"/>
      <point x="617.026" y="183.46" type="curve" smooth="yes"/>
      <point x="617.026" y="273.48"/>
      <point x="583.707" y="327.66"/>
      <point x="457.987" y="379.32" type="curve" smooth="yes"/>
      <point x="386.569" y="408.667"/>
      <point x="291.071" y="411.8"/>
      <point x="291.071" y="450.251" type="curve" smooth="yes"/>
      <point x="291.071" y="467.8"/>
      <point x="322.092" y="481.992"/>
      <point x="373.941" y="481.992" type="curve" smooth="yes"/>
      <point x="401.336" y="481.992"/>
      <point x="438.026" y="474.481"/>
      <point x="466.893" y="460.654" type="curve" smooth="yes"/>
      <point x="495.845" y="446.786"/>
      <point x="534.29" y="412.283"/>
      <point x="555.38" y="412.283" type="curve" smooth="yes"/>
      <point x="577.221" y="412.283"/>
      <point x="594.021" y="429.24"/>
      <point x="594.021" y="458.104" type="curve" smooth="yes"/>
      <point x="594.021" y="512.424"/>
      <point x="489.738" y="595"/>
    </contour>
  </outline>
</glyph>
<glyph name="T" format="1">
  <advance width="698"/>
  <unicode hex="0054"/>
  <outline>
    <contour>
      <point x="467.631" y="150.305" type="line" smooth="yes"/>
      <point x="467.715" y="38.8672"/>
      <point x="427.023" y="0"/>
      <point x="350.772" y="0" type="curve" smooth="yes"/>
      <point x="275.967" y="0"/>
      <point x="238.724" y="32.2041"/>
      <point x="238.142" y="142.657" type="curve" smooth="yes"/>
      <point x="235.915" y="564.864" type="line" smooth="yes"/>
      <point x="235.462" y="650.838"/>
      <point x="286.117" y="683.663"/>
      <point x="350.772" y="683.663" type="curve" smooth="yes"/>
      <point x="417.571" y="683.663"/>
      <point x="467.238" y="669.989"/>
      <point x="467.311" y="573.851" type="curve" smooth="yes"/>
    </contour>
    <contour>
      <point x="333.115" y="511.883" type="line"/>
      <point x="151.031" y="512.313" type="line" smooth="yes"/>
      <point x="73.0859" y="512.498"/>
      <point x="24.8809" y="530.452"/>
      <point x="24.8809" y="602.733" type="curve" smooth="yes"/>
      <point x="24.8809" y="665.027"/>
      <point x="59.8223" y="684.813"/>
      <point x="141.666" y="684.813" type="curve" smooth="yes"/>
      <point x="287.744" y="684.813"/>
      <point x="426.947" y="684.813"/>
      <point x="570.142" y="684.813" type="curve" smooth="yes"/>
      <point x="642.872" y="684.813"/>
      <point x="675.427" y="663.574"/>
      <point x="675.427" y="595.833" type="curve" smooth="yes"/>
      <point x="675.427" y="529.063"/>
      <point x="632.016" y="512.448"/>
      <point x="560.776" y="512.313" type="curve" smooth="yes"/>
    </contour>
  </outline>
</glyph>
<glyph name="U" format="1">
  <advance width="687"/>
  <unicode hex="0055"/>
  <outline>
    <contour>
      <point x="643.857" y="564.617" type="curve" smooth="yes"/>
      <point x="644" y="267" type="line" smooth="yes"/>
      <point x="644" y="74"/>
      <point x="562.986" y="-5.68359"/>
      <point x="346" y="-5.68359" type="curve" smooth="yes"/>
      <point x="137.394" y="-5.68359"/>
      <point x="48" y="86.9052"/>
      <point x="48" y="267" type="curve" smooth="yes"/>
      <point x="48" y="565.492" type="line" smooth="yes"/>
      <point x="48" y="636"/>
      <point x="95.6387" y="684.566"/>
      <point x="158.666" y="684.566" type="curve" smooth="yes"/>
      <point x="226.891" y="684.566"/>
      <point x="278.589" y="670.767"/>
      <point x="278.589" y="573.604" type="curve" smooth="yes"/>
      <point x="278.589" y="247.566" type="line" smooth="yes"/>
      <point x="280.421" y="182.53"/>
      <point x="304.249" y="162.916"/>
      <point x="346" y="162.916" type="curve" smooth="yes"/>
      <point x="406.395" y="162.916"/>
      <point x="412.913" y="201.069"/>
      <point x="412.913" y="247.566" type="curve" smooth="yes"/>
      <point x="412.913" y="574.633" type="line" smooth="yes"/>
      <point x="412.913" y="670.422"/>
      <point x="465.314" y="684.566"/>
      <point x="527.923" y="684.566" type="curve" smooth="yes"/>
      <point x="603.021" y="684.566"/>
      <point x="643.815" y="652.358"/>
    </contour>
  </outline>
</glyph>
<glyph name="V" format="1">
  <advance width="628"/>
  <unicode hex="0056"/>
  <outline>
    <contour>
      <point x="316.959" y="145.673" type="curve" smooth="yes"/>
      <point x="368.649" y="145.673"/>
      <point x="371.632" y="197.11"/>
      <point x="371.632" y="303.081" type="curve" smooth="yes"/>
      <point x="371.632" y="349.485"/>
      <point x="372.838" y="435.961"/>
      <point x="372.838" y="506.027" type="curve" smooth="yes"/>
      <point x="372.838" y="565.561"/>
      <point x="399.637" y="595"/>
      <point x="481.36" y="595" type="curve" smooth="yes"/>
      <point x="566.923" y="595"/>
      <point x="587" y="549.028"/>
      <point x="587" y="322.531" type="curve" smooth="yes"/>
      <point x="587" y="76.0605"/>
      <point x="431.754" y="-4.46875"/>
      <point x="318.596" y="-4.46875" type="curve" smooth="yes"/>
      <point x="204.649" y="-4.46875"/>
      <point x="45.3516" y="76.0605"/>
      <point x="45.3516" y="322.531" type="curve" smooth="yes"/>
      <point x="45.3516" y="549.028"/>
      <point x="66.1777" y="595"/>
      <point x="150.991" y="595" type="curve" smooth="yes"/>
      <point x="232.716" y="595"/>
      <point x="259.514" y="565.561"/>
      <point x="259.514" y="506.027" type="curve" smooth="yes"/>
      <point x="259.514" y="435.904"/>
      <point x="260.72" y="349.36"/>
      <point x="260.72" y="304.001" type="curve" smooth="yes"/>
      <point x="260.72" y="201.511"/>
      <point x="260.725" y="145.673"/>
    </contour>
  </outline>
</glyph>
<glyph name="W" format="1">
  <advance width="837"/>
  <unicode hex="0057"/>
  <outline>
    <contour>
      <point x="549.77" y="135.673" type="curve" smooth="yes"/>
      <point x="599.568" y="135.673"/>
      <point x="602.442" y="187.11"/>
      <point x="602.442" y="293.081" type="curve" smooth="yes"/>
      <point x="602.442" y="341.771"/>
      <point x="603.648" y="432.509"/>
      <point x="603.648" y="506.027" type="curve" smooth="yes"/>
      <point x="603.648" y="565.561"/>
      <point x="626.743" y="595"/>
      <point x="697.171" y="595" type="curve" smooth="yes"/>
      <point x="775.804" y="595"/>
      <point x="801.811" y="549.028"/>
      <point x="801.811" y="322.531" type="curve" smooth="yes"/>
      <point x="801.811" y="76.0605"/>
      <point x="663.119" y="-4.46875"/>
      <point x="561.406" y="-4.46875" type="curve" smooth="yes"/>
      <point x="516.778" y="-4.46875"/>
      <point x="464.937" y="9.99414"/>
      <point x="420.012" y="45.4219" type="curve"/>
      <point x="375.297" y="8.87988"/>
      <point x="323.253" y="-6"/>
      <point x="278.244" y="-6" type="curve" smooth="yes"/>
      <point x="174.84" y="-6"/>
      <point x="32" y="74.5293"/>
      <point x="32" y="321" type="curve" smooth="yes"/>
      <point x="32" y="547.497"/>
      <point x="57.8154" y="593.469"/>
      <point x="135.64" y="593.469" type="curve" smooth="yes"/>
      <point x="206.068" y="593.469"/>
      <point x="229.162" y="564.029"/>
      <point x="229.162" y="504.496" type="curve" smooth="yes"/>
      <point x="229.162" y="430.902"/>
      <point x="230.368" y="340.074"/>
      <point x="230.368" y="292.47" type="curve" smooth="yes"/>
      <point x="230.368" y="189.979"/>
      <point x="230.373" y="134.142"/>
      <point x="286.607" y="134.142" type="curve" smooth="yes"/>
      <point x="313.961" y="134.142"/>
      <point x="324.407" y="156.272"/>
      <point x="328.358" y="201.407" type="curve"/>
      <point x="319.901" y="233.986"/>
      <point x="315.162" y="317.891"/>
      <point x="315.162" y="359.531" type="curve" smooth="yes"/>
      <point x="315.162" y="565.758"/>
      <point x="330.286" y="595"/>
      <point x="414.648" y="595" type="curve" smooth="yes"/>
      <point x="518.82" y="595"/>
      <point x="520.648" y="546.396"/>
      <point x="520.648" y="358" type="curve" smooth="yes"/>
      <point x="520.648" y="314.89"/>
      <point x="515.664" y="229.855"/>
      <point x="506.8" y="196.441" type="curve"/>
      <point x="510.993" y="156.633"/>
      <point x="521.819" y="135.673"/>
    </contour>
  </outline>
</glyph>
<glyph name="X" format="1">
  <advance width="646"/>
  <unicode hex="0058"/>
  <outline>
    <contour>
      <point x="161.03" y="326.806" type="line"/>
      <point x="34.5303" y="459.816" type="line" smooth="yes"/>
      <point x="-7.03809" y="498.15"/>
      <point x="-7.03809" y="543.125" type="qcurve" smooth="yes"/>
      <point x="-7.03809" y="589.917"/>
      <point x="34.9961" y="629.917" type="qcurve" smooth="yes"/>
      <point x="81.1816" y="671.186"/>
      <point x="117.33" y="671.186" type="qcurve" smooth="yes"/>
      <point x="161.579" y="671.186"/>
      <point x="194.18" y="632.175" type="qcurve" smooth="yes"/>
      <point x="322.513" y="478.605" type="line"/>
      <point x="428.615" y="609.969" type="line" smooth="yes"/>
      <point x="477.631" y="670.655"/>
      <point x="538.23" y="670.655" type="qcurve" smooth="yes"/>
      <point x="577.578" y="670.655"/>
      <point x="615.843" y="635.303" type="qcurve" smooth="yes"/>
      <point x="657.328" y="593.817"/>
      <point x="657.328" y="555.775" type="qcurve" smooth="yes"/>
      <point x="657.328" y="502.75"/>
      <point x="598.676" y="450.721" type="qcurve"/>
      <point x="489.931" y="338.306" type="line"/>
      <point x="615.76" y="197.244" type="line" smooth="yes"/>
      <point x="657.328" y="156.286"/>
      <point x="657.328" y="113.936" type="qcurve" smooth="yes"/>
      <point x="657.328" y="67.1436"/>
      <point x="615.294" y="27.1436" type="qcurve" smooth="yes"/>
      <point x="569.108" y="-14.125"/>
      <point x="532.96" y="-14.125" type="qcurve" smooth="yes"/>
      <point x="487.995" y="-14.125"/>
      <point x="456.11" y="24.8857" type="qcurve" smooth="yes"/>
      <point x="327.777" y="181.905" type="line"/>
      <point x="221.675" y="47.0918" type="line" smooth="yes"/>
      <point x="173.913" y="-13.5947"/>
      <point x="112.06" y="-13.5947" type="qcurve" smooth="yes"/>
      <point x="72.7129" y="-13.5947"/>
      <point x="34.4473" y="22.9072" type="qcurve" smooth="yes"/>
      <point x="-7.03809" y="64.3926"/>
      <point x="-7.03809" y="102.436" type="qcurve" smooth="yes"/>
      <point x="-7.03809" y="151.845"/>
      <point x="51.6143" y="207.489" type="qcurve"/>
    </contour>
  </outline>
</glyph>
<glyph name="Y" format="1">
  <advance width="691"/>
  <unicode hex="0059"/>
  <outline>
    <contour>
      <point x="459.969" y="150.304" type="line" smooth="yes"/>
      <point x="460.114" y="38.8662"/>
      <point x="418.962" y="0"/>
      <point x="341.96" y="0" type="curve" smooth="yes"/>
      <point x="267.155" y="0"/>
      <point x="230.346" y="32.2051"/>
      <point x="229.329" y="142.657" type="curve" smooth="yes"/>
      <point x="227.835" y="305.061" type="line"/>
      <point x="73.5684" y="484.791" type="line" smooth="yes"/>
      <point x="47.667" y="514.968"/>
      <point x="32" y="541.084"/>
      <point x="32" y="568.1" type="curve" smooth="yes"/>
      <point x="32" y="599.777"/>
      <point x="44.71" y="632.921"/>
      <point x="74.0342" y="654.891" type="curve" smooth="yes"/>
      <point x="96.7783" y="671.931"/>
      <point x="119.659" y="684.659"/>
      <point x="144.868" y="684.659" type="curve" smooth="yes"/>
      <point x="168.458" y="684.659"/>
      <point x="195.88" y="675.595"/>
      <point x="221.718" y="645.649" type="curve" smooth="yes"/>
      <point x="344.302" y="503.579" type="line"/>
      <point x="445.804" y="623.443" type="line" smooth="yes"/>
      <point x="483.566" y="668.038"/>
      <point x="522.816" y="684.13"/>
      <point x="555.419" y="684.13" type="curve" smooth="yes"/>
      <point x="578.779" y="684.13"/>
      <point x="602.279" y="679.53"/>
      <point x="621.531" y="660.277" type="curve" smooth="yes"/>
      <point x="648.009" y="633.799"/>
      <point x="663.017" y="608.485"/>
      <point x="663.017" y="580.75" type="curve" smooth="yes"/>
      <point x="663.017" y="550.251"/>
      <point x="641.027" y="520.121"/>
      <point x="604.364" y="475.695" type="curve" smooth="yes"/>
      <point x="459.772" y="300.492" type="line"/>
    </contour>
  </outline>
</glyph>
<glyph name="Z" format="1">
  <advance width="757"/>
  <unicode hex="005A"/>
  <outline>
    <contour>
      <point x="598.959" y="161.952" type="curve" smooth="yes"/>
      <point x="679.459" y="161.952"/>
      <point x="700.867" y="136.974"/>
      <point x="700.867" y="82.6084" type="curve" smooth="yes"/>
      <point x="700.867" y="11.0879"/>
      <point x="656.516" y="0"/>
      <point x="557.743" y="0" type="curve" smooth="yes"/>
      <point x="465.639" y="0"/>
      <point x="260.445" y="0"/>
      <point x="183.497" y="0" type="curve" smooth="yes"/>
      <point x="127.355" y="0"/>
      <point x="59.9844" y="55.2715"/>
      <point x="59.9844" y="125.473" type="curve" smooth="yes"/>
      <point x="59.9844" y="204.019"/>
      <point x="83.3781" y="227.953"/>
      <point x="141.673" y="290.371" type="curve" smooth="yes"/>
      <point x="214.074" y="367.893"/>
      <point x="297.094" y="443.585"/>
      <point x="382.145" y="522.438" type="curve"/>
      <point x="345.379" y="522"/>
      <point x="229.754" y="522"/>
      <point x="194" y="522" type="curve" smooth="yes"/>
      <point x="106.406" y="522"/>
      <point x="67.0732" y="544.922"/>
      <point x="67.0732" y="606.68" type="curve" smooth="yes"/>
      <point x="67.0732" y="668.458"/>
      <point x="105.764" y="684.522"/>
      <point x="164" y="684.566" type="curve" smooth="yes"/>
      <point x="572.943" y="685" type="line" smooth="yes"/>
      <point x="657.951" y="684.973"/>
      <point x="685" y="618.61"/>
      <point x="685" y="585.067" type="curve" smooth="yes"/>
      <point x="685" y="499.02"/>
      <point x="661.836" y="487.654"/>
      <point x="607.008" y="431.36" type="curve" smooth="yes"/>
      <point x="530.491" y="352.799"/>
      <point x="419.975" y="252.492"/>
      <point x="330.045" y="161.591" type="curve"/>
      <point x="388.998" y="161.781"/>
      <point x="550.93" y="161.952"/>
    </contour>
  </outline>
</glyph>
<glyph name="bracketleft" format="1">
  <advance width="350"/>
  <unicode hex="005B"/>
  <outline>
    <contour>
      <point x="24.1709" y="-36.5059" type="line" smooth="yes"/>
      <point x="24.2253" y="-105.506"/>
      <point x="45.8906" y="-132.012"/>
      <point x="132.893" y="-132.012" type="curve" smooth="yes"/>
      <point x="161.469" y="-132.012"/>
      <point x="193.66" y="-132.506"/>
      <point x="226.893" y="-132.506" type="curve" smooth="yes"/>
      <point x="288.778" y="-132.506"/>
      <point x="321.058" y="-104.021"/>
      <point x="321.058" y="-66.5059" type="curve" smooth="yes"/>
      <point x="321.058" y="-16.002"/>
      <point x="269.897" y="-0.350586"/>
      <point x="216.229" y="-0.350586" type="curve"/>
      <point x="216.229" y="497" type="line"/>
      <point x="269.897" y="497"/>
      <point x="321.058" y="512.651"/>
      <point x="321.058" y="563.155" type="curve" smooth="yes"/>
      <point x="321.058" y="600.67"/>
      <point x="288.778" y="629.155"/>
      <point x="226.893" y="629.155" type="curve" smooth="yes"/>
      <point x="193.66" y="629.155"/>
      <point x="161.469" y="628.661"/>
      <point x="132.893" y="628.661" type="curve" smooth="yes"/>
      <point x="45.8906" y="628.661"/>
      <point x="24.2253" y="602.155"/>
      <point x="24.1709" y="533.155" type="curve" smooth="yes"/>
    </contour>
  </outline>
</glyph>
<glyph name="bracketright" format="1">
  <advance width="477"/>
  <unicode hex="005D"/>
  <outline>
    <contour>
      <point x="371.58" y="-48" type="line" smooth="yes"/>
      <point x="371.58" y="-128"/>
      <point x="346.58" y="-158"/>
      <point x="246.58" y="-158" type="curve" smooth="yes"/>
      <point x="138.58" y="-159" type="line" smooth="yes"/>
      <point x="67.5801" y="-159"/>
      <point x="30.5801" y="-126"/>
      <point x="30.5801" y="-83" type="curve" smooth="yes"/>
      <point x="30.5801" y="-25"/>
      <point x="89.5801" y="-7"/>
      <point x="151.58" y="-7" type="curve"/>
      <point x="151.58" y="649" type="line"/>
      <point x="89.5801" y="649"/>
      <point x="30.5801" y="667"/>
      <point x="30.5801" y="725" type="curve" smooth="yes"/>
      <point x="30.5801" y="768"/>
      <point x="67.5801" y="800"/>
      <point x="138.58" y="800" type="curve" smooth="yes"/>
      <point x="246.58" y="800" type="line" smooth="yes"/>
      <point x="346.58" y="800"/>
      <point x="371.58" y="769"/>
      <point x="371.58" y="691" type="curve" smooth="yes"/>
    </contour>
  </outline>
</glyph>
<glyph name="underscore" format="1">
  <advance width="651"/>
  <unicode hex="005F"/>
  <outline>
    <contour>
      <point x="545.682" y="142.367" type="line" smooth="yes"/>
      <point x="605.239" y="142.367"/>
      <point x="624.518" y="125.223"/>
      <point x="624.518" y="71" type="curve" smooth="yes"/>
      <point x="624.518" y="14.5588"/>
      <point x="596.43" y="0.267578"/>
      <point x="536.317" y="0.267578" type="curve" smooth="yes"/>
      <point x="82.418" y="0.267578" type="line" smooth="yes"/>
      <point x="34.8594" y="0.267578"/>
      <point x="18.585" y="25.2544"/>
      <point x="18.585" y="69.1299" type="curve" smooth="yes"/>
      <point x="18.585" y="110.353"/>
      <point x="32.9102" y="142.367"/>
      <point x="88.6641" y="142.367" type="curve" smooth="yes"/>
    </contour>
  </outline>
</glyph>
<glyph name="grave" format="1">
  <advance width="288"/>
  <unicode hex="0060"/>
  <outline>
    <contour>
      <point x="119.005" y="783.112" type="qcurve" smooth="yes"/>
      <point x="94.8604" y="797.186"/>
      <point x="66.1045" y="797.186" type="qcurve" smooth="yes"/>
      <point x="26.5137" y="797.186"/>
      <point x="-21.5879" y="728.253"/>
      <point x="-21.5879" y="689.962" type="qcurve" smooth="yes"/>
      <point x="-21.5879" y="634.309"/>
      <point x="47.9854" y="607.879" type="qcurve" smooth="yes"/>
      <point x="57.1328" y="604.403"/>
      <point x="183.404" y="562.312" type="qcurve" smooth="yes"/>
      <point x="210.988" y="553.116"/>
      <point x="234.005" y="553.116" type="qcurve" smooth="yes"/>
      <point x="267.945" y="553.116"/>
      <point x="309.421" y="591.535"/>
      <point x="309.421" y="619.812" type="qcurve" smooth="yes"/>
      <point x="309.421" y="635.514"/>
      <point x="300.861" y="659.574"/>
      <point x="275.363" y="682.805"/>
      <point x="265.636" y="689.958"/>
      <point x="246.654" y="702.612" type="qcurve" smooth="yes"/>
      <point x="173.852" y="751.147"/>
    </contour>
  </outline>
</glyph>
<glyph name="b" format="1">
  <advance width="526"/>
  <unicode hex="0062"/>
  <outline>
    <contour>
      <point x="220.41" y="126.546" type="curve"/>
      <point x="229.703" y="108.787"/>
      <point x="243.897" y="96.8027"/>
      <point x="263.9" y="96.8027" type="curve" smooth="yes"/>
      <point x="297.558" y="96.8027"/>
      <point x="313.5" y="148.317"/>
      <point x="313.5" y="194.402" type="curve" smooth="yes"/>
      <point x="313.5" y="248.671"/>
      <point x="294.8" y="307.147"/>
      <point x="263.253" y="307.147" type="curve" smooth="yes"/>
      <point x="243.721" y="307.147"/>
      <point x="229.577" y="294.036"/>
      <point x="220.27" y="274.924" type="curve"/>
      <point x="220.27" y="245.628"/>
      <point x="220.41" y="180.435"/>
    </contour>
    <contour>
      <point x="219.492" y="372.358" type="curve"/>
      <point x="254.081" y="398.04"/>
      <point x="296.381" y="414.802"/>
      <point x="343.394" y="414.802" type="curve"/>
      <point x="434" y="414.802"/>
      <point x="502" y="331.839"/>
      <point x="502" y="194.402" type="curve" smooth="yes"/>
      <point x="502" y="64.4434"/>
      <point x="392.4" y="-10.3975"/>
      <point x="244.4" y="-10.3975" type="curve" smooth="yes"/>
      <point x="117.2" y="-10.3975"/>
      <point x="30.8457" y="47.5166"/>
      <point x="30.8457" y="156.002" type="curve" smooth="yes"/>
      <point x="30.8457" y="255.073"/>
      <point x="28.9092" y="406.26"/>
      <point x="28.9092" y="484.118" type="curve" smooth="yes"/>
      <point x="28.9092" y="559.604"/>
      <point x="70.1377" y="588.422"/>
      <point x="124.784" y="588.422" type="curve" smooth="yes"/>
      <point x="179.884" y="588.422"/>
      <point x="211.194" y="576.263"/>
      <point x="216.122" y="491.933" type="curve" smooth="yes"/>
      <point x="217.827" y="462.741"/>
      <point x="218.865" y="420.014"/>
    </contour>
  </outline>
</glyph>
<glyph name="c" format="1">
  <advance width="584"/>
  <unicode hex="0063"/>
  <outline>
    <contour>
      <point x="338.186" y="297.849" type="curve" smooth="yes"/>
      <point x="338.186" y="325.849"/>
      <point x="354.799" y="350.102"/>
      <point x="354.799" y="366.669" type="curve" smooth="yes"/>
      <point x="354.799" y="385.249"/>
      <point x="348.605" y="397.712"/>
      <point x="326.605" y="397.712" type="curve" smooth="yes"/>
      <point x="290.001" y="397.712"/>
      <point x="266.708" y="335.395"/>
      <point x="266.708" y="275.999" type="curve" smooth="yes"/>
      <point x="266.708" y="211.499"/>
      <point x="309.61" y="165.999"/>
      <point x="378.187" y="165.999" type="curve" smooth="yes"/>
      <point x="412.219" y="165.999"/>
      <point x="447.187" y="169.999"/>
      <point x="474.605" y="178.05" type="curve" smooth="yes"/>
      <point x="509.24" y="188.219"/>
      <point x="522.929" y="206.911"/>
      <point x="541.76" y="206.911" type="curve" smooth="yes"/>
      <point x="576.687" y="206.911"/>
      <point x="593.687" y="186.999"/>
      <point x="593.687" y="165.999" type="curve" smooth="yes"/>
      <point x="593.687" y="117.499"/>
      <point x="502.516" y="-4.22949"/>
      <point x="336.001" y="-4.22949" type="curve" smooth="yes"/>
      <point x="165.007" y="-4.22949"/>
      <point x="30.5811" y="87.999"/>
      <point x="30.5811" y="251.811" type="curve" smooth="yes"/>
      <point x="30.5811" y="416"/>
      <point x="159.107" y="514.999"/>
      <point x="336.001" y="514.999" type="curve" smooth="yes"/>
      <point x="513.415" y="514.999"/>
      <point x="581.774" y="450.499"/>
      <point x="581.774" y="359.999" type="curve" smooth="yes"/>
      <point x="581.774" y="313.177"/>
      <point x="546.001" y="232.883"/>
      <point x="423.187" y="232.883" type="curve" smooth="yes"/>
      <point x="376.748" y="232.883"/>
      <point x="338.186" y="238.623"/>
    </contour>
  </outline>
</glyph>
<glyph name="d" format="1">
  <advance width="541"/>
  <unicode hex="0064"/>
  <outline>
    <contour>
      <point x="341.708" y="222.069" type="qcurve" smooth="yes"/>
      <point x="341.708" y="272.409"/>
      <point x="307.999" y="347.128"/>
      <point x="276.21" y="347.128" type="qcurve" smooth="yes"/>
      <point x="250.223" y="347.128"/>
      <point x="218.428" y="270.683"/>
      <point x="218.428" y="222.069" type="qcurve" smooth="yes"/>
      <point x="218.428" y="175.678"/>
      <point x="248.363" y="104.08"/>
      <point x="275.467" y="104.08" type="qcurve" smooth="yes"/>
      <point x="308.345" y="104.08"/>
      <point x="341.708" y="174.023"/>
    </contour>
    <contour>
      <point x="184.387" y="-19.4102" type="qcurve" smooth="yes"/>
      <point x="105.757" y="-19.4102"/>
      <point x="1.65137" y="109.813"/>
      <point x="1.65137" y="222.069" type="qcurve" smooth="yes"/>
      <point x="1.65137" y="336.229"/>
      <point x="104.044" y="470.931"/>
      <point x="184.048" y="470.931" type="qcurve" smooth="yes"/>
      <point x="235.936" y="470.931"/>
      <point x="332.497" y="422.202"/>
      <point x="396.956" y="349.169"/>
      <point x="435.548" y="266.061"/>
      <point x="435.548" y="230.705" type="qcurve" smooth="yes"/>
      <point x="435.548" y="114.168"/>
      <point x="293.389" y="-19.4102"/>
    </contour>
    <contour>
      <point x="539.049" y="138.146" type="line" smooth="yes"/>
      <point x="539.049" y="57.0459"/>
      <point x="484.845" y="-12.1582"/>
      <point x="429.09" y="-12.1582" type="qcurve" smooth="yes"/>
      <point x="372.852" y="-12.1582"/>
      <point x="321.061" y="50.5957"/>
      <point x="321.061" y="130.499" type="qcurve" smooth="yes"/>
      <point x="318.834" y="552.705" type="line" smooth="yes"/>
      <point x="318.834" y="614.456"/>
      <point x="379.068" y="672.654"/>
      <point x="429.09" y="672.654" type="qcurve" smooth="yes"/>
      <point x="483.591" y="672.654"/>
      <point x="538.729" y="628.673"/>
      <point x="538.729" y="561.691" type="qcurve" smooth="yes"/>
    </contour>
  </outline>
</glyph>
<glyph name="e" format="1">
  <advance width="658"/>
  <unicode hex="0065"/>
  <outline>
    <contour>
      <point x="355.315" y="-4.22852" type="curve" smooth="yes"/>
      <point x="184.32" y="-4.22852"/>
      <point x="49.8945" y="88"/>
      <point x="49.8945" y="251.812" type="curve" smooth="yes"/>
      <point x="49.8945" y="416.001"/>
      <point x="178.421" y="515"/>
      <point x="355.315" y="515" type="curve" smooth="yes"/>
      <point x="532.729" y="515"/>
      <point x="601.088" y="450.5"/>
      <point x="601.088" y="360" type="curve" smooth="yes"/>
      <point x="601.088" y="299.569"/>
      <point x="554.491" y="233.99"/>
      <point x="440" y="233" type="curve" smooth="yes"/>
      <point x="131.001" y="230.5" type="line"/>
      <point x="171.5" y="310" type="line"/>
      <point x="171.5" y="310"/>
      <point x="339.527" y="313.333"/>
      <point x="350.445" y="313.333" type="curve" smooth="yes"/>
      <point x="359.229" y="313.333"/>
      <point x="364.287" y="317.904"/>
      <point x="368.091" y="327.286" type="curve" smooth="yes"/>
      <point x="371.896" y="336.667"/>
      <point x="374.112" y="350.103"/>
      <point x="374.112" y="366.67" type="curve" smooth="yes"/>
      <point x="374.112" y="385.25"/>
      <point x="367.919" y="397.713"/>
      <point x="345.919" y="397.713" type="curve" smooth="yes"/>
      <point x="317.315" y="397.713"/>
      <point x="286.022" y="348"/>
      <point x="286.022" y="283" type="curve" smooth="yes"/>
      <point x="286.022" y="216"/>
      <point x="323.315" y="166"/>
      <point x="397.5" y="166" type="curve" smooth="yes"/>
      <point x="431.532" y="166"/>
      <point x="466.5" y="170"/>
      <point x="493.919" y="178.051" type="curve" smooth="yes"/>
      <point x="528.554" y="188.22"/>
      <point x="542.242" y="206.912"/>
      <point x="561.073" y="206.912" type="curve" smooth="yes"/>
      <point x="596" y="206.912"/>
      <point x="613" y="187"/>
      <point x="613" y="166" type="curve" smooth="yes"/>
      <point x="613" y="117.5"/>
      <point x="521.829" y="-4.22852"/>
    </contour>
  </outline>
</glyph>
<glyph name="f" format="1">
  <advance width="440"/>
  <unicode hex="0066"/>
  <outline>
    <contour>
      <point x="275.62" y="536.801" type="curve" smooth="yes"/>
      <point x="291.62" y="536.801"/>
      <point x="297.221" y="529.601"/>
      <point x="297.221" y="518.4" type="curve" smooth="yes"/>
      <point x="297.221" y="504"/>
      <point x="283.032" y="490.808"/>
      <point x="283.032" y="472.888" type="curve" smooth="yes"/>
      <point x="283.032" y="434.983"/>
      <point x="311.5" y="431.31"/>
      <point x="341.221" y="431.31" type="curve" smooth="yes"/>
      <point x="397.221" y="431.31"/>
      <point x="430.814" y="462.4"/>
      <point x="430.814" y="512.664" type="curve" smooth="yes"/>
      <point x="430.814" y="570.584"/>
      <point x="389.106" y="611.863"/>
      <point x="273.521" y="611.863" type="curve" smooth="yes"/>
      <point x="141.106" y="611.863"/>
      <point x="110.338" y="532.8"/>
      <point x="110.338" y="408.727" type="curve" smooth="yes"/>
      <point x="110.338" y="297.651"/>
      <point x="109.464" y="212.8"/>
      <point x="109.464" y="124.049" type="curve" smooth="yes"/>
      <point x="109.464" y="28"/>
      <point x="141.013" y="0"/>
      <point x="203.403" y="0" type="curve" smooth="yes"/>
      <point x="265.795" y="0"/>
      <point x="299.019" y="28"/>
      <point x="299.019" y="130.698" type="curve" smooth="yes"/>
      <point x="299.019" y="215.011"/>
      <point x="294.706" y="274.794"/>
      <point x="294.706" y="324.598" type="curve" smooth="yes"/>
      <point x="294.706" y="374.4"/>
      <point x="272.291" y="384.738"/>
      <point x="252.42" y="411.601" type="curve" smooth="yes"/>
      <point x="240.545" y="427.655"/>
      <point x="234.82" y="455.961"/>
      <point x="234.82" y="481.601" type="curve" smooth="yes"/>
      <point x="234.82" y="516.801"/>
      <point x="258.82" y="536.801"/>
    </contour>
    <component base="uni008B" xOffset="-4.467" yOffset="-38.0824"/>
  </outline>
</glyph>
<glyph name="g" format="1">
  <advance width="609"/>
  <unicode hex="0067"/>
  <outline>
    <contour>
      <point x="378.92" y="235.614" type="curve" smooth="yes"/>
      <point x="378.92" y="296.025"/>
      <point x="358.834" y="360.673"/>
      <point x="313.422" y="360.673" type="curve" smooth="yes"/>
      <point x="276.85" y="360.673"/>
      <point x="255.64" y="295.809"/>
      <point x="255.64" y="235.614" type="curve" smooth="yes"/>
      <point x="255.64" y="179.902"/>
      <point x="273.973" y="117.625"/>
      <point x="312.679" y="117.625" type="curve" smooth="yes"/>
      <point x="359.835" y="117.625"/>
      <point x="378.92" y="178.512"/>
    </contour>
    <contour>
      <point x="221.599" y="-5.86523" type="curve" smooth="yes"/>
      <point x="120.694" y="-5.86523"/>
      <point x="38.8633" y="81.0557"/>
      <point x="38.8633" y="235.614" type="curve" smooth="yes"/>
      <point x="38.8633" y="390.798"/>
      <point x="116.847" y="484.475"/>
      <point x="221.26" y="484.475" type="curve" smooth="yes"/>
      <point x="366.576" y="484.475"/>
      <point x="472.758" y="337.418"/>
      <point x="472.758" y="244.25" type="curve" smooth="yes"/>
      <point x="472.758" y="84.1631"/>
      <point x="361.927" y="-5.86523"/>
    </contour>
    <contour>
      <point x="357.775" y="-23.9141" type="curve" smooth="yes"/>
      <point x="356.884" y="363.968" type="line" smooth="yes"/>
      <point x="356.728" y="431.601"/>
      <point x="393.423" y="476.621"/>
      <point x="457.045" y="476.621" type="curve" smooth="yes"/>
      <point x="519.89" y="476.621"/>
      <point x="569.252" y="457.228"/>
      <point x="569.955" y="366.895" type="curve" smooth="yes"/>
      <point x="572.823" y="-1.91895" type="line" smooth="yes"/>
      <point x="573.811" y="-128.899"/>
      <point x="488.413" y="-226.494"/>
      <point x="334.959" y="-226.494" type="curve" smooth="yes"/>
      <point x="181.767" y="-226.494"/>
      <point x="105.448" y="-120.395"/>
      <point x="105.448" y="-76.0674" type="curve" smooth="yes"/>
      <point x="105.448" y="-56.7471"/>
      <point x="122.254" y="-40.9805"/>
      <point x="155.124" y="-40.9805" type="curve" smooth="yes"/>
      <point x="172.449" y="-40.9805"/>
      <point x="184.103" y="-59.7158"/>
      <point x="215.433" y="-70.7275" type="curve" smooth="yes"/>
      <point x="240.236" y="-79.4463"/>
      <point x="261.031" y="-86.4443"/>
      <point x="292.341" y="-86.4443" type="curve" smooth="yes"/>
      <point x="342.426" y="-86.4443"/>
      <point x="357.861" y="-61.5127"/>
    </contour>
  </outline>
</glyph>
<glyph name="h" format="1">
  <advance width="617"/>
  <unicode hex="0068"/>
  <outline>
    <contour>
      <point x="265.234" y="152.08" type="line" smooth="yes"/>
      <point x="265.234" y="39.8428"/>
      <point x="227.025" y="0.698242"/>
      <point x="155.276" y="0.698242" type="curve" smooth="yes"/>
      <point x="83.5264" y="0.698242"/>
      <point x="47.2461" y="33.1289"/>
      <point x="47.2461" y="144.379" type="curve" smooth="yes"/>
      <point x="45.0195" y="569.617" type="line" smooth="yes"/>
      <point x="45.0195" y="657.048"/>
      <point x="93.2109" y="690.427"/>
      <point x="155.276" y="690.427" type="curve" smooth="yes"/>
      <point x="218.12" y="690.427"/>
      <point x="264.915" y="676.511"/>
      <point x="264.915" y="578.668" type="curve" smooth="yes"/>
    </contour>
    <contour>
      <point x="359.632" y="268.419" type="line" smooth="yes"/>
      <point x="359.632" y="313.228"/>
      <point x="340.72" y="324.759"/>
      <point x="315.881" y="324.759" type="curve" smooth="yes"/>
      <point x="285.69" y="324.759"/>
      <point x="265.773" y="293.873"/>
      <point x="265.773" y="250.385" type="curve"/>
      <point x="178.104" y="249.529" type="line"/>
      <point x="178.104" y="307.811"/>
      <point x="193.125" y="380.69"/>
      <point x="247.534" y="422.5" type="curve" smooth="yes"/>
      <point x="306.984" y="463.975"/>
      <point x="369.238" y="478.58"/>
      <point x="445.438" y="478.58" type="curve" smooth="yes"/>
      <point x="539.439" y="478.58"/>
      <point x="579" y="409.581"/>
      <point x="579" y="238.46" type="curve" smooth="yes"/>
      <point x="579" y="37.9014"/>
      <point x="559.849" y="0.181641"/>
      <point x="465.838" y="0.181641" type="curve" smooth="yes"/>
      <point x="388.87" y="0.181641"/>
      <point x="360.837" y="29.6211"/>
      <point x="360.837" y="82.7646" type="curve" smooth="yes"/>
    </contour>
  </outline>
</glyph>
<glyph name="i" format="1">
  <advance width="275"/>
  <unicode hex="0069"/>
  <outline>
    <contour>
      <point x="259.995" y="527.921" type="curve" smooth="yes"/>
      <point x="259.995" y="478.192"/>
      <point x="210.993" y="457.204"/>
      <point x="162.769" y="457.204" type="curve" smooth="yes"/>
      <point x="105.531" y="457.204"/>
      <point x="52.8301" y="471.047"/>
      <point x="52.8301" y="523.339" type="curve" smooth="yes"/>
      <point x="52.8301" y="568.224"/>
      <point x="94.5352" y="589.363"/>
      <point x="157.274" y="589.363" type="curve" smooth="yes"/>
      <point x="219.16" y="589.363"/>
      <point x="259.995" y="565.436"/>
    </contour>
    <component base="dotlessi" xOffset="-16.76" yOffset="-3"/>
  </outline>
</glyph>
<glyph name="j" format="1">
  <advance width="306"/>
  <unicode hex="006A"/>
  <outline>
    <contour>
      <point x="260.804" y="372.3" type="line" smooth="yes"/>
      <point x="260.804" y="429.34"/>
      <point x="218.768" y="476.69"/>
      <point x="155.924" y="476.69" type="curve" smooth="yes"/>
      <point x="93.3643" y="476.69"/>
      <point x="45.667" y="443.55"/>
      <point x="45.667" y="356.742" type="curve" smooth="yes"/>
      <point x="45.667" y="226.139"/>
      <point x="44.6201" y="159.708"/>
      <point x="44.6201" y="48.46" type="curve" smooth="yes"/>
      <point x="44.6201" y="-40.3711"/>
      <point x="-1.06738" y="-46.4434"/>
      <point x="-63.4961" y="-46.4434" type="curve" smooth="yes"/>
      <point x="-131.347" y="-46.4434"/>
      <point x="-155" y="-59.6729"/>
      <point x="-155" y="-96.2109" type="curve" smooth="yes"/>
      <point x="-155" y="-137.873"/>
      <point x="-71.123" y="-196.472"/>
      <point x="82.0703" y="-196.472" type="curve" smooth="yes"/>
      <point x="215.233" y="-196.472"/>
      <point x="262.645" y="-104.086"/>
      <point x="262.645" y="46.6201" type="curve" smooth="yes"/>
    </contour>
    <contour>
      <point x="39.8135" y="594.677" type="curve" smooth="yes"/>
      <point x="39.8135" y="537.489"/>
      <point x="94.9453" y="518.594"/>
      <point x="150.403" y="518.594" type="curve" smooth="yes"/>
      <point x="216.227" y="518.594"/>
      <point x="268.854" y="534.541"/>
      <point x="268.854" y="594.677" type="curve" smooth="yes"/>
      <point x="268.854" y="646.294"/>
      <point x="222.554" y="670.577"/>
      <point x="150.403" y="670.577" type="curve" smooth="yes"/>
      <point x="79.2354" y="670.577"/>
      <point x="39.8135" y="637.818"/>
    </contour>
  </outline>
</glyph>
<glyph name="k" format="1">
  <advance width="497"/>
  <unicode hex="006B"/>
  <outline>
    <contour>
      <point x="255.534" y="117.402" type="curve" smooth="yes"/>
      <point x="223.949" y="117.402" type="line" smooth="yes"/>
      <point x="223.949" y="63.8027"/>
      <point x="190.725" y="-5.79883"/>
      <point x="128.333" y="-5.79883" type="curve" smooth="yes"/>
      <point x="65.9414" y="-5.79883"/>
      <point x="34.3945" y="22.2012"/>
      <point x="34.3945" y="118.252" type="curve" smooth="yes"/>
      <point x="34.3945" y="214.303"/>
      <point x="32.457" y="400.033"/>
      <point x="32.457" y="475.518" type="curve" smooth="yes"/>
      <point x="32.457" y="553.402"/>
      <point x="69.9336" y="576.721"/>
      <point x="128.333" y="579.822" type="curve"/>
      <point x="203.534" y="579.822"/>
      <point x="218.511" y="531.803"/>
      <point x="218.511" y="419.002" type="curve" smooth="yes"/>
      <point x="218.511" y="377.496"/>
      <point x="215.857" y="331.947"/>
      <point x="211.044" y="298.358" type="curve"/>
      <point x="215.019" y="285.676"/>
      <point x="225.072" y="279.002"/>
      <point x="250.511" y="279.002" type="curve" smooth="yes"/>
      <point x="277.134" y="279.002"/>
      <point x="285.604" y="287.803"/>
      <point x="285.604" y="325.635" type="curve" smooth="yes"/>
      <point x="285.604" y="377.402"/>
      <point x="308.796" y="403.002"/>
      <point x="379.52" y="403.002" type="curve" smooth="yes"/>
      <point x="453.858" y="403.002"/>
      <point x="471" y="379.002"/>
      <point x="471" y="312.603" type="curve" smooth="yes"/>
      <point x="471" y="234.202"/>
      <point x="413.134" y="199.002"/>
      <point x="366.734" y="199.002" type="curve"/>
      <point x="413.134" y="199.002"/>
      <point x="471" y="171.803"/>
      <point x="471" y="99.8027" type="curve" smooth="yes"/>
      <point x="471" y="11.5518"/>
      <point x="453.858" y="-5.79785"/>
      <point x="379.52" y="-5.79785" type="curve" smooth="yes"/>
      <point x="308.796" y="-5.79785"/>
      <point x="285.604" y="19.8027"/>
      <point x="285.604" y="71.5703" type="curve" smooth="yes"/>
      <point x="285.604" y="111.002"/>
      <point x="277.357" y="117.402"/>
    </contour>
  </outline>
</glyph>
<glyph name="l" format="1">
  <advance width="274"/>
  <unicode hex="006C"/>
  <outline>
    <contour>
      <point x="234.49" y="130.699" type="line" smooth="yes"/>
      <point x="234.49" y="33.7969"/>
      <point x="201.266" y="0"/>
      <point x="138.875" y="0" type="curve" smooth="yes"/>
      <point x="76.4834" y="0"/>
      <point x="44.9355" y="28"/>
      <point x="44.9355" y="124.05" type="curve" smooth="yes"/>
      <point x="43" y="491.186" type="line" smooth="yes"/>
      <point x="43" y="566.671"/>
      <point x="84.9043" y="595.489"/>
      <point x="138.875" y="595.489" type="curve" smooth="yes"/>
      <point x="193.521" y="595.489"/>
      <point x="234.213" y="583.474"/>
      <point x="234.213" y="499" type="curve" smooth="yes"/>
    </contour>
  </outline>
</glyph>
<glyph name="m" format="1">
  <advance width="765"/>
  <unicode hex="006D"/>
  <outline>
    <contour>
      <point x="218" y="92.8662" type="line" smooth="yes"/>
      <point x="218" y="22.6387"/>
      <point x="192" y="0.0947266"/>
      <point x="119.346" y="0.0947266" type="curve" smooth="yes"/>
      <point x="48" y="0.0947266"/>
      <point x="31" y="33.3027"/>
      <point x="31" y="102.494" type="curve" smooth="yes"/>
      <point x="31" y="316.906" type="line" smooth="yes"/>
      <point x="31" y="375.717"/>
      <point x="65" y="414.866"/>
      <point x="118.819" y="414.866" type="curve" smooth="yes"/>
      <point x="173.466" y="414.866"/>
      <point x="218" y="398.007"/>
      <point x="218" y="319.45" type="curve" smooth="yes"/>
    </contour>
    <contour>
      <point x="291.805" y="229.748" type="curve" smooth="yes"/>
      <point x="291.805" y="268.711"/>
      <point x="275.358" y="278.739"/>
      <point x="253.76" y="278.739" type="curve" smooth="yes"/>
      <point x="232.33" y="278.739"/>
      <point x="218.188" y="251.882"/>
      <point x="218.188" y="214.066" type="curve"/>
      <point x="141.955" y="213.323" type="line"/>
      <point x="141.955" y="264.001"/>
      <point x="155.032" y="327.353"/>
      <point x="202.33" y="363.731" type="curve" smooth="yes"/>
      <point x="249.217" y="399.796"/>
      <point x="288.319" y="412.496"/>
      <point x="348.42" y="412.496" type="curve" smooth="yes"/>
      <point x="424.529" y="412.496"/>
      <point x="466.559" y="356.497"/>
      <point x="466.559" y="207.697" type="curve" smooth="yes"/>
      <point x="466.559" y="33.2969"/>
      <point x="451.26" y="0.49707"/>
      <point x="376.158" y="0.49707" type="curve" smooth="yes"/>
      <point x="315.093" y="0.49707"/>
      <point x="292.853" y="26.0967"/>
      <point x="292.853" y="72.3086" type="curve" smooth="yes"/>
      <point x="292.853" y="129.632"/>
      <point x="291.805" y="189.976"/>
    </contour>
    <contour>
      <point x="539.805" y="229.748" type="curve" smooth="yes"/>
      <point x="539.805" y="268.711"/>
      <point x="523.358" y="278.739"/>
      <point x="501.76" y="278.739" type="curve" smooth="yes"/>
      <point x="480.33" y="278.739"/>
      <point x="466.188" y="251.882"/>
      <point x="466.188" y="214.066" type="curve"/>
      <point x="389.955" y="213.323" type="line"/>
      <point x="389.955" y="264.001"/>
      <point x="402.173" y="328.497"/>
      <point x="450.33" y="363.731" type="curve" smooth="yes"/>
      <point x="499.62" y="399.796"/>
      <point x="551.239" y="412.496"/>
      <point x="614.42" y="412.496" type="curve" smooth="yes"/>
      <point x="696.159" y="412.496"/>
      <point x="730.559" y="356.497"/>
      <point x="730.559" y="207.697" type="curve" smooth="yes"/>
      <point x="730.559" y="33.2969"/>
      <point x="713.906" y="0.49707"/>
      <point x="632.158" y="0.49707" type="curve" smooth="yes"/>
      <point x="565.229" y="0.49707"/>
      <point x="540.853" y="26.0967"/>
      <point x="540.853" y="72.3086" type="curve" smooth="yes"/>
      <point x="540.853" y="129.632"/>
      <point x="539.805" y="189.976"/>
    </contour>
  </outline>
</glyph>
<glyph name="o" format="1">
  <advance width="691"/>
  <unicode hex="006F"/>
  <outline>
    <contour>
      <point x="368.697" y="253.926" type="curve" smooth="yes"/>
      <point x="368.697" y="319.345"/>
      <point x="350.882" y="390.182"/>
      <point x="312.74" y="390.432" type="curve" smooth="yes"/>
      <point x="274.599" y="390.681"/>
      <point x="252.697" y="318.515"/>
      <point x="252.697" y="253.998" type="curve" smooth="yes"/>
      <point x="252.697" y="189.561"/>
      <point x="271.884" y="120"/>
      <point x="312.196" y="120" type="curve" smooth="yes"/>
      <point x="352.509" y="120"/>
      <point x="368.697" y="188.592"/>
    </contour>
    <contour>
      <point x="311.664" y="-4.22852" type="curve" smooth="yes"/>
      <point x="144.468" y="-4.22852"/>
      <point x="9.59082" y="88"/>
      <point x="9.59082" y="252" type="curve" smooth="yes"/>
      <point x="9.59082" y="416.001"/>
      <point x="138.55" y="515"/>
      <point x="311.67" y="515" type="curve" smooth="yes"/>
      <point x="484.831" y="515"/>
      <point x="611.697" y="416.001"/>
      <point x="611.697" y="252" type="curve" smooth="yes"/>
      <point x="611.697" y="88"/>
      <point x="478.9" y="-4.22852"/>
    </contour>
  </outline>
</glyph>
<glyph name="r" format="1">
  <advance width="416"/>
  <unicode hex="0072"/>
  <outline>
    <contour>
      <point x="222.779" y="106.704" type="line" smooth="yes"/>
      <point x="222.779" y="46.5664"/>
      <point x="172.46" y="0.0175781"/>
      <point x="109.326" y="0.0175781" type="qcurve" smooth="yes"/>
      <point x="50.3203" y="0.0175781"/>
      <point x="7.72949" y="54.8428"/>
      <point x="7.72949" y="117.776" type="qcurve" smooth="yes"/>
      <point x="7.72949" y="364.351" type="line" smooth="yes"/>
      <point x="7.72949" y="415.328"/>
      <point x="62.5273" y="477.004"/>
      <point x="108.722" y="477.004" type="qcurve" smooth="yes"/>
      <point x="162.453" y="477.004"/>
      <point x="222.779" y="429.875"/>
      <point x="222.779" y="367.276" type="qcurve" smooth="yes"/>
    </contour>
    <contour>
      <point x="165.983" y="389.758" type="qcurve" smooth="yes"/>
      <point x="175.485" y="403.333"/>
      <point x="207.884" y="432.767"/>
      <point x="248.76" y="459.648"/>
      <point x="298.399" y="476.994"/>
      <point x="321.233" y="476.994" type="qcurve" smooth="yes"/>
      <point x="425.883" y="476.994"/>
      <point x="425.883" y="377.108" type="qcurve" smooth="yes"/>
      <point x="425.883" y="350.901"/>
      <point x="405.245" y="310.095"/>
      <point x="367.493" y="287.408"/>
      <point x="343.083" y="287.408" type="qcurve" smooth="yes"/>
      <point x="321.131" y="287.408"/>
      <point x="293.458" y="305.085"/>
      <point x="271.241" y="322.762"/>
      <point x="255.915" y="322.762" type="qcurve" smooth="yes"/>
      <point x="229.982" y="322.762"/>
      <point x="210.407" y="284.593"/>
      <point x="210.407" y="248.388" type="qcurve"/>
      <point x="122.739" y="247.532" type="line"/>
      <point x="122.739" y="294.826"/>
      <point x="137.865" y="349.59"/>
    </contour>
  </outline>
</glyph>
<glyph name="s" format="1">
  <advance width="525"/>
  <unicode hex="0073"/>
  <outline>
    <contour>
      <point x="254.756" y="515" type="curve" smooth="yes"/>
      <point x="116.367" y="515"/>
      <point x="20.5654" y="449"/>
      <point x="20.5654" y="355.5" type="curve" smooth="yes"/>
      <point x="20.5654" y="293.501"/>
      <point x="40.5664" y="248.001"/>
      <point x="105.565" y="210" type="curve" smooth="yes"/>
      <point x="162.729" y="176.58"/>
      <point x="276.867" y="172.066"/>
      <point x="276.867" y="142" type="curve" smooth="yes"/>
      <point x="276.867" y="126.5"/>
      <point x="264.871" y="118.229"/>
      <point x="230.183" y="118.229" type="curve" smooth="yes"/>
      <point x="196.149" y="118.229"/>
      <point x="169.183" y="122.229"/>
      <point x="141.763" y="130.279" type="curve" smooth="yes"/>
      <point x="107.129" y="140.448"/>
      <point x="83.6992" y="159.141"/>
      <point x="64.8672" y="159.141" type="curve" smooth="yes"/>
      <point x="35.3672" y="159.141"/>
      <point x="22.6826" y="139.229"/>
      <point x="22.6826" y="118.229" type="curve" smooth="yes"/>
      <point x="22.6826" y="69.7285"/>
      <point x="110.525" y="-4"/>
      <point x="250.367" y="-4" type="curve" smooth="yes"/>
      <point x="432.367" y="-4"/>
      <point x="502.565" y="76"/>
      <point x="506.565" y="147" type="curve" smooth="yes"/>
      <point x="511.009" y="225.875"/>
      <point x="482.565" y="278"/>
      <point x="364.565" y="326" type="curve" smooth="yes"/>
      <point x="305.385" y="350.073"/>
      <point x="228.034" y="355"/>
      <point x="228.034" y="389.332" type="curve" smooth="yes"/>
      <point x="228.034" y="405"/>
      <point x="249.182" y="414.1"/>
      <point x="284.524" y="414.1" type="curve" smooth="yes"/>
      <point x="308.985" y="414.1"/>
      <point x="341.744" y="407.394"/>
      <point x="367.518" y="395.049" type="curve" smooth="yes"/>
      <point x="393.367" y="382.667"/>
      <point x="427.693" y="351.859"/>
      <point x="446.524" y="351.859" type="curve" smooth="yes"/>
      <point x="466.024" y="351.859"/>
      <point x="481.024" y="367"/>
      <point x="481.024" y="392.771" type="curve" smooth="yes"/>
      <point x="481.024" y="441.271"/>
      <point x="394.599" y="515"/>
    </contour>
  </outline>
</glyph>
<glyph name="t" format="1">
  <advance width="424"/>
  <unicode hex="0074"/>
  <outline>
    <contour>
      <point x="76.165" y="179.862" type="curve" smooth="yes"/>
      <point x="76.165" y="48.8125"/>
      <point x="118.134" y="-5.92188"/>
      <point x="234.386" y="-5.92188" type="curve" smooth="yes"/>
      <point x="341.334" y="-5.92188"/>
      <point x="387" y="95.0625"/>
      <point x="387" y="155.133" type="curve" smooth="yes"/>
      <point x="387" y="171.933"/>
      <point x="373.399" y="187.862"/>
      <point x="345.458" y="187.862" type="curve" smooth="yes"/>
      <point x="319.734" y="187.862"/>
      <point x="320.612" y="139.902"/>
      <point x="291.734" y="139.902" type="curve" smooth="yes"/>
      <point x="272.534" y="139.902"/>
      <point x="266.951" y="148.662"/>
      <point x="266.951" y="186.262" type="curve" smooth="yes"/>
      <point x="266.951" y="283"/>
      <point x="266.551" y="369.493"/>
      <point x="266.551" y="483.062" type="curve" smooth="yes"/>
      <point x="266.551" y="520.161"/>
      <point x="262.707" y="548.543"/>
      <point x="219.751" y="548.543" type="curve" smooth="yes"/>
      <point x="161.751" y="548.543"/>
      <point x="77.3535" y="508.754"/>
      <point x="77.3535" y="463.062" type="curve" smooth="yes"/>
      <point x="77.3535" y="352.754"/>
      <point x="76.165" y="275.882"/>
    </contour>
    <component base="uni008B" xOffset="-22" yOffset="-78"/>
  </outline>
</glyph>
<glyph name="v" format="1">
  <advance width="526"/>
  <unicode hex="0076"/>
  <outline>
    <contour>
      <point x="262.399" y="130.657" type="curve" smooth="yes"/>
      <point x="299.126" y="130.657"/>
      <point x="301.245" y="152.528"/>
      <point x="301.245" y="197.586" type="curve" smooth="yes"/>
      <point x="301.245" y="229.585"/>
      <point x="302.294" y="289.216"/>
      <point x="302.294" y="337.531" type="curve" smooth="yes"/>
      <point x="302.294" y="389.299"/>
      <point x="326.671" y="414.899"/>
      <point x="401.009" y="414.899" type="curve" smooth="yes"/>
      <point x="475.349" y="414.899"/>
      <point x="492" y="381.087"/>
      <point x="492" y="214.499" type="curve" smooth="yes"/>
      <point x="492" y="52.8994"/>
      <point x="360.363" y="0.0996094"/>
      <point x="263.822" y="0.0996094" type="curve" smooth="yes"/>
      <point x="167.333" y="0.0996094"/>
      <point x="34.0449" y="52.8994"/>
      <point x="34.0449" y="214.499" type="curve" smooth="yes"/>
      <point x="34.0449" y="381.087"/>
      <point x="50.6973" y="414.899"/>
      <point x="125.036" y="414.899" type="curve" smooth="yes"/>
      <point x="199.375" y="414.899"/>
      <point x="223.751" y="389.299"/>
      <point x="223.751" y="337.531" type="curve" smooth="yes"/>
      <point x="223.751" y="289.234"/>
      <point x="224.8" y="229.626"/>
      <point x="224.8" y="198.386" type="curve" smooth="yes"/>
      <point x="224.8" y="154.543"/>
      <point x="224.803" y="130.657"/>
    </contour>
  </outline>
</glyph>
<glyph name="w" format="1">
  <advance width="774"/>
  <unicode hex="0077"/>
  <outline>
    <contour>
      <point x="532.006" y="150.062" type="qcurve" smooth="yes"/>
      <point x="549.937" y="150.062"/>
      <point x="567.294" y="164.465"/>
      <point x="571.158" y="185.819"/>
      <point x="571.158" y="208.63" type="qcurve" smooth="yes"/>
      <point x="571.158" y="225.135"/>
      <point x="571.761" y="289.296"/>
      <point x="572.363" y="361.588"/>
      <point x="572.363" y="387.967" type="qcurve" smooth="yes"/>
      <point x="572.363" y="434.114"/>
      <point x="623.56" y="476.94"/>
      <point x="685.887" y="476.94" type="qcurve" smooth="yes"/>
      <point x="730.299" y="476.94"/>
      <point x="772.994" y="440.102"/>
      <point x="790.526" y="345.13"/>
      <point x="790.526" y="246.479" type="qcurve" smooth="yes"/>
      <point x="790.526" y="192.992"/>
      <point x="758.152" y="106.46"/>
      <point x="706.628" y="51.8545"/>
      <point x="638.556" y="15.0215"/>
      <point x="571.307" y="-0.0800781"/>
      <point x="537.322" y="-0.0800781" type="qcurve" smooth="yes"/>
      <point x="456.271" y="-0.0800781"/>
      <point x="388.421" y="51.2344" type="qcurve"/>
      <point x="321.097" y="-0.0800781"/>
      <point x="240.162" y="-0.0800781" type="qcurve" smooth="yes"/>
      <point x="206.166" y="-0.0800781"/>
      <point x="138.579" y="15.0176"/>
      <point x="69.9375" y="51.8633"/>
      <point x="17.8818" y="106.447"/>
      <point x="-14.8818" y="193.01"/>
      <point x="-14.8818" y="246.479" type="qcurve" smooth="yes"/>
      <point x="-14.8818" y="345.13"/>
      <point x="2.65039" y="440.102"/>
      <point x="45.3457" y="476.94"/>
      <point x="89.7578" y="476.94" type="qcurve" smooth="yes"/>
      <point x="131.988" y="476.94"/>
      <point x="182.397" y="456.774"/>
      <point x="203.281" y="418.702"/>
      <point x="203.281" y="387.967" type="qcurve" smooth="yes"/>
      <point x="203.281" y="354.269"/>
      <point x="204.486" y="226.845"/>
      <point x="204.486" y="209.55" type="qcurve" smooth="yes"/>
      <point x="204.486" y="194.85"/>
      <point x="205.08" y="181.518"/>
      <point x="208.732" y="163.214"/>
      <point x="216.527" y="155.825"/>
      <point x="231.082" y="150.062"/>
      <point x="242.206" y="150.062" type="qcurve" smooth="yes"/>
      <point x="281.688" y="150.062"/>
      <point x="288.884" y="173.31" type="qcurve"/>
      <point x="280.438" y="232.876"/>
      <point x="280.438" y="301.68" type="qcurve" smooth="yes"/>
      <point x="280.438" y="379.227"/>
      <point x="298.392" y="450.427"/>
      <point x="342.849" y="476.795"/>
      <point x="391.503" y="476.795" type="qcurve" smooth="yes"/>
      <point x="436.393" y="476.654"/>
      <point x="477.85" y="450.539"/>
      <point x="495.206" y="378.78"/>
      <point x="495.206" y="301.68" type="qcurve" smooth="yes"/>
      <point x="495.206" y="232.232"/>
      <point x="486.62" y="172.32" type="qcurve"/>
      <point x="493.594" y="150.062"/>
    </contour>
  </outline>
</glyph>
<glyph name="x" format="1">
  <advance width="510"/>
  <unicode hex="0078"/>
  <outline>
    <contour>
      <point x="249.06" y="98.8789" type="qcurve"/>
      <point x="246.684" y="96.375"/>
      <point x="225.327" y="73.5918"/>
      <point x="217.488" y="65.6621"/>
      <point x="196.905" y="45.0117"/>
      <point x="185.582" y="36.0781"/>
      <point x="165.916" y="20.0264"/>
      <point x="151.253" y="12.5576"/>
      <point x="132.646" y="3.57129"/>
      <point x="114.787" y="0.0322266"/>
      <point x="105.815" y="0.0322266" type="qcurve" smooth="yes"/>
      <point x="77.8652" y="0.0322266"/>
      <point x="20.2256" y="32.5488"/>
      <point x="-17.7402" y="85.9258"/>
      <point x="-17.7402" y="113.395" type="qcurve" smooth="yes"/>
      <point x="-17.7402" y="122.5"/>
      <point x="-0.814453" y="147.727"/>
      <point x="31.5225" y="177.977"/>
      <point x="56.6924" y="199.538"/>
      <point x="95.7588" y="230.377"/>
      <point x="99.6611" y="233.602" type="qcurve"/>
      <point x="92.252" y="240.388"/>
      <point x="53.3281" y="272.594"/>
      <point x="30.7617" y="294.392"/>
      <point x="2.89258" y="327.392"/>
      <point x="-10.6094" y="363.926"/>
      <point x="-10.6094" y="384.079" type="qcurve" smooth="yes"/>
      <point x="-10.6094" y="417.576"/>
      <point x="54.6699" y="476.05"/>
      <point x="90.3604" y="476.05" type="qcurve" smooth="yes"/>
      <point x="113.487" y="476.05"/>
      <point x="160.999" y="448.432"/>
      <point x="191.663" y="416.638"/>
      <point x="237.736" y="364.001"/>
      <point x="249.342" y="352.685" type="qcurve"/>
      <point x="259.646" y="363.147"/>
      <point x="306.287" y="417.297"/>
      <point x="336.196" y="448.167"/>
      <point x="383.851" y="476.05"/>
      <point x="406.84" y="476.05" type="qcurve" smooth="yes"/>
      <point x="443.008" y="476.05"/>
      <point x="508.386" y="415.562"/>
      <point x="508.386" y="382.929" type="qcurve" smooth="yes"/>
      <point x="508.386" y="368.702"/>
      <point x="496.234" y="337.794"/>
      <point x="481.276" y="314.357"/>
      <point x="452.475" y="283.208"/>
      <point x="435.426" y="267.257"/>
      <point x="401.758" y="237.467"/>
      <point x="397.539" y="233.602" type="qcurve"/>
      <point x="401.438" y="230.38"/>
      <point x="440.511" y="199.536"/>
      <point x="465.676" y="177.978"/>
      <point x="498.017" y="147.726"/>
      <point x="514.94" y="122.5"/>
      <point x="514.94" y="113.395" type="qcurve" smooth="yes"/>
      <point x="514.94" y="71.543"/>
      <point x="434.776" y="0.0322266"/>
      <point x="391.385" y="0.0322266" type="qcurve" smooth="yes"/>
      <point x="381.329" y="0.0322266"/>
      <point x="360.076" y="5.87793"/>
      <point x="343.133" y="12.9375"/>
      <point x="320.83" y="28.9004"/>
      <point x="307.817" y="38.7881"/>
      <point x="284.612" y="61.3281"/>
      <point x="275.678" y="70.501"/>
      <point x="251.721" y="96.0752"/>
    </contour>
  </outline>
</glyph>
<glyph name="y" format="1">
  <advance width="627"/>
  <unicode hex="0079"/>
  <outline>
    <contour>
      <point x="335" y="0" type="curve"/>
      <point x="335" y="-69"/>
      <point x="330" y="-103.029"/>
      <point x="306.14" y="-103.029" type="curve" smooth="yes"/>
      <point x="284.14" y="-103.029"/>
      <point x="278.22" y="-89.5791"/>
      <point x="278.22" y="-71" type="curve" smooth="yes"/>
      <point x="278.22" y="-21"/>
      <point x="195" y="-14"/>
      <point x="166" y="-14" type="curve" smooth="yes"/>
      <point x="127" y="-14"/>
      <point x="51.7285" y="-28.1807"/>
      <point x="51.3145" y="-75" type="curve" smooth="yes"/>
      <point x="50.5141" y="-165.497"/>
      <point x="213.041" y="-220.229"/>
      <point x="326" y="-220.229" type="curve" smooth="yes"/>
      <point x="518" y="-220.229"/>
      <point x="570" y="3.18848"/>
      <point x="570" y="167" type="curve" smooth="yes"/>
      <point x="570" y="499"/>
      <point x="529" y="514.5"/>
      <point x="469" y="514.5" type="curve" smooth="yes"/>
      <point x="385.338" y="514.5"/>
      <point x="332.867" y="478.999"/>
      <point x="332.867" y="421.234" type="curve" smooth="yes"/>
      <point x="332.867" y="349.58"/>
      <point x="331.557" y="274.15"/>
      <point x="331.557" y="224.436" type="curve" smooth="yes"/>
      <point x="331.557" y="175.731"/>
      <point x="329.998" y="163.196"/>
      <point x="303" y="163.196" type="curve" smooth="yes"/>
      <point x="276.002" y="163.196"/>
      <point x="276" y="175.731"/>
      <point x="276" y="224.436" type="curve" smooth="yes"/>
      <point x="276" y="274.15"/>
      <point x="274.689" y="349.58"/>
      <point x="274.689" y="421.234" type="curve" smooth="yes"/>
      <point x="274.689" y="478.999"/>
      <point x="244.219" y="510.999"/>
      <point x="160.557" y="510.999" type="curve" smooth="yes"/>
      <point x="58.3721" y="510.999"/>
      <point x="37.5566" y="469.999"/>
      <point x="37.5566" y="251.999" type="curve" smooth="yes"/>
      <point x="37.5566" y="65.999"/>
      <point x="103" y="0"/>
    </contour>
  </outline>
</glyph>
<glyph name="z" format="1">
  <advance width="555"/>
  <unicode hex="007A"/>
  <outline>
    <contour>
      <point x="435.178" y="136.452" type="curve" smooth="yes"/>
      <point x="514.099" y="136.452"/>
      <point x="531.119" y="112"/>
      <point x="531.119" y="58.7793" type="curve" smooth="yes"/>
      <point x="531.119" y="7.88867"/>
      <point x="496.686" y="0"/>
      <point x="420" y="0" type="curve" smooth="yes"/>
      <point x="341" y="0"/>
      <point x="165" y="0"/>
      <point x="99" y="0" type="curve" smooth="yes"/>
      <point x="54" y="0"/>
      <point x="0" y="34"/>
      <point x="0" y="92" type="curve" smooth="yes"/>
      <point x="0" y="152.983"/>
      <point x="9.30078" y="174"/>
      <point x="66.9941" y="231.693" type="curve" smooth="yes"/>
      <point x="116.577" y="281.277"/>
      <point x="164.644" y="329.27"/>
      <point x="209.344" y="373.91" type="curve"/>
      <point x="182.647" y="374"/>
      <point x="155.781" y="374"/>
      <point x="129.821" y="374" type="curve" smooth="yes"/>
      <point x="53.1357" y="374"/>
      <point x="18.7021" y="392.889"/>
      <point x="18.7021" y="443.779" type="curve" smooth="yes"/>
      <point x="18.7021" y="497"/>
      <point x="35.7227" y="510.452"/>
      <point x="114.644" y="510.452" type="curve" smooth="yes"/>
      <point x="198.821" y="510.452"/>
      <point x="360.884" y="510.5"/>
      <point x="445" y="510.5" type="curve" smooth="yes"/>
      <point x="511" y="510.5"/>
      <point x="532" y="455.149"/>
      <point x="532" y="427" type="curve" smooth="yes"/>
      <point x="532" y="358.692"/>
      <point x="515" y="348.537"/>
      <point x="471.446" y="304.983" type="curve" smooth="yes"/>
      <point x="416.14" y="249.677"/>
      <point x="367.532" y="195.569"/>
      <point x="307.208" y="136.173" type="curve"/>
      <point x="352.98" y="136.32"/>
      <point x="397.888" y="136.452"/>
    </contour>
  </outline>
</glyph>
<glyph name="braceleft" format="1">
  <advance width="435"/>
  <unicode hex="007B"/>
  <outline>
    <contour>
      <point x="286.171" y="497" type="curve"/>
      <point x="339.942" y="497"/>
      <point x="392" y="512.651"/>
      <point x="392" y="563.155" type="curve" smooth="yes"/>
      <point x="392" y="600.67"/>
      <point x="359.721" y="629.155"/>
      <point x="297.835" y="629.155" type="curve" smooth="yes"/>
      <point x="264.603" y="629.155"/>
      <point x="232.411" y="628.661"/>
      <point x="203.835" y="628.661" type="curve" smooth="yes"/>
      <point x="116.833" y="628.661"/>
      <point x="95.1133" y="602.155"/>
      <point x="95.1133" y="533.155" type="curve" smooth="yes"/>
      <point x="95.1133" y="308.988" type="line"/>
      <point x="50.7578" y="301.879"/>
      <point x="27.7773" y="276.653"/>
      <point x="27.7773" y="245" type="curve" smooth="yes"/>
      <point x="27.7773" y="204.679"/>
      <point x="57.9795" y="186.249"/>
      <point x="95.1133" y="180.719" type="curve"/>
      <point x="95.1133" y="-36.5059" type="line" smooth="yes"/>
      <point x="95.1133" y="-105.506"/>
      <point x="116.833" y="-132.012"/>
      <point x="203.835" y="-132.012" type="curve" smooth="yes"/>
      <point x="232.411" y="-132.012"/>
      <point x="264.603" y="-132.506"/>
      <point x="297.835" y="-132.506" type="curve" smooth="yes"/>
      <point x="359.721" y="-132.506"/>
      <point x="392" y="-104.021"/>
      <point x="392" y="-66.5059" type="curve" smooth="yes"/>
      <point x="392" y="-16.002"/>
      <point x="339.817" y="-0.350586"/>
      <point x="286.171" y="-0.350586" type="curve"/>
      <point x="286.171" y="158"/>
      <point x="264.436" y="236.129"/>
      <point x="221.942" y="244" type="curve"/>
      <point x="264.436" y="253.393"/>
      <point x="286.171" y="329"/>
    </contour>
  </outline>
</glyph>
<glyph name="bar" format="1">
  <advance width="274"/>
  <unicode hex="007C"/>
  <outline>
    <contour>
      <point x="248.852" y="28.0225" type="move" smooth="yes"/>
    </contour>
    <contour>
      <point x="248.852" y="28.0225" type="line" smooth="yes"/>
      <point x="248.852" y="-22.9395"/>
      <point x="193.294" y="-72.8311"/>
      <point x="138.895" y="-72.8311" type="qcurve" smooth="yes"/>
      <point x="82.708" y="-72.8311"/>
      <point x="31.043" y="-31.8574"/>
      <point x="30.8643" y="20.376" type="qcurve" smooth="yes"/>
      <point x="28.6387" y="633.482" type="line" smooth="yes"/>
      <point x="28.6387" y="679.248"/>
      <point x="88.873" y="722.381"/>
      <point x="138.895" y="722.381" type="qcurve" smooth="yes"/>
      <point x="193.387" y="722.381"/>
      <point x="248.508" y="690.709"/>
      <point x="248.533" y="642.469" type="qcurve" smooth="yes"/>
    </contour>
  </outline>
</glyph>
<glyph name="braceright" format="1">
  <advance width="556"/>
  <unicode hex="007D"/>
  <outline>
    <contour>
      <point x="194.145" y="648" type="curve"/>
      <point x="132.145" y="648"/>
      <point x="72.1445" y="666"/>
      <point x="72.1445" y="724" type="curve" smooth="yes"/>
      <point x="72.1445" y="768"/>
      <point x="109.145" y="800"/>
      <point x="180.145" y="800" type="curve" smooth="yes"/>
      <point x="288.145" y="800" type="line" smooth="yes"/>
      <point x="388.145" y="800"/>
      <point x="413.145" y="769"/>
      <point x="413.145" y="690" type="curve" smooth="yes"/>
      <point x="413.145" y="395" type="line"/>
      <point x="464.145" y="387"/>
      <point x="491.145" y="358"/>
      <point x="491.145" y="322" type="curve" smooth="yes"/>
      <point x="491.145" y="275"/>
      <point x="456.145" y="254"/>
      <point x="413.145" y="248" type="curve"/>
      <point x="413.145" y="-48" type="line" smooth="yes"/>
      <point x="413.145" y="-128"/>
      <point x="388.145" y="-158"/>
      <point x="288.145" y="-158" type="curve" smooth="yes"/>
      <point x="180.145" y="-158" type="line" smooth="yes"/>
      <point x="109.145" y="-158"/>
      <point x="72.1445" y="-126"/>
      <point x="72.1445" y="-83" type="curve" smooth="yes"/>
      <point x="72.1445" y="-25"/>
      <point x="132.145" y="-7"/>
      <point x="194.145" y="-7" type="curve"/>
      <point x="194.145" y="205"/>
      <point x="219.145" y="310"/>
      <point x="268.145" y="320" type="curve"/>
      <point x="219.145" y="333"/>
      <point x="194.145" y="431"/>
    </contour>
  </outline>
</glyph>
<glyph name="asciitilde" format="1">
  <advance width="458"/>
  <unicode hex="007E"/>
  <outline>
    <contour>
      <point x="154.479" y="542.951" type="curve"/>
      <point x="154.479" y="506.727"/>
      <point x="120.209" y="477.894"/>
      <point x="76.7803" y="477.894" type="curve" smooth="yes"/>
      <point x="12.4717" y="477.894"/>
      <point x="0.806641" y="514.603"/>
      <point x="0.806641" y="566.007" type="curve" smooth="yes"/>
      <point x="0.806641" y="622.94"/>
      <point x="35.1094" y="684.566"/>
      <point x="103" y="684.566" type="curve" smooth="yes"/>
      <point x="196.628" y="684.566"/>
      <point x="282.941" y="619.509"/>
      <point x="282.941" y="619.509" type="curve"/>
      <point x="282.941" y="653.786"/>
      <point x="317.211" y="684.566"/>
      <point x="360.641" y="684.566" type="curve" smooth="yes"/>
      <point x="424.245" y="684.566"/>
      <point x="436.608" y="648.439"/>
      <point x="436.608" y="597.927" type="curve" smooth="yes"/>
      <point x="436.608" y="540.587"/>
      <point x="402.897" y="477.894"/>
      <point x="334.42" y="477.894" type="curve" smooth="yes"/>
      <point x="240.792" y="477.894"/>
      <point x="198.233" y="542.951"/>
    </contour>
  </outline>
</glyph>
<glyph name="uni0082" format="1">
  <advance width="424"/>
  <unicode hex="0082"/>
  <outline>
    <contour>
      <point x="404" y="396.857" type="curve"/>
      <point x="404" y="434.457"/>
      <point x="409.583" y="443.217"/>
      <point x="428.783" y="443.217" type="curve" smooth="yes"/>
      <point x="457.661" y="443.217"/>
      <point x="456.783" y="395.257"/>
      <point x="482.507" y="395.257" type="curve" smooth="yes"/>
      <point x="510.448" y="395.257"/>
      <point x="524.049" y="411.187"/>
      <point x="524.049" y="427.986" type="curve" smooth="yes"/>
      <point x="524.049" y="488.057"/>
      <point x="478.383" y="589.041"/>
      <point x="371.435" y="589.041" type="curve" smooth="yes"/>
      <point x="255.183" y="589.041"/>
      <point x="217.068" y="534.304"/>
      <point x="216.214" y="403.257" type="curve" smooth="yes"/>
      <point x="215.489" y="292.133"/>
      <point x="214.616" y="207.282"/>
      <point x="214.616" y="118.531" type="curve" smooth="yes"/>
      <point x="214.616" y="22.4824"/>
      <point x="246.165" y="-5.51758"/>
      <point x="308.556" y="-5.51758" type="curve" smooth="yes"/>
      <point x="370.946" y="-5.51758"/>
      <point x="404.171" y="22.4824"/>
      <point x="404.171" y="125.181" type="curve" smooth="yes"/>
      <point x="404.171" y="209.493"/>
      <point x="404" y="396.857"/>
    </contour>
  </outline>
</glyph>
<glyph name="uni0083" format="1">
  <advance width="678"/>
  <unicode hex="0083"/>
  <outline>
    <contour>
      <point x="571.201" y="380.714" type="curve" smooth="yes"/>
      <point x="571.201" y="306.545"/>
      <point x="535.662" y="247.71"/>
      <point x="451.207" y="247.71" type="curve" smooth="yes"/>
      <point x="366.752" y="247.71"/>
      <point x="381.177" y="343.39"/>
      <point x="351.387" y="343.39" type="curve" smooth="yes"/>
      <point x="321.598" y="343.39"/>
      <point x="318.081" y="321.043"/>
      <point x="318.93" y="271.694" type="curve"/>
      <point x="232.449" y="271.17" type="line"/>
      <point x="232.449" y="330.591"/>
      <point x="257.171" y="396.068"/>
      <point x="302.899" y="435.968" type="curve" smooth="yes"/>
      <point x="348.627" y="475.868"/>
      <point x="383.773" y="493.284"/>
      <point x="459.52" y="493.284" type="curve" smooth="yes"/>
      <point x="535.266" y="493.284"/>
      <point x="571.201" y="444.71"/>
    </contour>
  </outline>
</glyph>
<glyph name="uni0084" format="1">
  <advance width="682"/>
  <unicode hex="0084"/>
  <outline>
    <contour>
      <point x="289.887" y="183.248" type="curve" smooth="yes"/>
      <point x="289.887" y="144.285"/>
      <point x="306.332" y="134.257"/>
      <point x="327.931" y="134.257" type="curve" smooth="yes"/>
      <point x="354.183" y="134.257"/>
      <point x="371.502" y="161.115"/>
      <point x="371.502" y="198.93" type="curve"/>
      <point x="447.735" y="199.674" type="line"/>
      <point x="447.735" y="148.995"/>
      <point x="434.675" y="85.6221"/>
      <point x="387.361" y="49.2646" type="curve" smooth="yes"/>
      <point x="335.667" y="13.2002"/>
      <point x="281.532" y="0.5"/>
      <point x="215.271" y="0.5" type="curve" smooth="yes"/>
      <point x="133.531" y="0.5"/>
      <point x="99.1318" y="59.499"/>
      <point x="99.1318" y="208.299" type="curve" smooth="yes"/>
      <point x="99.1318" y="382.699"/>
      <point x="115.784" y="415.499"/>
      <point x="197.532" y="415.499" type="curve" smooth="yes"/>
      <point x="264.462" y="415.499"/>
      <point x="288.838" y="388.899"/>
      <point x="288.838" y="342.688" type="curve" smooth="yes"/>
      <point x="288.838" y="285.364"/>
      <point x="289.887" y="223.021"/>
    </contour>
  </outline>
</glyph>
<glyph name="uni0084" format="1">
  <advance width="758"/>
  <unicode hex="0084"/>
  <outline>
    <contour>
      <point x="330.355" y="210.565" type="curve" smooth="yes"/>
      <point x="330.355" y="165.758"/>
      <point x="349.267" y="154.226"/>
      <point x="374.105" y="154.226" type="curve" smooth="yes"/>
      <point x="404.296" y="154.226"/>
      <point x="424.212" y="185.112"/>
      <point x="424.212" y="228.6" type="curve"/>
      <point x="511.88" y="229.455" type="line"/>
      <point x="511.88" y="171.175"/>
      <point x="496.861" y="98.2959"/>
      <point x="442.45" y="56.4844" type="curve" smooth="yes"/>
      <point x="383.002" y="15.0107"/>
      <point x="320.747" y="0.405273"/>
      <point x="244.547" y="0.405273" type="curve" smooth="yes"/>
      <point x="150.546" y="0.405273"/>
      <point x="110.986" y="68.2539"/>
      <point x="110.986" y="239.374" type="curve" smooth="yes"/>
      <point x="110.986" y="439.935"/>
      <point x="130.137" y="477.654"/>
      <point x="224.146" y="477.654" type="curve" smooth="yes"/>
      <point x="301.116" y="477.654"/>
      <point x="329.148" y="447.064"/>
      <point x="329.148" y="393.922" type="curve" smooth="yes"/>
      <point x="329.148" y="327.999"/>
      <point x="330.355" y="256.305"/>
    </contour>
  </outline>
</glyph>
<glyph name="uni0085" format="1">
  <advance width="320"/>
  <unicode hex="0085"/>
  <outline>
    <contour>
      <point x="271.586" y="124.699" type="curve" smooth="yes"/>
      <point x="271.586" y="27.7969"/>
      <point x="238.361" y="-6"/>
      <point x="175.97" y="-6" type="curve" smooth="yes"/>
      <point x="113.579" y="-6"/>
      <point x="82.0312" y="22"/>
      <point x="82.0312" y="118.05" type="curve" smooth="yes"/>
      <point x="82.0312" y="216.755"/>
      <point x="80.0947" y="407.615"/>
      <point x="80.0947" y="485.186" type="curve" smooth="yes"/>
      <point x="80.0947" y="560.671"/>
      <point x="122" y="589.489"/>
      <point x="175.97" y="589.489" type="curve" smooth="yes"/>
      <point x="230.617" y="589.489"/>
      <point x="271.308" y="577.474"/>
      <point x="271.308" y="493" type="curve" smooth="yes"/>
      <point x="271.308" y="411.335"/>
      <point x="271.586" y="237.828"/>
    </contour>
  </outline>
</glyph>
<glyph name="uni0085" format="1">
  <advance width="456"/>
  <unicode hex="0085"/>
  <outline>
    <contour>
      <point x="353.948" y="136.673" type="line" smooth="yes"/>
      <point x="353.948" y="25.2354"/>
      <point x="315.739" y="-13.6318"/>
      <point x="243.989" y="-13.6318" type="curve" smooth="yes"/>
      <point x="172.24" y="-13.6318"/>
      <point x="135.96" y="18.5684"/>
      <point x="135.96" y="129.026" type="curve" smooth="yes"/>
      <point x="133.733" y="551.232" type="line" smooth="yes"/>
      <point x="133.733" y="638.04"/>
      <point x="181.924" y="671.181"/>
      <point x="243.989" y="671.181" type="curve" smooth="yes"/>
      <point x="306.833" y="671.181"/>
      <point x="353.628" y="657.363"/>
      <point x="353.628" y="560.219" type="curve" smooth="yes"/>
    </contour>
  </outline>
</glyph>
<glyph name="uni0086" format="1">
  <advance width="674"/>
  <unicode hex="0086"/>
  <outline>
    <contour>
      <point x="215.352" y="271.5" type="curve"/>
      <point x="215.352" y="416.899"/>
      <point x="360.758" y="515.922"/>
      <point x="476.387" y="514.999" type="curve" smooth="yes"/>
      <point x="547.492" y="514.447"/>
      <point x="618" y="462.999"/>
      <point x="618" y="261.999" type="curve" smooth="yes"/>
      <point x="618" y="60.999"/>
      <point x="540.432" y="-0.000976562"/>
      <point x="455.499" y="0.9375" type="curve" smooth="yes"/>
      <point x="373.93" y="1.87598"/>
      <point x="269.127" y="37.999"/>
      <point x="240.459" y="37.999" type="curve"/>
      <point x="240.459" y="118.999" type="line"/>
      <point x="327.069" y="118.999" type="line" smooth="yes"/>
      <point x="365.911" y="118.999"/>
      <point x="378.045" y="131.684"/>
      <point x="378.045" y="163.724" type="curve" smooth="yes"/>
      <point x="378.045" y="189.297"/>
      <point x="378.898" y="239.113"/>
      <point x="378.814" y="262.607" type="curve" smooth="yes"/>
      <point x="378.71" y="292.042"/>
      <point x="378.319" y="298.527"/>
      <point x="376.733" y="310.931" type="curve" smooth="yes"/>
      <point x="374.438" y="323.333"/>
      <point x="366.813" y="343.5"/>
      <point x="344.364" y="343.5" type="curve" smooth="yes"/>
      <point x="326.234" y="343.5"/>
      <point x="314.548" y="336"/>
      <point x="309.724" y="322.699" type="curve" smooth="yes"/>
      <point x="305.596" y="309.398"/>
      <point x="305.852" y="290.75"/>
      <point x="305.852" y="271.75" type="curve"/>
      <point x="305.852" y="271.75"/>
      <point x="270" y="271.5"/>
    </contour>
  </outline>
</glyph>
<glyph name="uni0087" format="1">
  <advance width="778"/>
  <unicode hex="0087"/>
  <outline>
    <contour>
      <point x="412.202" y="267.567" type="line" smooth="yes"/>
      <point x="412.202" y="312.376"/>
      <point x="393.29" y="323.908"/>
      <point x="368.451" y="323.908" type="curve" smooth="yes"/>
      <point x="338.262" y="323.908"/>
      <point x="318.345" y="293.021"/>
      <point x="318.345" y="249.535" type="curve"/>
      <point x="230.676" y="248.679" type="line"/>
      <point x="230.676" y="306.96"/>
      <point x="245.696" y="379.84"/>
      <point x="300.105" y="421.649" type="curve" smooth="yes"/>
      <point x="359.555" y="463.124"/>
      <point x="421.81" y="477.729"/>
      <point x="498.01" y="477.729" type="curve" smooth="yes"/>
      <point x="592.011" y="477.729"/>
      <point x="631.57" y="408.73"/>
      <point x="631.57" y="237.61" type="curve" smooth="yes"/>
      <point x="631.57" y="37.0498"/>
      <point x="612.419" y="-0.669922"/>
      <point x="518.409" y="-0.669922" type="curve" smooth="yes"/>
      <point x="441.44" y="-0.669922"/>
      <point x="413.407" y="28.7695"/>
      <point x="413.407" y="81.9131" type="curve" smooth="yes"/>
    </contour>
  </outline>
</glyph>
<glyph name="uni0087" format="1">
  <advance width="758"/>
  <unicode hex="0087"/>
  <outline>
    <contour>
      <point x="402.202" y="267.567" type="line" smooth="yes"/>
      <point x="402.202" y="312.376"/>
      <point x="383.29" y="323.908"/>
      <point x="358.451" y="323.908" type="curve" smooth="yes"/>
      <point x="328.262" y="323.908"/>
      <point x="308.345" y="293.021"/>
      <point x="308.345" y="249.535" type="curve"/>
      <point x="220.676" y="248.679" type="line"/>
      <point x="220.676" y="306.96"/>
      <point x="235.696" y="379.84"/>
      <point x="290.105" y="421.649" type="curve" smooth="yes"/>
      <point x="349.555" y="463.124"/>
      <point x="411.81" y="477.729"/>
      <point x="488.01" y="477.729" type="curve" smooth="yes"/>
      <point x="582.011" y="477.729"/>
      <point x="621.57" y="408.73"/>
      <point x="621.57" y="237.61" type="curve" smooth="yes"/>
      <point x="621.57" y="37.0498"/>
      <point x="602.419" y="-0.669922"/>
      <point x="508.409" y="-0.669922" type="curve" smooth="yes"/>
      <point x="431.44" y="-0.669922"/>
      <point x="403.407" y="28.7695"/>
      <point x="403.407" y="81.9131" type="curve" smooth="yes"/>
    </contour>
  </outline>
</glyph>
<glyph name="uni0088" format="1">
  <advance width="662"/>
  <unicode hex="0088"/>
  <outline>
    <contour>
      <point x="300.062" y="228.435" type="curve" smooth="yes"/>
      <point x="300.062" y="179.73"/>
      <point x="313.697" y="166.748"/>
      <point x="347.617" y="167.195" type="curve" smooth="yes"/>
      <point x="380.428" y="167.643"/>
      <point x="402.082" y="200.768"/>
      <point x="402.082" y="248.036" type="curve"/>
      <point x="497.373" y="248.966" type="line"/>
      <point x="497.373" y="185.618"/>
      <point x="481.047" y="106.401"/>
      <point x="421.906" y="60.9551" type="curve" smooth="yes"/>
      <point x="357.287" y="15.874"/>
      <point x="288.697" y="-0.000976562"/>
      <point x="204.793" y="-0.000976562" type="curve" smooth="yes"/>
      <point x="128.617" y="-0.000976562"/>
      <point x="77.7285" y="41.7559"/>
      <point x="72.1836" y="121.898" type="curve" smooth="yes"/>
      <point x="66.5547" y="203.275"/>
      <point x="65.5391" y="290.363"/>
      <point x="65.5391" y="384.416" type="curve" smooth="yes"/>
      <point x="65.5391" y="477.036"/>
      <point x="92.748" y="514.999"/>
      <point x="182.957" y="514.999" type="curve" smooth="yes"/>
      <point x="249.262" y="514.999"/>
      <point x="298.752" y="495.431"/>
      <point x="298.752" y="425.233" type="curve" smooth="yes"/>
      <point x="298.752" y="353.579"/>
      <point x="300.062" y="278.149"/>
    </contour>
  </outline>
</glyph>
<glyph name="uni0089" format="1">
  <advance width="708"/>
  <unicode hex="0089"/>
  <outline>
    <contour>
      <point x="392.757" y="204.677" type="curve" smooth="yes"/>
      <point x="392.757" y="257.208"/>
      <point x="375.291" y="313.423"/>
      <point x="335.802" y="313.423" type="curve" smooth="yes"/>
      <point x="304" y="313.423"/>
      <point x="285.557" y="257.02"/>
      <point x="285.557" y="204.677" type="curve" smooth="yes"/>
      <point x="285.557" y="156.231"/>
      <point x="301.498" y="102.077"/>
      <point x="335.156" y="102.077" type="curve" smooth="yes"/>
      <point x="376.161" y="102.077"/>
      <point x="392.757" y="155.022"/>
    </contour>
    <contour>
      <point x="255.956" y="-5.30566" type="curve" smooth="yes"/>
      <point x="168.213" y="-5.30566"/>
      <point x="97.0557" y="70.2773"/>
      <point x="97.0557" y="204.677" type="curve" smooth="yes"/>
      <point x="97.0557" y="339.619"/>
      <point x="164.867" y="421.077"/>
      <point x="255.661" y="421.077" type="curve" smooth="yes"/>
      <point x="382.024" y="421.077"/>
      <point x="474.356" y="293.201"/>
      <point x="474.356" y="212.186" type="curve" smooth="yes"/>
      <point x="474.356" y="72.9795"/>
      <point x="377.981" y="-5.30566"/>
    </contour>
  </outline>
</glyph>
<glyph name="uni0089" format="1">
  <advance width="804"/>
  <unicode hex="0089"/>
  <outline>
    <contour>
      <point x="456.814" y="235.226" type="curve" smooth="yes"/>
      <point x="456.814" y="295.637"/>
      <point x="436.729" y="360.284"/>
      <point x="391.316" y="360.284" type="curve" smooth="yes"/>
      <point x="354.744" y="360.284"/>
      <point x="333.535" y="295.421"/>
      <point x="333.535" y="235.226" type="curve" smooth="yes"/>
      <point x="333.535" y="179.513"/>
      <point x="351.867" y="117.236"/>
      <point x="390.573" y="117.236" type="curve" smooth="yes"/>
      <point x="437.729" y="117.236"/>
      <point x="456.814" y="178.123"/>
    </contour>
    <contour>
      <point x="299.493" y="-6.25391" type="curve" smooth="yes"/>
      <point x="198.589" y="-6.25391"/>
      <point x="116.758" y="80.666"/>
      <point x="116.758" y="235.226" type="curve" smooth="yes"/>
      <point x="116.758" y="390.409"/>
      <point x="194.741" y="484.086"/>
      <point x="299.154" y="484.086" type="curve" smooth="yes"/>
      <point x="444.472" y="484.086"/>
      <point x="550.653" y="337.028"/>
      <point x="550.653" y="243.861" type="curve" smooth="yes"/>
      <point x="550.653" y="83.7734"/>
      <point x="439.822" y="-6.25391"/>
    </contour>
  </outline>
</glyph>
<glyph name="uni008A" format="1">
  <advance width="708"/>
  <unicode hex="008A"/>
  <outline>
    <contour>
      <point x="178.655" y="204.677" type="curve" smooth="yes"/>
      <point x="178.655" y="155.022"/>
      <point x="195.251" y="102.077"/>
      <point x="236.256" y="102.077" type="curve" smooth="yes"/>
      <point x="269.914" y="102.077"/>
      <point x="285.855" y="156.231"/>
      <point x="285.855" y="204.677" type="curve" smooth="yes"/>
      <point x="285.855" y="257.02"/>
      <point x="267.412" y="313.423"/>
      <point x="235.61" y="313.423" type="curve" smooth="yes"/>
      <point x="196.121" y="313.423"/>
      <point x="178.655" y="257.208"/>
    </contour>
    <contour>
      <point x="315.456" y="-5.30566" type="curve" smooth="yes"/>
      <point x="193.431" y="-5.30566"/>
      <point x="97.0557" y="72.9795"/>
      <point x="97.0557" y="212.186" type="curve" smooth="yes"/>
      <point x="97.0557" y="293.201"/>
      <point x="189.388" y="421.077"/>
      <point x="315.751" y="421.077" type="curve" smooth="yes"/>
      <point x="406.545" y="421.077"/>
      <point x="474.356" y="339.619"/>
      <point x="474.356" y="204.677" type="curve" smooth="yes"/>
      <point x="474.356" y="70.2773"/>
      <point x="403.199" y="-5.30566"/>
    </contour>
  </outline>
</glyph>
<glyph name="uni008A" format="1">
  <advance width="784"/>
  <unicode hex="008A"/>
  <outline>
    <contour>
      <point x="200.598" y="235.226" type="curve" smooth="yes"/>
      <point x="200.598" y="178.123"/>
      <point x="219.683" y="117.236"/>
      <point x="266.839" y="117.236" type="curve" smooth="yes"/>
      <point x="305.545" y="117.236"/>
      <point x="323.877" y="179.513"/>
      <point x="323.877" y="235.226" type="curve" smooth="yes"/>
      <point x="323.877" y="295.421"/>
      <point x="302.668" y="360.284"/>
      <point x="266.096" y="360.284" type="curve" smooth="yes"/>
      <point x="220.684" y="360.284"/>
      <point x="200.598" y="295.637"/>
    </contour>
    <contour>
      <point x="357.919" y="-6.25391" type="curve" smooth="yes"/>
      <point x="217.59" y="-6.25391"/>
      <point x="106.758" y="83.7734"/>
      <point x="106.758" y="243.861" type="curve" smooth="yes"/>
      <point x="106.758" y="337.028"/>
      <point x="212.94" y="484.086"/>
      <point x="358.258" y="484.086" type="curve" smooth="yes"/>
      <point x="462.671" y="484.086"/>
      <point x="540.653" y="390.409"/>
      <point x="540.653" y="235.226" type="curve" smooth="yes"/>
      <point x="540.653" y="80.666"/>
      <point x="458.823" y="-6.25391"/>
    </contour>
  </outline>
</glyph>
<glyph name="uni008B" format="1">
  <advance width="492"/>
  <unicode hex="008B"/>
  <outline>
    <contour>
      <point x="332.686" y="509.452" type="curve" smooth="yes"/>
      <point x="253.769" y="510.371"/>
      <point x="180.144" y="509.947"/>
      <point x="93.7031" y="510.778" type="curve" smooth="yes"/>
      <point x="7.26562" y="511.609"/>
      <point x="-13.9141" y="481.845"/>
      <point x="-14.9697" y="440.997" type="curve" smooth="yes"/>
      <point x="-16.0215" y="400.314"/>
      <point x="33.6299" y="373.235"/>
      <point x="99.3281" y="372.463" type="curve" smooth="yes"/>
      <point x="165.028" y="371.69"/>
      <point x="245.822" y="372.872"/>
      <point x="322.508" y="373" type="curve" smooth="yes"/>
      <point x="399.193" y="373.128"/>
      <point x="438.242" y="380.907"/>
      <point x="439.627" y="431.779" type="curve" smooth="yes"/>
      <point x="441.103" y="485.997"/>
      <point x="411.602" y="508.533"/>
    </contour>
  </outline>
</glyph>
<glyph name="uni008B" format="1">
  <advance width="608"/>
  <unicode hex="008B"/>
  <outline>
    <contour>
      <point x="380.836" y="492.98" type="curve" smooth="yes"/>
      <point x="154.072" y="492.98" type="line" smooth="yes"/>
      <point x="84.5752" y="492.98"/>
      <point x="66.7422" y="465.38"/>
      <point x="66.7422" y="429.843" type="curve" smooth="yes"/>
      <point x="66.7422" y="392.402"/>
      <point x="87.3975" y="371.08"/>
      <point x="147.825" y="371.08" type="curve" smooth="yes"/>
      <point x="371.473" y="371.08" type="line" smooth="yes"/>
      <point x="443.358" y="371.08"/>
      <point x="476.922" y="382.171"/>
      <point x="476.922" y="425.963" type="curve" smooth="yes"/>
      <point x="476.922" y="476.88"/>
      <point x="453.441" y="492.589"/>
    </contour>
  </outline>
</glyph>
<glyph name="exclamdown" format="1">
  <advance width="266"/>
  <unicode hex="00A1"/>
  <outline>
    <contour>
      <point x="222.244" y="71.8662" type="curve" smooth="yes"/>
      <point x="222.244" y="18.0947"/>
      <point x="196.244" y="-5.90527"/>
      <point x="123.59" y="-5.90527" type="curve" smooth="yes"/>
      <point x="52.2441" y="-5.90527"/>
      <point x="35.2441" y="28.0947"/>
      <point x="35.2441" y="81.4941" type="curve" smooth="yes"/>
      <point x="35.2441" y="165.107"/>
      <point x="70.2441" y="279.739"/>
      <point x="70.2441" y="363.551" type="curve" smooth="yes"/>
      <point x="70.2441" y="411.352"/>
      <point x="83.1348" y="434.095"/>
      <point x="126.063" y="434.095" type="curve" smooth="yes"/>
      <point x="169.454" y="434.095"/>
      <point x="187.244" y="413.241"/>
      <point x="187.244" y="366.095" type="curve" smooth="yes"/>
      <point x="187.244" y="280.739"/>
      <point x="222.244" y="159.944"/>
    </contour>
    <contour>
      <point x="30.835" y="535" type="curve" smooth="yes"/>
      <point x="30.835" y="485.271"/>
      <point x="78.7754" y="468.841"/>
      <point x="127" y="468.841" type="curve" smooth="yes"/>
      <point x="184.237" y="468.841"/>
      <point x="230" y="482.708"/>
      <point x="230" y="535" type="curve" smooth="yes"/>
      <point x="230" y="579.885"/>
      <point x="189.739" y="601"/>
      <point x="127" y="601" type="curve" smooth="yes"/>
      <point x="65.1143" y="601"/>
      <point x="30.835" y="572.515"/>
    </contour>
  </outline>
</glyph>
<glyph name="cent" format="1">
  <advance width="599"/>
  <unicode hex="00A2"/>
  <outline>
    <contour>
      <point x="217.957" y="412" type="line"/>
      <point x="219.957" y="535.102" type="line" smooth="yes"/>
      <point x="220.983" y="598.246"/>
      <point x="260.471" y="624"/>
      <point x="314" y="624" type="curve" smooth="yes"/>
      <point x="368.196" y="624"/>
      <point x="408" y="612.767"/>
      <point x="408" y="544.088" type="curve" smooth="yes"/>
      <point x="408" y="419.646" type="line"/>
    </contour>
    <contour>
      <point x="219.957" y="27.0137" type="line" smooth="yes"/>
      <point x="408" y="36" type="line" smooth="yes"/>
      <point x="408" y="-55.1465" type="line" smooth="yes"/>
      <point x="408" y="-135.987"/>
      <point x="374.053" y="-156"/>
      <point x="312" y="-156" type="curve" smooth="yes"/>
      <point x="250.12" y="-156"/>
      <point x="216.351" y="-134.914"/>
      <point x="217.957" y="-62.793" type="curve" smooth="yes"/>
    </contour>
    <component base="c"/>
  </outline>
</glyph>
<glyph name="sterling" format="1">
  <advance width="556"/>
  <unicode hex="00A3"/>
  <outline>
    <contour>
      <point x="367.959" y="446.622" type="line" smooth="yes"/>
      <point x="367.959" y="494"/>
      <point x="371.642" y="511.897"/>
      <point x="388.645" y="526.066" type="curve" smooth="yes"/>
      <point x="401.002" y="536.364"/>
      <point x="416.966" y="543.316"/>
      <point x="458.227" y="543.316" type="curve" smooth="yes"/>
      <point x="490.359" y="543.316"/>
      <point x="506" y="561.635"/>
      <point x="506" y="580.954" type="curve" smooth="yes"/>
      <point x="506" y="619.263"/>
      <point x="453.484" y="683.663"/>
      <point x="330.494" y="683.663" type="curve" smooth="yes"/>
      <point x="185.082" y="683.663"/>
      <point x="153.006" y="608.879"/>
      <point x="151.832" y="446.299" type="curve" smooth="yes"/>
      <point x="151.727" y="416" type="line"/>
      <point x="119.954" y="416" type="line" smooth="yes"/>
      <point x="72.9541" y="416"/>
      <point x="53.0391" y="389.09"/>
      <point x="53.0391" y="353.495" type="curve" smooth="yes"/>
      <point x="53.0391" y="315.991"/>
      <point x="72.4062" y="294.012"/>
      <point x="119.954" y="293.9" type="curve" smooth="yes"/>
      <point x="151.303" y="293.9" type="line"/>
      <point x="151.022" y="213" type="line" smooth="yes"/>
      <point x="151.022" y="182"/>
      <point x="141.663" y="172.333"/>
      <point x="93.0225" y="157" type="curve" smooth="yes"/>
      <point x="54.9541" y="145"/>
      <point x="40.0225" y="125.981"/>
      <point x="40.0225" y="79.1299" type="curve" smooth="yes"/>
      <point x="40.0225" y="28.8828"/>
      <point x="56.2969" y="0"/>
      <point x="103.855" y="0" type="curve" smooth="yes"/>
      <point x="413.658" y="0" type="line" smooth="yes"/>
      <point x="473.771" y="0"/>
      <point x="501.858" y="16.5791"/>
      <point x="501.858" y="81" type="curve" smooth="yes"/>
      <point x="501.858" y="142.82"/>
      <point x="482.58" y="162.367"/>
      <point x="423.022" y="162.367" type="curve" smooth="yes"/>
      <point x="369.135" y="162.367" type="line"/>
      <point x="368.591" y="293.9" type="line"/>
      <point x="409.022" y="293.9" type="line" smooth="yes"/>
      <point x="466.022" y="293.9"/>
      <point x="479.022" y="306.171"/>
      <point x="479.022" y="354.633" type="curve" smooth="yes"/>
      <point x="479.022" y="401.258"/>
      <point x="458.295" y="415.88"/>
      <point x="409.022" y="416" type="curve" smooth="yes"/>
      <point x="368.085" y="416" type="line"/>
    </contour>
  </outline>
</glyph>
<glyph name="currency" format="1">
  <advance width="652"/>
  <unicode hex="00A4"/>
  <outline>
    <contour>
      <point x="400" y="236.961" type="curve" smooth="yes"/>
      <point x="400" y="278.284"/>
      <point x="376.856" y="323.188"/>
      <point x="327.308" y="323.188" type="curve" smooth="yes"/>
      <point x="277.084" y="323.188"/>
      <point x="250.771" y="277.771"/>
      <point x="250.771" y="237.028" type="curve" smooth="yes"/>
      <point x="250.771" y="196.699"/>
      <point x="275.284" y="153.163"/>
      <point x="326.795" y="153.163" type="curve" smooth="yes"/>
      <point x="379.024" y="153.163"/>
      <point x="400" y="196.082"/>
    </contour>
    <contour>
      <point x="59.3324" y="145.584" type="line"/>
      <point x="48.024" y="172.153"/>
      <point x="41.8525" y="202.082"/>
      <point x="41.8525" y="235.146" type="curve" smooth="yes"/>
      <point x="41.8525" y="269.309"/>
      <point x="48.0512" y="300.357"/>
      <point x="59.5276" y="327.952" type="curve"/>
      <point x="49.7754" y="334.681" type="line" smooth="yes"/>
      <point x="18.5488" y="356.241"/>
      <point x="0.475586" y="375.238"/>
      <point x="0.475586" y="398" type="curve" smooth="yes"/>
      <point x="0.475586" y="433.905"/>
      <point x="41.8047" y="479.708"/>
      <point x="70.3838" y="479.708" type="curve" smooth="yes"/>
      <point x="85.0557" y="479.708"/>
      <point x="101.777" y="471.455"/>
      <point x="122.809" y="456.934" type="curve" smooth="yes"/>
      <point x="155.043" y="434.692" type="line"/>
      <point x="201.949" y="461.945"/>
      <point x="260.764" y="476.517"/>
      <point x="326.3" y="476.517" type="curve" smooth="yes"/>
      <point x="389.93" y="476.517"/>
      <point x="446.922" y="462.786"/>
      <point x="492.766" y="437.056" type="curve"/>
      <point x="521.575" y="456.934" type="line" smooth="yes"/>
      <point x="542.606" y="471.455"/>
      <point x="559.328" y="479.708"/>
      <point x="574" y="479.708" type="curve" smooth="yes"/>
      <point x="602.579" y="479.708"/>
      <point x="643.908" y="433.905"/>
      <point x="643.908" y="398" type="curve" smooth="yes"/>
      <point x="643.908" y="375.238"/>
      <point x="625.835" y="356.241"/>
      <point x="594.608" y="334.681" type="curve" smooth="yes"/>
      <point x="589.925" y="331.449" type="line"/>
      <point x="602.187" y="302.988"/>
      <point x="608.814" y="270.76"/>
      <point x="608.814" y="235.146" type="curve" smooth="yes"/>
      <point x="608.814" y="200.634"/>
      <point x="602.194" y="169.538"/>
      <point x="590.082" y="142.113" type="curve"/>
      <point x="609.821" y="128.493" type="line" smooth="yes"/>
      <point x="633.759" y="111.977"/>
      <point x="643.908" y="94.6377"/>
      <point x="643.908" y="77" type="curve" smooth="yes"/>
      <point x="643.908" y="41.3643"/>
      <point x="606.168" y="-6.87402"/>
      <point x="575.384" y="-6.87402" type="curve" smooth="yes"/>
      <point x="563.06" y="-6.87402"/>
      <point x="549.512" y="-2.53906"/>
      <point x="534.222" y="8.01074" type="curve" smooth="yes"/>
      <point x="490.99" y="37.8401" type="line"/>
      <point x="444.799" y="12.8226"/>
      <point x="388.039" y="-0.317383"/>
      <point x="326.294" y="-0.317383" type="curve" smooth="yes"/>
      <point x="262.688" y="-0.317383"/>
      <point x="204.05" y="13.6332"/>
      <point x="156.747" y="40.1532" type="curve"/>
      <point x="110.162" y="8.01074" type="line" smooth="yes"/>
      <point x="94.8724" y="-2.5389"/>
      <point x="81.3238" y="-6.87374"/>
      <point x="69" y="-6.87374" type="curve" smooth="yes"/>
      <point x="38.2157" y="-6.87374"/>
      <point x="0.475545" y="41.3642"/>
      <point x="0.475545" y="77" type="curve" smooth="yes"/>
      <point x="0.475545" y="94.6373"/>
      <point x="10.6254" y="111.977"/>
      <point x="34.5625" y="128.493" type="curve" smooth="yes"/>
    </contour>
  </outline>
</glyph>
<glyph name="yen" format="1">
  <advance width="723"/>
  <unicode hex="00A5"/>
  <outline>
    <contour>
      <point x="538" y="167" type="line" smooth="yes"/>
      <point x="587" y="167"/>
      <point x="607.983" y="154.127"/>
      <point x="607.983" y="115.1" type="curve" smooth="yes"/>
      <point x="607.983" y="74.6172"/>
      <point x="588.321" y="65"/>
      <point x="537.983" y="65" type="curve" smooth="yes"/>
      <point x="159.983" y="65" type="line" smooth="yes"/>
      <point x="112.427" y="65"/>
      <point x="93.0684" y="84.0967"/>
      <point x="93.0684" y="115.229" type="curve" smooth="yes"/>
      <point x="93.0684" y="145.195"/>
      <point x="104.231" y="167"/>
      <point x="159.983" y="167" type="curve" smooth="yes"/>
    </contour>
    <contour>
      <point x="537.983" y="326" type="line" smooth="yes"/>
      <point x="587.266" y="326"/>
      <point x="607.983" y="313.027"/>
      <point x="607.983" y="274" type="curve" smooth="yes"/>
      <point x="607.983" y="233.518"/>
      <point x="588.321" y="224"/>
      <point x="537.983" y="224" type="curve" smooth="yes"/>
      <point x="159.983" y="224" type="line" smooth="yes"/>
      <point x="112.427" y="224"/>
      <point x="93.0684" y="242.997"/>
      <point x="93.0684" y="274.13" type="curve" smooth="yes"/>
      <point x="93.0684" y="304.096"/>
      <point x="104.231" y="326"/>
      <point x="159.983" y="326" type="curve" smooth="yes"/>
    </contour>
    <component base="Y" xOffset="-0.0166016"/>
  </outline>
</glyph>
<glyph name="brokenbar" format="1">
  <advance width="339"/>
  <unicode hex="00A6"/>
  <outline>
    <contour>
      <point x="280" y="72.8535" type="line" smooth="yes"/>
      <point x="280" y="3.83105"/>
      <point x="241.792" y="-28"/>
      <point x="170.043" y="-28" type="curve" smooth="yes"/>
      <point x="98.293" y="-28"/>
      <point x="61.2471" y="-6.9541"/>
      <point x="61" y="65.207" type="curve" smooth="yes"/>
      <point x="61" y="210.482" type="line" smooth="yes"/>
      <point x="61" y="274.812"/>
      <point x="107.977" y="299.381"/>
      <point x="170.043" y="299.381" type="curve" smooth="yes"/>
      <point x="232.887" y="299.381"/>
      <point x="280" y="289.423"/>
      <point x="280" y="219.469" type="curve" smooth="yes"/>
    </contour>
    <contour>
      <point x="280" y="495.854" type="line" smooth="yes"/>
      <point x="280" y="426.831"/>
      <point x="241.792" y="395"/>
      <point x="170.043" y="395" type="curve" smooth="yes"/>
      <point x="98.293" y="395"/>
      <point x="61.2471" y="416.046"/>
      <point x="61" y="488.207" type="curve" smooth="yes"/>
      <point x="61" y="633.482" type="line" smooth="yes"/>
      <point x="61" y="697.811"/>
      <point x="107.977" y="722.381"/>
      <point x="170.043" y="722.381" type="curve" smooth="yes"/>
      <point x="232.887" y="722.381"/>
      <point x="280" y="712.422"/>
      <point x="280" y="642.469" type="curve" smooth="yes"/>
    </contour>
  </outline>
</glyph>
<glyph name="section" format="1">
  <advance width="800"/>
  <unicode hex="00A7"/>
  <outline>
    <contour>
      <point x="516.006" y="325.141" type="curve" smooth="yes"/>
      <point x="516.006" y="339.099"/>
      <point x="503.923" y="347.975"/>
      <point x="476" y="364.141" type="curve" smooth="yes"/>
      <point x="381" y="419.141"/>
      <point x="351.941" y="449.182"/>
      <point x="315" y="449.182" type="curve" smooth="yes"/>
      <point x="295.599" y="449.182"/>
      <point x="285.468" y="437.345"/>
      <point x="285.468" y="418.141" type="curve" smooth="yes"/>
      <point x="285.468" y="368.951"/>
      <point x="393.673" y="292"/>
      <point x="468" y="292" type="curve" smooth="yes"/>
      <point x="493.653" y="292"/>
      <point x="516.006" y="301.811"/>
    </contour>
    <contour>
      <point x="179" y="578.316" type="curve"/>
      <point x="179" y="706.785"/>
      <point x="258.654" y="819.551"/>
      <point x="447.7" y="819.551" type="curve" smooth="yes"/>
      <point x="615.006" y="819.551"/>
      <point x="724.465" y="736.083"/>
      <point x="724.465" y="666.601" type="curve" smooth="yes"/>
      <point x="724.465" y="636.587"/>
      <point x="701.13" y="621.541"/>
      <point x="681.6" y="621.541" type="curve" smooth="yes"/>
      <point x="637.665" y="621.541"/>
      <point x="560.232" y="695.712"/>
      <point x="476.45" y="695.712" type="curve" smooth="yes"/>
      <point x="441.665" y="695.712"/>
      <point x="417.8" y="684.347"/>
      <point x="417.8" y="648.2" type="curve" smooth="yes"/>
      <point x="417.8" y="596.012"/>
      <point x="504.949" y="576.203"/>
      <point x="601" y="516" type="curve" smooth="yes"/>
      <point x="716.33" y="443.714"/>
      <point x="763.443" y="413.669"/>
      <point x="763.443" y="316" type="curve" smooth="yes"/>
      <point x="763.443" y="226.293"/>
      <point x="697.223" y="162.279"/>
      <point x="646.48" y="144" type="curve"/>
      <point x="647.466" y="133.221"/>
      <point x="647.833" y="122.533"/>
      <point x="647.833" y="112" type="curve" smooth="yes"/>
      <point x="647.833" y="-0.592019"/>
      <point x="579" y="-95.5195"/>
      <point x="357.781" y="-95.5195" type="curve" smooth="yes"/>
      <point x="167.352" y="-95.5195"/>
      <point x="33" y="5.6377"/>
      <point x="33" y="71.9395" type="curve" smooth="yes"/>
      <point x="33" y="98.9854"/>
      <point x="50.3047" y="124.633"/>
      <point x="90.5547" y="124.633" type="curve" smooth="yes"/>
      <point x="140.271" y="124.633"/>
      <point x="227.091" y="71.752"/>
      <point x="311.781" y="71.752" type="curve" smooth="yes"/>
      <point x="336.9" y="71.752"/>
      <point x="356.631" y="79.957"/>
      <point x="356.631" y="103.431" type="curve" smooth="yes"/>
      <point x="356.631" y="144.585"/>
      <point x="300.831" y="148.975"/>
      <point x="155.73" y="231.881" type="curve" smooth="yes"/>
      <point x="79.4844" y="275.445"/>
      <point x="44.1807" y="324.216"/>
      <point x="44.1807" y="395.595" type="curve" smooth="yes"/>
      <point x="44.1807" y="503"/>
      <point x="119" y="547"/>
    </contour>
  </outline>
</glyph>
<glyph name="copyright" format="1">
  <advance width="535"/>
  <unicode hex="00A9"/>
  <outline>
    <contour>
      <point x="-4" y="563" type="curve" smooth="yes"/>
      <point x="-4" y="702"/>
      <point x="119" y="814"/>
      <point x="271" y="814" type="curve" smooth="yes"/>
      <point x="421" y="814"/>
      <point x="541" y="702"/>
      <point x="541" y="563" type="curve" smooth="yes"/>
      <point x="541" y="424"/>
      <point x="421" y="312"/>
      <point x="271" y="312" type="curve" smooth="yes"/>
      <point x="119" y="312"/>
      <point x="-4" y="424"/>
    </contour>
    <contour>
      <point x="59" y="563" type="curve" smooth="yes"/>
      <point x="59" y="458"/>
      <point x="154" y="374"/>
      <point x="271" y="374" type="curve" smooth="yes"/>
      <point x="387" y="374"/>
      <point x="479" y="458"/>
      <point x="479" y="563" type="curve" smooth="yes"/>
      <point x="479" y="668"/>
      <point x="387" y="752"/>
      <point x="271" y="752" type="curve" smooth="yes"/>
      <point x="154" y="752"/>
      <point x="59" y="668"/>
    </contour>
    <contour>
      <point x="277" y="585" type="curve" smooth="yes"/>
      <point x="277" y="600"/>
      <point x="286" y="613"/>
      <point x="286" y="622" type="curve" smooth="yes"/>
      <point x="286" y="632"/>
      <point x="283" y="639"/>
      <point x="271" y="639" type="curve" smooth="yes"/>
      <point x="251" y="639"/>
      <point x="238" y="605"/>
      <point x="238" y="573" type="curve" smooth="yes"/>
      <point x="238" y="537"/>
      <point x="261" y="513"/>
      <point x="299" y="513" type="curve" smooth="yes"/>
      <point x="317" y="513"/>
      <point x="337" y="515"/>
      <point x="352" y="519" type="curve" smooth="yes"/>
      <point x="370" y="525"/>
      <point x="378" y="535"/>
      <point x="388" y="535" type="curve" smooth="yes"/>
      <point x="407" y="535"/>
      <point x="417" y="524"/>
      <point x="417" y="513" type="curve" smooth="yes"/>
      <point x="417" y="485"/>
      <point x="367" y="415"/>
      <point x="276" y="415" type="curve" smooth="yes"/>
      <point x="181" y="415"/>
      <point x="107" y="469"/>
      <point x="107" y="564" type="curve" smooth="yes"/>
      <point x="107" y="653"/>
      <point x="178" y="707"/>
      <point x="276" y="707" type="curve" smooth="yes"/>
      <point x="373" y="707"/>
      <point x="410" y="672"/>
      <point x="410" y="623" type="curve" smooth="yes"/>
      <point x="410" y="596"/>
      <point x="391" y="549"/>
      <point x="323" y="549" type="curve" smooth="yes"/>
      <point x="298" y="549"/>
      <point x="277" y="552"/>
    </contour>
  </outline>
</glyph>
<glyph name="logicalnot" format="1">
  <advance width="559"/>
  <unicode hex="00AC"/>
  <outline>
    <contour>
      <point x="540" y="170" type="line" smooth="yes"/>
      <point x="540" y="97.4219"/>
      <point x="518.516" y="79.915"/>
      <point x="461.482" y="79.915" type="curve" smooth="yes"/>
      <point x="411.267" y="79.915"/>
      <point x="385.1" y="107.504"/>
      <point x="385.1" y="179.364" type="curve" smooth="yes"/>
      <point x="385.1" y="260.005" type="line"/>
      <point x="104" y="260.005" type="line" smooth="yes"/>
      <point x="43.5943" y="260.005"/>
      <point x="22.918" y="287.699"/>
      <point x="22.918" y="330.268" type="curve" smooth="yes"/>
      <point x="22.918" y="370.337"/>
      <point x="40.7748" y="404.905"/>
      <point x="110.247" y="404.905" type="curve" smooth="yes"/>
      <point x="441.915" y="404.905" type="line" smooth="yes"/>
      <point x="465.921" y="404.905"/>
      <point x="484.667" y="403.648"/>
      <point x="500.952" y="396.5" type="curve" smooth="yes"/>
      <point x="530.816" y="384.512"/>
      <point x="540" y="356.359"/>
      <point x="540" y="315.668" type="curve" smooth="yes"/>
    </contour>
  </outline>
</glyph>
